<svg version="1.1" xmlns="http://www.w3.org/2000/svg" viewBox="0 0 1318.9668061493762 575.4883277322374" width="1318.9668061493762" height="575.4883277322374">
  <!-- svg-source:excalidraw -->
  
  <defs>
    <style class="style-fonts">
      @font-face {
        font-family: "Virgil";
        src: url("https://excalidraw.com/Virgil.woff2");
      }
      @font-face {
        font-family: "Cascadia";
        src: url("https://excalidraw.com/Cascadia.woff2");
      }
    </style>
    
  </defs>
  <rect x="0" y="0" width="1318.9668061493762" height="575.4883277322374" fill="#ffffff"></rect><g stroke-linecap="round" transform="translate(226.94374922177184 355.76403117054997) rotate(0 145.57794928551976 98.51125403531364)"><path d="M32 0 M32 0 C113.33 -1.62, 192.85 0.66, 259.16 0 M32 0 C82.32 0.99, 132.42 2.47, 259.16 0 M259.16 0 C282.46 1.99, 292.93 12.22, 291.16 32 M259.16 0 C282.74 1.28, 290.46 9.07, 291.16 32 M291.16 32 C292.64 84.2, 291.9 133.51, 291.16 165.02 M291.16 32 C289.67 83.93, 289.56 134.66, 291.16 165.02 M291.16 165.02 C289.86 185.9, 281.61 198.72, 259.16 197.02 M291.16 165.02 C292.65 184.33, 279.78 196.1, 259.16 197.02 M259.16 197.02 C173.99 198.87, 86.43 197.78, 32 197.02 M259.16 197.02 C176.04 196.3, 91.53 196.85, 32 197.02 M32 197.02 C11.48 198.17, 1.34 187.84, 0 165.02 M32 197.02 C10.4 198.13, -0.85 188.62, 0 165.02 M0 165.02 C0.63 121.16, -0.09 79.28, 0 32 M0 165.02 C-1.94 120.35, -0.49 76.99, 0 32 M0 32 C1.15 12.48, 10.53 -0.27, 32 0 M0 32 C0.71 9.12, 12.24 1.81, 32 0" stroke="#1e1e1e" stroke-width="1" fill="none"></path></g><g stroke-linecap="round"><g transform="translate(321.99278799205615 353.42027790816445) rotate(0 4.418106686433134 -14.62380619392735)"><path d="M-0.86 -1.06 C0.86 -6.06, 8.18 -25.29, 9.7 -30.24 M0.89 0.99 C2.59 -3.82, 8.23 -23.83, 9.3 -29" stroke="#1e1e1e" stroke-width="1" fill="none"></path></g></g><mask></mask><g stroke-linecap="round"><g transform="translate(331.47258601087304 323.74438845795515) rotate(0 38.37287590217289 0.17940530780552422)"><path d="M-0.68 -0.89 C12.25 -0.57, 64.69 1.14, 77.43 1.19 M1.16 1.25 C14.01 1.34, 64.04 -0.16, 76.88 -0.3" stroke="#1e1e1e" stroke-width="1" fill="none"></path></g></g><mask></mask><g stroke-linecap="round"><g transform="translate(408.54746555516664 324.56871872046094) rotate(0 5.8015569181359155 15.012280844501277)"><path d="M0.87 0.11 C2.36 5.22, 7.77 24.6, 9.61 29.47 M-0.14 -0.87 C1.66 4.52, 9.76 25.67, 11.74 30.9" stroke="#1e1e1e" stroke-width="1" fill="none"></path></g></g><mask></mask><g stroke-linecap="round" transform="translate(815.1264863086753 368.4658196616102) rotate(0 145.57794928551976 98.51125403531358)"><path d="M32 0 M32 0 C93.72 0.96, 154.1 1.65, 259.16 0 M32 0 C98.35 -1.7, 165.97 -1.56, 259.16 0 M259.16 0 C282.09 -1.53, 290.72 9.19, 291.16 32 M259.16 0 C281.19 1.18, 290.55 11.47, 291.16 32 M291.16 32 C291.82 59.48, 292.11 91.76, 291.16 165.02 M291.16 32 C291.54 59.72, 291.53 86.02, 291.16 165.02 M291.16 165.02 C291.15 187.16, 280.43 198.32, 259.16 197.02 M291.16 165.02 C293.43 188.52, 280.88 198.33, 259.16 197.02 M259.16 197.02 C190.54 196.44, 120.43 197.06, 32 197.02 M259.16 197.02 C200.46 197.83, 142.65 197.38, 32 197.02 M32 197.02 C9.72 198.49, 0.02 186.44, 0 165.02 M32 197.02 C10.18 197.1, -0.87 186.44, 0 165.02 M0 165.02 C2.16 133.99, 2.07 102.27, 0 32 M0 165.02 C1.42 132.28, 0.02 98.74, 0 32 M0 32 C1.79 9.86, 12.31 -0.84, 32 0 M0 32 C-0.75 10.8, 10.03 1.24, 32 0" stroke="#1e1e1e" stroke-width="1" fill="none"></path></g><g stroke-linecap="round"><g transform="translate(910.1755250789597 366.1220663992247) rotate(0 3.5519308012187025 -15.189400163600254)"><path d="M0.24 0.27 C1.65 -4.49, 6.81 -23.92, 8.2 -28.92 M-1.09 -0.64 C0.15 -5.7, 5.53 -26.01, 7.01 -30.65" stroke="#1e1e1e" stroke-width="1" fill="none"></path></g></g><mask></mask><g stroke-linecap="round"><g transform="translate(919.6553230977765 336.4461769490154) rotate(0 38.184262995188874 -0.16749763299711162)"><path d="M0.27 -0.46 C13.23 -0.51, 64.7 -0.25, 77.42 -0.08 M-1.05 -1.75 C11.85 -1.63, 64.06 1.37, 76.87 1.41" stroke="#1e1e1e" stroke-width="1" fill="none"></path></g></g><mask></mask><g stroke-linecap="round"><g transform="translate(996.73020264207 337.2705072115212) rotate(0 5.087059305672597 15.6024848550326)"><path d="M-0.46 0.75 C1.27 5.64, 8.68 24.84, 10.63 29.6 M1.5 0.1 C3.05 5.17, 8.09 26.04, 9.64 31.1" stroke="#1e1e1e" stroke-width="1" fill="none"></path></g></g><mask></mask><g transform="translate(264.44793422811483 172.73336712247186) rotate(0 50.989967346191406 12.5)"><text x="0" y="0" font-family="Virgil, Segoe UI Emoji" font-size="20px" fill="#000000" text-anchor="start" style="white-space: pre;" direction="ltr" dominant-baseline="text-before-edge">Lähettäjä</text></g><g stroke-linecap="round"><g transform="translate(261.66071357960743 163.08044111249313) rotate(0 25.819645202628983 -21.795699329337097)" fill-rule="evenodd"><path d="M13.47 -38.64 C13.47 -38.64, 13.47 -38.64, 13.47 -38.64 M13.47 -38.64 C13.47 -38.64, 13.47 -38.64, 13.47 -38.64 M7.04 -19.05 C11.42 -24.09, 15.8 -29.13, 26.72 -41.69 M7.04 -19.05 C11.07 -23.69, 15.1 -28.32, 26.72 -41.69 M0.61 0.53 C12.75 -13.42, 24.88 -27.38, 35.39 -39.47 M0.61 0.53 C9.35 -9.52, 18.09 -19.56, 35.39 -39.47 M11.24 0.5 C19.28 -8.74, 27.32 -17.99, 40.77 -33.46 M11.24 0.5 C18.67 -8.04, 26.09 -16.58, 40.77 -33.46 M21.87 0.47 C29.47 -8.27, 37.06 -17.01, 46.81 -28.21 M21.87 0.47 C31.43 -10.53, 40.99 -21.53, 46.81 -28.21 M29.22 4.2 C37.2 -4.97, 45.17 -14.14, 50.87 -20.7 M29.22 4.2 C37.54 -5.36, 45.86 -14.93, 50.87 -20.7 M41.82 1.91 C46.52 -3.49, 51.21 -8.89, 54.94 -13.19 M41.82 1.91 C46.9 -3.94, 51.99 -9.79, 54.94 -13.19 M0 0 C0 0, 0 0, 0 0 M0 0 C0 0, 0 0, 0 0 M12.04 -0.13 C8.58 -3.14, 5.12 -6.15, 1.47 -9.32 M12.04 -0.13 C8.43 -3.28, 4.81 -6.42, 1.47 -9.32 M24.84 0.39 C20 -3.81, 15.17 -8.01, 2.95 -18.64 M24.84 0.39 C18.69 -4.95, 12.55 -10.29, 2.95 -18.64 M30.08 -5.65 C20.97 -13.58, 11.85 -21.5, 6.69 -25.99 M30.08 -5.65 C23.75 -11.15, 17.42 -16.66, 6.69 -25.99 M45.9 -2.5 C37.64 -9.68, 29.38 -16.86, 9.67 -33.99 M45.9 -2.5 C31.75 -14.8, 17.61 -27.09, 9.67 -33.99 M52.66 -7.23 C42.25 -16.28, 31.83 -25.33, 14.92 -40.03 M52.66 -7.23 C39.83 -18.38, 27 -29.53, 14.92 -40.03 M51.11 -19.17 C39.53 -29.24, 27.94 -39.31, 20.92 -45.41 M51.11 -19.17 C42.72 -26.46, 34.33 -33.76, 20.92 -45.41" stroke="#ced4da" stroke-width="1" fill="none"></path><path d="M0 0 C0.92 -4.85, 1.58 -21.76, 5.52 -29.07 C9.46 -36.38, 17.61 -43.34, 23.65 -43.87 C29.69 -44.4, 37.51 -39.05, 41.78 -32.24 C46.05 -25.43, 56.23 -8.39, 49.27 -3.02 C42.31 2.36, 8.21 -0.5, 0 0 M0 0 C0.92 -4.85, 1.58 -21.76, 5.52 -29.07 C9.46 -36.38, 17.61 -43.34, 23.65 -43.87 C29.69 -44.4, 37.51 -39.05, 41.78 -32.24 C46.05 -25.43, 56.23 -8.39, 49.27 -3.02 C42.31 2.36, 8.21 -0.5, 0 0" stroke="#000000" stroke-width="2" fill="none"></path></g></g><mask></mask><g stroke-linecap="round" transform="translate(274.1145844159231 96.38939332663676) rotate(0 12.6129717038432 11.036350240862845)"><path d="M2.98 3.91 C2.98 3.91, 2.98 3.91, 2.98 3.91 M2.98 3.91 C2.98 3.91, 2.98 3.91, 2.98 3.91 M2.45 16.71 C6.41 12.15, 10.38 7.6, 16.23 0.86 M2.45 16.71 C7.11 11.35, 11.77 5.99, 16.23 0.86 M8.49 21.96 C11.89 18.05, 15.29 14.14, 23.58 4.6 M8.49 21.96 C14.26 15.32, 20.03 8.68, 23.58 4.6 M4.36 19.37 C4.36 19.37, 4.36 19.37, 4.36 19.37 M4.36 19.37 C4.36 19.37, 4.36 19.37, 4.36 19.37 M17.91 20.55 C14.11 17.24, 10.3 13.93, 1.31 6.11 M17.91 20.55 C12.06 15.46, 6.21 10.37, 1.31 6.11 M24.67 15.82 C18.17 10.17, 11.68 4.52, 7.31 0.73 M24.67 15.82 C19.7 11.5, 14.73 7.17, 7.31 0.73" stroke="#ced4da" stroke-width="1" fill="none"></path><path d="M25.23 11.04 C25.23 11.68, 25.16 12.32, 25.03 12.95 C24.91 13.58, 24.71 14.21, 24.47 14.81 C24.22 15.41, 23.9 16, 23.54 16.55 C23.17 17.11, 22.74 17.64, 22.28 18.13 C21.81 18.62, 21.28 19.08, 20.72 19.49 C20.16 19.9, 19.55 20.27, 18.92 20.59 C18.29 20.91, 17.61 21.19, 16.93 21.41 C16.24 21.63, 15.52 21.79, 14.8 21.91 C14.08 22.02, 13.34 22.07, 12.61 22.07 C11.88 22.07, 11.14 22.02, 10.42 21.91 C9.7 21.79, 8.99 21.63, 8.3 21.41 C7.61 21.19, 6.94 20.91, 6.31 20.59 C5.67 20.27, 5.06 19.9, 4.51 19.49 C3.95 19.08, 3.42 18.62, 2.95 18.13 C2.48 17.64, 2.05 17.11, 1.69 16.55 C1.32 16, 1.01 15.41, 0.76 14.81 C0.51 14.21, 0.32 13.58, 0.19 12.95 C0.06 12.32, 0 11.68, 0 11.04 C0 10.4, 0.06 9.75, 0.19 9.12 C0.32 8.49, 0.51 7.86, 0.76 7.26 C1.01 6.66, 1.32 6.07, 1.69 5.52 C2.05 4.96, 2.48 4.43, 2.95 3.94 C3.42 3.45, 3.95 2.99, 4.51 2.58 C5.06 2.17, 5.67 1.8, 6.31 1.48 C6.94 1.16, 7.61 0.88, 8.3 0.67 C8.99 0.45, 9.7 0.28, 10.42 0.17 C11.14 0.06, 11.88 0, 12.61 0 C13.34 0, 14.08 0.06, 14.8 0.17 C15.52 0.28, 16.24 0.45, 16.93 0.67 C17.61 0.88, 18.29 1.16, 18.92 1.48 C19.55 1.8, 20.16 2.17, 20.72 2.58 C21.28 2.99, 21.81 3.45, 22.28 3.94 C22.74 4.43, 23.17 4.96, 23.54 5.52 C23.9 6.07, 24.22 6.66, 24.47 7.26 C24.71 7.86, 24.91 8.49, 25.03 9.12 C25.16 9.75, 25.19 10.72, 25.23 11.04 C25.26 11.36, 25.26 10.72, 25.23 11.04" stroke="#000000" stroke-width="2" fill="none"></path></g><g transform="translate(1020.3054597062082 203.22232944824825) rotate(0 74.38995361328125 12.5)"><text x="0" y="0" font-family="Virgil, Segoe UI Emoji" font-size="20px" fill="#000000" text-anchor="start" style="white-space: pre;" direction="ltr" dominant-baseline="text-before-edge">Vastaanottaja</text></g><g stroke-linecap="round"><g transform="translate(1017.5182390577008 193.56940343826952) rotate(0 25.819645202628976 -21.795699329337097)" fill-rule="evenodd"><path d="M13.47 -38.64 C13.47 -38.64, 13.47 -38.64, 13.47 -38.64 M13.47 -38.64 C13.47 -38.64, 13.47 -38.64, 13.47 -38.64 M7.04 -19.05 C14.15 -27.23, 21.25 -35.4, 26.72 -41.69 M7.04 -19.05 C11.96 -24.71, 16.88 -30.37, 26.72 -41.69 M0.61 0.53 C8.04 -8.01, 15.46 -16.55, 35.39 -39.47 M0.61 0.53 C11.71 -12.23, 22.8 -24.98, 35.39 -39.47 M11.24 0.5 C22.47 -12.42, 33.7 -25.33, 40.77 -33.46 M11.24 0.5 C21.52 -11.32, 31.79 -23.14, 40.77 -33.46 M21.87 0.47 C31.1 -10.15, 40.32 -20.76, 46.81 -28.21 M21.87 0.47 C30.14 -9.04, 38.4 -18.54, 46.81 -28.21 M29.22 4.2 C35.19 -2.66, 41.16 -9.53, 50.87 -20.7 M29.22 4.2 C34.59 -1.97, 39.95 -8.14, 50.87 -20.7 M41.82 1.91 C46.26 -3.2, 50.69 -8.3, 54.94 -13.19 M41.82 1.91 C45.72 -2.58, 49.61 -7.06, 54.94 -13.19 M0 0 C0 0, 0 0, 0 0 M0 0 C0 0, 0 0, 0 0 M12.04 -0.13 C9.87 -2.02, 7.7 -3.91, 1.47 -9.32 M12.04 -0.13 C8.6 -3.13, 5.15 -6.12, 1.47 -9.32 M24.84 0.39 C18.48 -5.13, 12.13 -10.66, 2.95 -18.64 M24.84 0.39 C17.17 -6.28, 9.49 -12.95, 2.95 -18.64 M30.08 -5.65 C25.02 -10.05, 19.96 -14.45, 6.69 -25.99 M30.08 -5.65 C23.71 -11.19, 17.33 -16.73, 6.69 -25.99 M45.9 -2.5 C31.48 -15.04, 17.06 -27.57, 9.67 -33.99 M45.9 -2.5 C32.79 -13.9, 19.68 -25.29, 9.67 -33.99 M52.66 -7.23 C38.63 -19.42, 24.6 -31.62, 14.92 -40.03 M52.66 -7.23 C40.02 -18.21, 27.38 -29.2, 14.92 -40.03 M51.11 -19.17 C40.28 -28.59, 29.44 -38.01, 20.92 -45.41 M51.11 -19.17 C39.28 -29.45, 27.46 -39.73, 20.92 -45.41" stroke="#ced4da" stroke-width="1" fill="none"></path><path d="M0 0 C0.92 -4.85, 1.58 -21.76, 5.52 -29.07 C9.46 -36.38, 17.61 -43.34, 23.65 -43.87 C29.69 -44.4, 37.51 -39.05, 41.78 -32.24 C46.05 -25.43, 56.23 -8.39, 49.27 -3.02 C42.31 2.36, 8.21 -0.5, 0 0 M0 0 C0.92 -4.85, 1.58 -21.76, 5.52 -29.07 C9.46 -36.38, 17.61 -43.34, 23.65 -43.87 C29.69 -44.4, 37.51 -39.05, 41.78 -32.24 C46.05 -25.43, 56.23 -8.39, 49.27 -3.02 C42.31 2.36, 8.21 -0.5, 0 0" stroke="#000000" stroke-width="2" fill="none"></path></g></g><mask></mask><g stroke-linecap="round" transform="translate(1029.9721098940165 126.87835565241303) rotate(0 12.612971703843186 11.036350240862845)"><path d="M2.98 3.91 C2.98 3.91, 2.98 3.91, 2.98 3.91 M2.98 3.91 C2.98 3.91, 2.98 3.91, 2.98 3.91 M2.45 16.71 C7.1 11.36, 11.75 6.01, 16.23 0.86 M2.45 16.71 C7.1 11.36, 11.74 6.02, 16.23 0.86 M8.49 21.96 C12 17.92, 15.51 13.88, 23.58 4.6 M8.49 21.96 C12.3 17.57, 16.12 13.18, 23.58 4.6 M4.36 19.37 C4.36 19.37, 4.36 19.37, 4.36 19.37 M4.36 19.37 C4.36 19.37, 4.36 19.37, 4.36 19.37 M17.91 20.55 C14.17 17.29, 10.43 14.04, 1.31 6.11 M17.91 20.55 C12.73 16.04, 7.54 11.53, 1.31 6.11 M24.67 15.82 C19.12 11, 13.57 6.17, 7.31 0.73 M24.67 15.82 C18.2 10.2, 11.74 4.58, 7.31 0.73" stroke="#ced4da" stroke-width="1" fill="none"></path><path d="M25.23 11.04 C25.23 11.68, 25.16 12.32, 25.03 12.95 C24.91 13.58, 24.71 14.21, 24.47 14.81 C24.22 15.41, 23.9 16, 23.54 16.55 C23.17 17.11, 22.74 17.64, 22.28 18.13 C21.81 18.62, 21.28 19.08, 20.72 19.49 C20.16 19.9, 19.55 20.27, 18.92 20.59 C18.29 20.91, 17.61 21.19, 16.93 21.41 C16.24 21.63, 15.52 21.79, 14.8 21.91 C14.08 22.02, 13.34 22.07, 12.61 22.07 C11.88 22.07, 11.14 22.02, 10.42 21.91 C9.7 21.79, 8.99 21.63, 8.3 21.41 C7.61 21.19, 6.94 20.91, 6.31 20.59 C5.67 20.27, 5.06 19.9, 4.51 19.49 C3.95 19.08, 3.42 18.62, 2.95 18.13 C2.48 17.64, 2.05 17.11, 1.69 16.55 C1.32 16, 1.01 15.41, 0.76 14.81 C0.51 14.21, 0.32 13.58, 0.19 12.95 C0.06 12.32, 0 11.68, 0 11.04 C0 10.4, 0.06 9.75, 0.19 9.12 C0.32 8.49, 0.51 7.86, 0.76 7.26 C1.01 6.66, 1.32 6.07, 1.69 5.52 C2.05 4.96, 2.48 4.43, 2.95 3.94 C3.42 3.45, 3.95 2.99, 4.51 2.58 C5.06 2.17, 5.67 1.8, 6.31 1.48 C6.94 1.16, 7.61 0.88, 8.3 0.67 C8.99 0.45, 9.7 0.28, 10.42 0.17 C11.14 0.06, 11.88 0, 12.61 0 C13.34 0, 14.08 0.06, 14.8 0.17 C15.52 0.28, 16.24 0.45, 16.93 0.67 C17.61 0.88, 18.29 1.16, 18.92 1.48 C19.55 1.8, 20.16 2.17, 20.72 2.58 C21.28 2.99, 21.81 3.45, 22.28 3.94 C22.74 4.43, 23.17 4.96, 23.54 5.52 C23.9 6.07, 24.22 6.66, 24.47 7.26 C24.71 7.86, 24.91 8.49, 25.03 9.12 C25.16 9.75, 25.19 10.72, 25.23 11.04 C25.26 11.36, 25.26 10.72, 25.23 11.04" stroke="#000000" stroke-width="2" fill="none"></path></g><g stroke-linecap="round"><g transform="translate(532.352381023617 459.19851422567217) rotate(0 132.0414571708473 2.3828083806737936)"><path d="M1.14 0.46 C44.98 1.3, 220.25 4.47, 263.8 5.1 M0.29 -0.34 C43.94 0.11, 219.04 2.24, 263.15 3.18" stroke="#1e1e1e" stroke-width="1" fill="none"></path></g><g transform="translate(532.352381023617 459.19851422567217) rotate(0 132.0414571708473 2.3828083806737936)"><path d="M235.57 13.93 C245.8 7.79, 254.77 3.9, 262.2 3.34 M235.38 13.01 C243.49 10.76, 252.43 7.85, 262.62 3.22" stroke="#1e1e1e" stroke-width="1" fill="none"></path></g><g transform="translate(532.352381023617 459.19851422567217) rotate(0 132.0414571708473 2.3828083806737936)"><path d="M235.9 -6.59 C246.03 -5.22, 254.88 -1.6, 262.2 3.34 M235.71 -7.51 C243.59 -3.68, 252.44 -0.51, 262.62 3.22" stroke="#1e1e1e" stroke-width="1" fill="none"></path></g></g><mask></mask><g transform="translate(611.8266737245267 423.9169608193968) rotate(0 51.169944763183594 12.5)"><text x="0" y="0" font-family="Virgil, Segoe UI Emoji" font-size="20px" fill="#000000" text-anchor="start" style="white-space: pre;" direction="ltr" dominant-baseline="text-before-edge">Kuriiri yms.</text></g><g stroke-linecap="round" transform="translate(652.269490663746 356.6571174850599) rotate(0 9.875171816384778 8.640775339336727)"><path d="M2.19 3.23 C2.19 3.23, 2.19 3.23, 2.19 3.23 M2.19 3.23 C2.19 3.23, 2.19 3.23, 2.19 3.23 M2.98 14.51 C6.7 10.23, 10.43 5.94, 14.13 1.68 M2.98 14.51 C6.56 10.39, 10.14 6.27, 14.13 1.68 M10.33 18.25 C13.44 14.67, 16.56 11.08, 19.51 7.69 M10.33 18.25 C13.38 14.74, 16.43 11.23, 19.51 7.69 M3.77 15.47 C3.77 15.47, 3.77 15.47, 3.77 15.47 M3.77 15.47 C3.77 15.47, 3.77 15.47, 3.77 15.47 M15.81 15.34 C11.39 11.5, 6.97 7.65, 2.23 3.53 M15.81 15.34 C11.09 11.24, 6.37 7.13, 2.23 3.53 M20.31 8.65 C16.69 5.5, 13.07 2.36, 9.74 -0.54 M20.31 8.65 C16.71 5.52, 13.12 2.4, 9.74 -0.54" stroke="#ced4da" stroke-width="1" fill="none"></path><path d="M19.75 8.64 C19.75 9.14, 19.7 9.65, 19.6 10.14 C19.5 10.63, 19.35 11.13, 19.15 11.6 C18.96 12.07, 18.71 12.53, 18.43 12.96 C18.14 13.39, 17.81 13.81, 17.44 14.19 C17.07 14.58, 16.66 14.94, 16.22 15.26 C15.78 15.58, 15.31 15.87, 14.81 16.12 C14.32 16.37, 13.79 16.59, 13.25 16.76 C12.72 16.93, 12.15 17.06, 11.59 17.15 C11.03 17.24, 10.45 17.28, 9.88 17.28 C9.3 17.28, 8.72 17.24, 8.16 17.15 C7.6 17.06, 7.03 16.93, 6.5 16.76 C5.96 16.59, 5.43 16.37, 4.94 16.12 C4.44 15.87, 3.97 15.58, 3.53 15.26 C3.09 14.94, 2.68 14.58, 2.31 14.19 C1.94 13.81, 1.61 13.39, 1.32 12.96 C1.04 12.53, 0.79 12.07, 0.6 11.6 C0.4 11.13, 0.25 10.63, 0.15 10.14 C0.05 9.65, 0 9.14, 0 8.64 C0 8.14, 0.05 7.63, 0.15 7.14 C0.25 6.65, 0.4 6.16, 0.6 5.69 C0.79 5.22, 1.04 4.75, 1.32 4.32 C1.61 3.89, 1.94 3.47, 2.31 3.09 C2.68 2.7, 3.09 2.34, 3.53 2.02 C3.97 1.7, 4.44 1.41, 4.94 1.16 C5.43 0.91, 5.96 0.69, 6.5 0.52 C7.03 0.35, 7.6 0.22, 8.16 0.13 C8.72 0.04, 9.3 0, 9.88 0 C10.45 0, 11.03 0.04, 11.59 0.13 C12.15 0.22, 12.72 0.35, 13.25 0.52 C13.79 0.69, 14.32 0.91, 14.81 1.16 C15.31 1.41, 15.78 1.7, 16.22 2.02 C16.66 2.34, 17.07 2.7, 17.44 3.09 C17.81 3.47, 18.14 3.89, 18.43 4.32 C18.71 4.75, 18.96 5.22, 19.15 5.69 C19.35 6.16, 19.5 6.65, 19.6 7.14 C19.7 7.63, 19.73 8.39, 19.75 8.64 C19.78 8.89, 19.78 8.39, 19.75 8.64" stroke="#000000" stroke-width="2" fill="none"></path></g><g stroke-linecap="round" transform="translate(609.0858165394241 357.240185268694) rotate(0 9.875171816384778 8.640775339336727)"><path d="M2.19 3.23 C2.19 3.23, 2.19 3.23, 2.19 3.23 M2.19 3.23 C2.19 3.23, 2.19 3.23, 2.19 3.23 M2.98 14.51 C5.66 11.43, 8.34 8.35, 14.13 1.68 M2.98 14.51 C5.25 11.9, 7.51 9.29, 14.13 1.68 M10.33 18.25 C13.86 14.19, 17.39 10.12, 19.51 7.69 M10.33 18.25 C13.18 14.97, 16.03 11.69, 19.51 7.69 M3.77 15.47 C3.77 15.47, 3.77 15.47, 3.77 15.47 M3.77 15.47 C3.77 15.47, 3.77 15.47, 3.77 15.47 M15.81 15.34 C11.68 11.74, 7.54 8.15, 2.23 3.53 M15.81 15.34 C11.8 11.85, 7.78 8.36, 2.23 3.53 M20.31 8.65 C17.01 5.78, 13.71 2.91, 9.74 -0.54 M20.31 8.65 C16.31 5.17, 12.31 1.7, 9.74 -0.54" stroke="#ced4da" stroke-width="1" fill="none"></path><path d="M19.75 8.64 C19.75 9.14, 19.7 9.65, 19.6 10.14 C19.5 10.63, 19.35 11.13, 19.15 11.6 C18.96 12.07, 18.71 12.53, 18.43 12.96 C18.14 13.39, 17.81 13.81, 17.44 14.19 C17.07 14.58, 16.66 14.94, 16.22 15.26 C15.78 15.58, 15.31 15.87, 14.81 16.12 C14.32 16.37, 13.79 16.59, 13.25 16.76 C12.72 16.93, 12.15 17.06, 11.59 17.15 C11.03 17.24, 10.45 17.28, 9.88 17.28 C9.3 17.28, 8.72 17.24, 8.16 17.15 C7.6 17.06, 7.03 16.93, 6.5 16.76 C5.96 16.59, 5.43 16.37, 4.94 16.12 C4.44 15.87, 3.97 15.58, 3.53 15.26 C3.09 14.94, 2.68 14.58, 2.31 14.19 C1.94 13.81, 1.61 13.39, 1.32 12.96 C1.04 12.53, 0.79 12.07, 0.6 11.6 C0.4 11.13, 0.25 10.63, 0.15 10.14 C0.05 9.65, 0 9.14, 0 8.64 C0 8.14, 0.05 7.63, 0.15 7.14 C0.25 6.65, 0.4 6.16, 0.6 5.69 C0.79 5.22, 1.04 4.75, 1.32 4.32 C1.61 3.89, 1.94 3.47, 2.31 3.09 C2.68 2.7, 3.09 2.34, 3.53 2.02 C3.97 1.7, 4.44 1.41, 4.94 1.16 C5.43 0.91, 5.96 0.69, 6.5 0.52 C7.03 0.35, 7.6 0.22, 8.16 0.13 C8.72 0.04, 9.3 0, 9.88 0 C10.45 0, 11.03 0.04, 11.59 0.13 C12.15 0.22, 12.72 0.35, 13.25 0.52 C13.79 0.69, 14.32 0.91, 14.81 1.16 C15.31 1.41, 15.78 1.7, 16.22 2.02 C16.66 2.34, 17.07 2.7, 17.44 3.09 C17.81 3.47, 18.14 3.89, 18.43 4.32 C18.71 4.75, 18.96 5.22, 19.15 5.69 C19.35 6.16, 19.5 6.65, 19.6 7.14 C19.7 7.63, 19.73 8.39, 19.75 8.64 C19.78 8.89, 19.78 8.39, 19.75 8.64" stroke="#000000" stroke-width="2" fill="none"></path></g><g stroke-linecap="round"><g transform="translate(619.5376365466884 416.1712210063436) rotate(0 21.90843989373377 -18.49404842519118)" fill-rule="evenodd"><path d="M11.93 -33.36 C11.93 -33.36, 11.93 -33.36, 11.93 -33.36 M11.93 -33.36 C11.93 -33.36, 11.93 -33.36, 11.93 -33.36 M6.81 -15.28 C11.98 -21.23, 17.15 -27.17, 25.18 -36.41 M6.81 -15.28 C11.32 -20.47, 15.82 -25.65, 25.18 -36.41 M2.35 2.04 C9.48 -6.16, 16.61 -14.35, 31.87 -31.92 M2.35 2.04 C13.39 -10.65, 24.43 -23.35, 31.87 -31.92 M12.98 2.01 C20.43 -6.57, 27.89 -15.14, 37.25 -25.92 M12.98 2.01 C21.21 -7.46, 29.44 -16.93, 37.25 -25.92 M23.61 1.97 C29.16 -4.41, 34.71 -10.8, 41.32 -18.4 M23.61 1.97 C28.64 -3.81, 33.67 -9.6, 41.32 -18.4 M34.9 1.19 C38.58 -3.05, 42.26 -7.28, 46.05 -11.64 M34.9 1.19 C38.08 -2.47, 41.26 -6.13, 46.05 -11.64 M0 0 C0 0, 0 0, 0 0 M0 0 C0 0, 0 0, 0 0 M12.04 -0.13 C9.69 -2.18, 7.33 -4.23, 1.47 -9.32 M12.04 -0.13 C9.3 -2.52, 6.55 -4.9, 1.47 -9.32 M24.08 -0.27 C18.28 -5.31, 12.47 -10.36, 2.95 -18.64 M24.08 -0.27 C15.76 -7.5, 7.43 -14.74, 2.95 -18.64 M34.61 -1.71 C28.48 -7.04, 22.34 -12.38, 5.93 -26.64 M34.61 -1.71 C23.65 -11.24, 12.68 -20.77, 5.93 -26.64 M43.64 -4.47 C33.2 -13.54, 22.77 -22.6, 11.18 -32.68 M43.64 -4.47 C32.8 -13.89, 21.97 -23.3, 11.18 -32.68 M42.85 -15.76 C35.45 -22.18, 28.06 -28.61, 17.19 -38.06 M42.85 -15.76 C34.72 -22.82, 26.59 -29.89, 17.19 -38.06" stroke="#ced4da" stroke-width="1" fill="none"></path><path d="M0 0 C0.78 -4.11, 1.34 -18.46, 4.68 -24.67 C8.03 -30.87, 14.94 -36.78, 20.07 -37.23 C25.2 -37.68, 31.83 -33.14, 35.45 -27.36 C39.07 -21.58, 47.71 -7.12, 41.81 -2.56 C35.9 2, 6.97 -0.43, 0 0 M0 0 C0.78 -4.11, 1.34 -18.46, 4.68 -24.67 C8.03 -30.87, 14.94 -36.78, 20.07 -37.23 C25.2 -37.68, 31.83 -33.14, 35.45 -27.36 C39.07 -21.58, 47.71 -7.12, 41.81 -2.56 C35.9 2, 6.97 -0.43, 0 0" stroke="#000000" stroke-width="2" fill="none"></path></g></g><mask></mask><g stroke-linecap="round" transform="translate(630.0237586974984 359.5967096865066) rotate(0 10.702336545928858 9.364544477687815)"><path d="M2.43 3.43 C2.43 3.43, 2.43 3.43, 2.43 3.43 M2.43 3.43 C2.43 3.43, 2.43 3.43, 2.43 3.43 M2.56 15.48 C7.26 10.07, 11.96 4.66, 15.02 1.14 M2.56 15.48 C5.58 12, 8.6 8.52, 15.02 1.14 M9.91 19.21 C13.57 15, 17.23 10.79, 21.06 6.38 M9.91 19.21 C12.97 15.69, 16.03 12.17, 21.06 6.38 M4.02 16.71 C4.02 16.71, 4.02 16.71, 4.02 16.71 M4.02 16.71 C4.02 16.71, 4.02 16.71, 4.02 16.71 M16.82 17.23 C11.72 12.8, 6.62 8.37, 1.72 4.11 M16.82 17.23 C11.29 12.42, 5.75 7.61, 1.72 4.11 M21.31 10.54 C16.53 6.38, 11.75 2.23, 9.24 0.04 M21.31 10.54 C17.82 7.51, 14.33 4.47, 9.24 0.04" stroke="#ced4da" stroke-width="1" fill="none"></path><path d="M21.4 9.36 C21.4 9.91, 21.35 10.46, 21.24 10.99 C21.13 11.52, 20.97 12.06, 20.76 12.57 C20.55 13.08, 20.28 13.58, 19.97 14.05 C19.66 14.52, 19.3 14.97, 18.9 15.38 C18.5 15.8, 18.06 16.19, 17.58 16.54 C17.11 16.89, 16.59 17.2, 16.05 17.47 C15.52 17.75, 14.94 17.98, 14.36 18.16 C13.78 18.35, 13.17 18.49, 12.56 18.59 C11.95 18.68, 11.32 18.73, 10.7 18.73 C10.08 18.73, 9.45 18.68, 8.84 18.59 C8.23 18.49, 7.62 18.35, 7.04 18.16 C6.46 17.98, 5.89 17.75, 5.35 17.47 C4.81 17.2, 4.3 16.89, 3.82 16.54 C3.35 16.19, 2.9 15.8, 2.5 15.38 C2.11 14.97, 1.74 14.52, 1.43 14.05 C1.12 13.58, 0.86 13.08, 0.65 12.57 C0.43 12.06, 0.27 11.52, 0.16 10.99 C0.06 10.46, 0 9.91, 0 9.36 C0 8.82, 0.06 8.27, 0.16 7.74 C0.27 7.2, 0.43 6.67, 0.65 6.16 C0.86 5.65, 1.12 5.15, 1.43 4.68 C1.74 4.21, 2.11 3.76, 2.5 3.35 C2.9 2.93, 3.35 2.54, 3.82 2.19 C4.3 1.84, 4.81 1.53, 5.35 1.25 C5.89 0.98, 6.46 0.75, 7.04 0.56 C7.62 0.38, 8.23 0.24, 8.84 0.14 C9.45 0.05, 10.08 0, 10.7 0 C11.32 0, 11.95 0.05, 12.56 0.14 C13.17 0.24, 13.78 0.38, 14.36 0.56 C14.94 0.75, 15.52 0.98, 16.05 1.25 C16.59 1.53, 17.11 1.84, 17.58 2.19 C18.06 2.54, 18.5 2.93, 18.9 3.35 C19.3 3.76, 19.66 4.21, 19.97 4.68 C20.28 5.15, 20.55 5.65, 20.76 6.16 C20.97 6.67, 21.13 7.2, 21.24 7.74 C21.35 8.27, 21.38 9.09, 21.4 9.36 C21.43 9.64, 21.43 9.09, 21.4 9.36" stroke="#000000" stroke-width="2" fill="none"></path></g><g stroke-linecap="round"><g transform="translate(648.6889720011393 382.50215632129067) rotate(0 16.71865860152218 9.921154001040179)" fill-rule="evenodd"><path d="M0 0 C0 0, 0 0, 0 0 M0 0 C0 0, 0 0, 0 0 M6.04 5.25 C9.33 1.47, 12.61 -2.31, 17.85 -8.34 M6.04 5.25 C8.45 2.48, 10.86 -0.3, 17.85 -8.34 M12.08 10.5 C15.24 6.86, 18.4 3.23, 25.2 -4.6 M12.08 10.5 C16.5 5.4, 20.93 0.31, 25.2 -4.6 M15.49 18.76 C20.4 13.12, 25.31 7.47, 31.23 0.65 M15.49 18.76 C20.13 13.42, 24.78 8.08, 31.23 0.65 M16.93 29.3 C21.78 23.73, 26.62 18.15, 33.34 10.43 M16.93 29.3 C22.69 22.67, 28.45 16.05, 33.34 10.43 M29.53 27 C30.74 25.61, 31.94 24.23, 34.78 20.96 M29.53 27 C31.18 25.1, 32.83 23.21, 34.78 20.96 M14.43 27.6 C14.43 27.6, 14.43 27.6, 14.43 27.6 M14.43 27.6 C14.43 27.6, 14.43 27.6, 14.43 27.6 M25.72 26.82 C23.42 24.82, 21.12 22.82, 16.66 18.94 M25.72 26.82 C23.12 24.56, 20.52 22.3, 16.66 18.94 M33.98 23.4 C26.04 16.5, 18.1 9.59, 3.04 -3.5 M33.98 23.4 C24.05 14.77, 14.13 6.14, 3.04 -3.5 M36.97 15.4 C27.12 6.83, 17.26 -1.73, 9.8 -8.22 M36.97 15.4 C26.54 6.33, 16.1 -2.74, 9.8 -8.22" stroke="#ced4da" stroke-width="1" fill="none"></path><path d="M0 0 C0.86 -0.93, 3.58 -4.18, 5.17 -5.57 C6.77 -6.97, 7.56 -7.83, 9.55 -8.36 C11.54 -8.89, 14.99 -8.89, 17.12 -8.76 C19.24 -8.62, 20.83 -8.43, 22.29 -7.56 C23.75 -6.7, 24.88 -5.11, 25.87 -3.58 C26.87 -2.06, 27.47 -0.33, 28.26 1.59 C29.06 3.52, 29.92 5.84, 30.65 7.96 C31.38 10.08, 32.18 12.41, 32.64 14.33 C33.11 16.25, 33.44 17.78, 33.44 19.51 C33.44 21.23, 33.3 23.42, 32.64 24.68 C31.98 25.94, 30.72 26.47, 29.46 27.07 C28.2 27.67, 26.87 28, 25.08 28.26 C23.29 28.53, 20.43 28.73, 18.71 28.66 C16.98 28.59, 15.46 28.93, 14.73 27.86 C14 26.8, 14.66 23.82, 14.33 22.29 C14 20.77, 13.47 20.23, 12.74 18.71 C12.01 17.18, 11.08 15.33, 9.95 13.14 C8.82 10.95, 7.63 7.76, 5.97 5.57 C4.31 3.38, 1 0.93, 0 0 M0 0 C0.86 -0.93, 3.58 -4.18, 5.17 -5.57 C6.77 -6.97, 7.56 -7.83, 9.55 -8.36 C11.54 -8.89, 14.99 -8.89, 17.12 -8.76 C19.24 -8.62, 20.83 -8.43, 22.29 -7.56 C23.75 -6.7, 24.88 -5.11, 25.87 -3.58 C26.87 -2.06, 27.47 -0.33, 28.26 1.59 C29.06 3.52, 29.92 5.84, 30.65 7.96 C31.38 10.08, 32.18 12.41, 32.64 14.33 C33.11 16.25, 33.44 17.78, 33.44 19.51 C33.44 21.23, 33.3 23.42, 32.64 24.68 C31.98 25.94, 30.72 26.47, 29.46 27.07 C28.2 27.67, 26.87 28, 25.08 28.26 C23.29 28.53, 20.43 28.73, 18.71 28.66 C16.98 28.59, 15.46 28.93, 14.73 27.86 C14 26.8, 14.66 23.82, 14.33 22.29 C14 20.77, 13.47 20.23, 12.74 18.71 C12.01 17.18, 11.08 15.33, 9.95 13.14 C8.82 10.95, 7.63 7.76, 5.97 5.57 C4.31 3.38, 1 0.93, 0 0" stroke="#000000" stroke-width="2" fill="none"></path></g></g><mask></mask><g stroke-linecap="round"><g transform="translate(630.7701855478053 382.49028041788625) rotate(0 -16.121563651467824 12.19394740044197)" fill-rule="evenodd"><path d="M-24.42 -2.68 C-24.42 -2.68, -24.42 -2.68, -24.42 -2.68 M-24.42 -2.68 C-24.42 -2.68, -24.42 -2.68, -24.42 -2.68 M-26.26 11.62 C-21.47 6.11, -16.67 0.59, -12.48 -4.23 M-26.26 11.62 C-22.58 7.38, -18.89 3.15, -12.48 -4.23 M-29.41 27.44 C-20.32 16.98, -11.23 6.53, -2.51 -3.51 M-29.41 27.44 C-19.55 16.09, -9.69 4.75, -2.51 -3.51 M-22.71 31.93 C-17 25.36, -11.28 18.78, -8.28 15.33 M-22.71 31.93 C-18.54 27.13, -14.37 22.33, -8.28 15.33 M-12.74 32.65 C-11.99 31.79, -11.24 30.93, -10.77 30.39 M-12.74 32.65 C-12.03 31.83, -11.32 31.02, -10.77 30.39 M-31.63 25.72 C-31.63 25.72, -31.63 25.72, -31.63 25.72 M-31.63 25.72 C-31.63 25.72, -31.63 25.72, -31.63 25.72 M-13.55 30.83 C-18.86 26.22, -24.17 21.6, -29.4 17.05 M-13.55 30.83 C-18.75 26.31, -23.96 21.79, -29.4 17.05 M-6.79 26.11 C-12.75 20.92, -18.72 15.74, -27.92 7.74 M-6.79 26.11 C-12.24 21.37, -17.69 16.63, -27.92 7.74 M-8.34 14.16 C-12.25 10.76, -16.16 7.36, -24.94 -0.27 M-8.34 14.16 C-13.01 10.1, -17.68 6.04, -24.94 -0.27 M-4.6 6.81 C-9.19 2.82, -13.79 -1.18, -20.45 -6.96 M-4.6 6.81 C-9.86 2.24, -15.12 -2.34, -20.45 -6.96 M-0.1 0.12 C-3.62 -2.94, -7.14 -5.99, -12.93 -11.03 M-0.1 0.12 C-4.95 -4.09, -9.8 -8.31, -12.93 -11.03" stroke="#ced4da" stroke-width="1" fill="none"></path><path d="M0 0 C-0.66 -0.73, -2.59 -3.18, -3.98 -4.38 C-5.37 -5.57, -6.37 -6.63, -8.36 -7.17 C-10.35 -7.7, -13.8 -7.7, -15.92 -7.56 C-18.05 -7.43, -19.64 -7.23, -21.1 -6.37 C-22.56 -5.51, -23.68 -3.91, -24.68 -2.39 C-25.68 -0.86, -26.27 0.86, -27.07 2.79 C-27.86 4.71, -28.73 7.03, -29.46 9.16 C-30.19 11.28, -30.98 13.6, -31.45 15.52 C-31.91 17.45, -32.24 18.97, -32.24 20.7 C-32.24 22.42, -32.11 24.61, -31.45 25.87 C-30.78 27.13, -29.46 27.53, -28.26 28.26 C-27.07 28.99, -26.01 29.72, -24.28 30.25 C-22.56 30.78, -20.1 31.25, -17.91 31.45 C-15.72 31.65, -12.41 32.64, -11.15 31.45 C-9.89 30.25, -10.62 26.07, -10.35 24.28 C-10.08 22.49, -9.89 22.29, -9.55 20.7 C-9.22 19.11, -9.16 17.05, -8.36 14.73 C-7.56 12.41, -6.17 9.22, -4.78 6.77 C-3.38 4.31, -0.8 1.13, 0 0 M0 0 C-0.66 -0.73, -2.59 -3.18, -3.98 -4.38 C-5.37 -5.57, -6.37 -6.63, -8.36 -7.17 C-10.35 -7.7, -13.8 -7.7, -15.92 -7.56 C-18.05 -7.43, -19.64 -7.23, -21.1 -6.37 C-22.56 -5.51, -23.68 -3.91, -24.68 -2.39 C-25.68 -0.86, -26.27 0.86, -27.07 2.79 C-27.86 4.71, -28.73 7.03, -29.46 9.16 C-30.19 11.28, -30.98 13.6, -31.45 15.52 C-31.91 17.45, -32.24 18.97, -32.24 20.7 C-32.24 22.42, -32.11 24.61, -31.45 25.87 C-30.78 27.13, -29.46 27.53, -28.26 28.26 C-27.07 28.99, -26.01 29.72, -24.28 30.25 C-22.56 30.78, -20.1 31.25, -17.91 31.45 C-15.72 31.65, -12.41 32.64, -11.15 31.45 C-9.89 30.25, -10.62 26.07, -10.35 24.28 C-10.08 22.49, -9.89 22.29, -9.55 20.7 C-9.22 19.11, -9.16 17.05, -8.36 14.73 C-7.56 12.41, -6.17 9.22, -4.78 6.77 C-3.38 4.31, -0.8 1.13, 0 0" stroke="#000000" stroke-width="2" fill="none"></path></g></g><mask></mask><g transform="translate(16.243501319479037 216.53499977181104) rotate(0 26.09996795654297 12.5)"><text x="0" y="0" font-family="Virgil, Segoe UI Emoji" font-size="20px" fill="#000000" text-anchor="start" style="white-space: pre;" direction="ltr" dominant-baseline="text-before-edge">Viesti</text></g><g stroke-linecap="round" transform="translate(10 164.97087229945234) rotate(0 31.243501319478924 20.73166909984114)"><path d="M0 0 C0 0, 0 0, 0 0 M0 0 C0 0, 0 0, 0 0 M0.13 12.04 C4.24 7.32, 8.35 2.59, 10.63 -0.03 M0.13 12.04 C2.52 9.29, 4.91 6.54, 10.63 -0.03 M0.27 24.08 C4.71 18.97, 9.16 13.85, 21.26 -0.07 M0.27 24.08 C7.98 15.2, 15.7 6.32, 21.26 -0.07 M-0.26 36.88 C11.11 23.8, 22.47 10.73, 31.89 -0.1 M-0.26 36.88 C6.78 28.78, 13.83 20.68, 31.89 -0.1 M3.81 44.39 C15.51 30.93, 27.21 17.48, 42.52 -0.14 M3.81 44.39 C15.87 30.52, 27.92 16.66, 42.52 -0.14 M14.44 44.36 C26.19 30.84, 37.93 17.33, 53.15 -0.17 M14.44 44.36 C29.28 27.28, 44.12 10.21, 53.15 -0.17 M25.07 44.32 C37.44 30.09, 49.81 15.86, 63.12 0.55 M25.07 44.32 C33.45 34.69, 41.82 25.05, 63.12 0.55 M35.7 44.29 C41.76 37.32, 47.81 30.36, 63.26 12.59 M35.7 44.29 C43.71 35.08, 51.71 25.87, 63.26 12.59 M46.33 44.25 C51.23 38.62, 56.13 32.98, 63.39 24.63 M46.33 44.25 C52.91 36.69, 59.48 29.13, 63.39 24.63 M56.31 44.97 C57.86 43.18, 59.42 41.39, 62.87 37.43 M56.31 44.97 C57.97 43.06, 59.64 41.14, 62.87 37.43 M-0.15 41.33 C-0.15 41.33, -0.15 41.33, -0.15 41.33 M-0.15 41.33 C-0.15 41.33, -0.15 41.33, -0.15 41.33 M11.89 41.2 C8.91 38.61, 5.93 36.02, -0.19 30.7 M11.89 41.2 C7.89 37.72, 3.89 34.25, -0.19 30.7 M24.68 41.72 C18.78 36.59, 12.87 31.45, -0.22 20.07 M24.68 41.72 C15.44 33.69, 6.21 25.66, -0.22 20.07 M36.72 41.59 C25.78 32.07, 14.83 22.55, -0.26 9.44 M36.72 41.59 C24.79 31.21, 12.85 20.83, -0.26 9.44 M48.77 41.45 C38.15 32.23, 27.54 23, 0.46 -0.53 M48.77 41.45 C34.59 29.13, 20.4 16.8, 0.46 -0.53 M60.81 41.32 C42.03 25, 23.26 8.68, 12.5 -0.67 M60.81 41.32 C42.73 25.61, 24.66 9.9, 12.5 -0.67 M66.81 35.94 C52.82 23.78, 38.83 11.62, 24.55 -0.8 M66.81 35.94 C55.1 25.76, 43.39 15.58, 24.55 -0.8 M66.77 25.31 C58.4 18.03, 50.03 10.76, 37.34 -0.28 M66.77 25.31 C55.78 15.75, 44.78 6.19, 37.34 -0.28 M66.74 14.68 C60.51 9.26, 54.28 3.85, 49.38 -0.41 M66.74 14.68 C60.98 9.67, 55.22 4.66, 49.38 -0.41 M66.71 4.05 C65.12 2.67, 63.54 1.3, 61.42 -0.54 M66.71 4.05 C64.84 2.43, 62.97 0.8, 61.42 -0.54" stroke="#ced4da" stroke-width="1" fill="none"></path><path d="M0 0 C13.24 0, 26.48 0, 62.49 0 M0 0 C22.79 0, 45.58 0, 62.49 0 M62.49 0 C62.49 12.3, 62.49 24.61, 62.49 41.46 M62.49 0 C62.49 8.41, 62.49 16.83, 62.49 41.46 M62.49 41.46 C38.57 41.46, 14.65 41.46, 0 41.46 M62.49 41.46 C42.08 41.46, 21.67 41.46, 0 41.46 M0 41.46 C0 25.11, 0 8.76, 0 0 M0 41.46 C0 25.58, 0 9.7, 0 0" stroke="#000000" stroke-width="2" fill="none"></path></g><g stroke-linecap="round"><g transform="translate(10.90293632482826 168.81341625208572) rotate(0 15.366143511948152 11.96293434694698)"><path d="M0 0 C6.24 4.85, 12.47 9.71, 30.73 23.93 M0 0 C7.84 6.1, 15.68 12.21, 30.73 23.93" stroke="#000000" stroke-width="2" fill="none"></path></g></g><mask></mask><g stroke-linecap="round"><g transform="translate(42.77058854095685 193.8825456851207) rotate(0 14.651538881000043 -14.616124377920102)"><path d="M0 0 C11.69 -11.66, 23.38 -23.32, 29.3 -29.23 M0 0 C9.89 -9.87, 19.78 -19.73, 29.3 -29.23" stroke="#000000" stroke-width="2" fill="none"></path></g></g><mask></mask><g stroke-linecap="round"><g transform="translate(79.4253124051312 243.24052210722755) rotate(0 78.13836743411446 91.51972021591506)"><path d="M-0.76 -0.17 C25.03 30.7, 128.8 153.66, 154.8 184.34 M1.05 -1.3 C27.2 29.29, 131.51 151.49, 157.03 182.61" stroke="#f08c00" stroke-width="1" fill="none"></path></g><g transform="translate(79.4253124051312 243.24052210722755) rotate(0 78.13836743411446 91.51972021591506)"><path d="M130.77 166.1 C140.16 171.59, 147.42 177.78, 158 183.58 M130.83 168.39 C135.85 171.33, 142.12 174.01, 157.36 183.24" stroke="#f08c00" stroke-width="1" fill="none"></path></g><g transform="translate(79.4253124051312 243.24052210722755) rotate(0 78.13836743411446 91.51972021591506)"><path d="M146.49 152.91 C150.96 162.34, 153.39 172.59, 158 183.58 M146.54 155.19 C148.24 160.88, 151.13 166.41, 157.36 183.24" stroke="#f08c00" stroke-width="1" fill="none"></path></g></g><mask></mask><g transform="translate(1252.7233048298974 213.05195807178166) rotate(0 26.09996795654297 12.5)"><text x="0" y="0" font-family="Virgil, Segoe UI Emoji" font-size="20px" fill="#000000" text-anchor="start" style="white-space: pre;" direction="ltr" dominant-baseline="text-before-edge">Viesti</text></g><g stroke-linecap="round" transform="translate(1246.4798035104184 161.48783059942298) rotate(0 31.243501319478924 20.73166909984114)"><path d="M0 0 C0 0, 0 0, 0 0 M0 0 C0 0, 0 0, 0 0 M0.13 12.04 C4.09 7.49, 8.04 2.94, 10.63 -0.03 M0.13 12.04 C4.26 7.3, 8.38 2.55, 10.63 -0.03 M0.27 24.08 C6.61 16.78, 12.96 9.48, 21.26 -0.07 M0.27 24.08 C6.71 16.67, 13.15 9.26, 21.26 -0.07 M-0.26 36.88 C6.32 29.31, 12.9 21.74, 31.89 -0.1 M-0.26 36.88 C9.46 25.71, 19.17 14.53, 31.89 -0.1 M3.81 44.39 C11.77 35.24, 19.72 26.09, 42.52 -0.14 M3.81 44.39 C16.93 29.3, 30.04 14.22, 42.52 -0.14 M14.44 44.36 C26.93 29.99, 39.42 15.62, 53.15 -0.17 M14.44 44.36 C22.64 34.93, 30.83 25.5, 53.15 -0.17 M25.07 44.32 C36.79 30.84, 48.51 17.36, 63.12 0.55 M25.07 44.32 C36.98 30.63, 48.88 16.93, 63.12 0.55 M35.7 44.29 C43.55 35.26, 51.4 26.23, 63.26 12.59 M35.7 44.29 C46.56 31.79, 57.42 19.3, 63.26 12.59 M46.33 44.25 C52.91 36.68, 59.49 29.11, 63.39 24.63 M46.33 44.25 C51.96 37.78, 57.58 31.32, 63.39 24.63 M56.31 44.97 C58.86 42.03, 61.42 39.1, 62.87 37.43 M56.31 44.97 C58.13 42.87, 59.96 40.78, 62.87 37.43 M-0.15 41.33 C-0.15 41.33, -0.15 41.33, -0.15 41.33 M-0.15 41.33 C-0.15 41.33, -0.15 41.33, -0.15 41.33 M11.89 41.2 C8.54 38.28, 5.18 35.37, -0.19 30.7 M11.89 41.2 C8.89 38.59, 5.89 35.98, -0.19 30.7 M24.68 41.72 C17.46 35.44, 10.24 29.16, -0.22 20.07 M24.68 41.72 C17.86 35.79, 11.03 29.85, -0.22 20.07 M36.72 41.59 C24.32 30.81, 11.92 20.02, -0.26 9.44 M36.72 41.59 C27.63 33.68, 18.53 25.77, -0.26 9.44 M48.77 41.45 C30.05 25.18, 11.33 8.91, 0.46 -0.53 M48.77 41.45 C30.21 25.33, 11.66 9.2, 0.46 -0.53 M60.81 41.32 C46.72 29.08, 32.63 16.83, 12.5 -0.67 M60.81 41.32 C43.01 25.85, 25.21 10.38, 12.5 -0.67 M66.81 35.94 C58.27 28.52, 49.73 21.09, 24.55 -0.8 M66.81 35.94 C54.08 24.87, 41.35 13.8, 24.55 -0.8 M66.77 25.31 C60.32 19.7, 53.86 14.08, 37.34 -0.28 M66.77 25.31 C58.85 18.42, 50.92 11.52, 37.34 -0.28 M66.74 14.68 C62.77 11.23, 58.81 7.78, 49.38 -0.41 M66.74 14.68 C61.41 10.04, 56.08 5.41, 49.38 -0.41 M66.71 4.05 C64.93 2.51, 63.16 0.97, 61.42 -0.54 M66.71 4.05 C64.81 2.4, 62.92 0.76, 61.42 -0.54" stroke="#ced4da" stroke-width="1" fill="none"></path><path d="M0 0 C23.94 0, 47.88 0, 62.49 0 M0 0 C12.67 0, 25.34 0, 62.49 0 M62.49 0 C62.49 12.15, 62.49 24.31, 62.49 41.46 M62.49 0 C62.49 11.11, 62.49 22.23, 62.49 41.46 M62.49 41.46 C43.26 41.46, 24.03 41.46, 0 41.46 M62.49 41.46 C46.95 41.46, 31.41 41.46, 0 41.46 M0 41.46 C0 31.99, 0 22.52, 0 0 M0 41.46 C0 26.19, 0 10.92, 0 0" stroke="#000000" stroke-width="2" fill="none"></path></g><g stroke-linecap="round"><g transform="translate(1247.3827398352466 165.33037455205636) rotate(0 15.366143511948167 11.96293434694698)"><path d="M0 0 C9.61 7.48, 19.23 14.97, 30.73 23.93 M0 0 C10.79 8.4, 21.59 16.81, 30.73 23.93" stroke="#000000" stroke-width="2" fill="none"></path></g></g><mask></mask><g stroke-linecap="round"><g transform="translate(1279.2503920513752 190.39950398509131) rotate(0 14.651538881000079 -14.616124377920102)"><path d="M0 0 C8.16 -8.14, 16.32 -16.29, 29.3 -29.23 M0 0 C8.81 -8.79, 17.62 -17.58, 29.3 -29.23" stroke="#000000" stroke-width="2" fill="none"></path></g></g><mask></mask><g stroke-linecap="round"><g transform="translate(1102.658752864839 520.8630271843341) rotate(0 68.39593711461652 -144.34876620996053)"><path d="M0.96 0.03 C23.66 -48.28, 114.39 -240.73, 136.79 -288.72 M0.01 -1.01 C22.6 -48.65, 114.06 -239.98, 136.47 -287.57" stroke="#e03131" stroke-width="1" fill="none"></path></g><g transform="translate(1102.658752864839 520.8630271843341) rotate(0 68.39593711461652 -144.34876620996053)"><path d="M133.68 -255.71 C133.14 -268.64, 135.49 -277.43, 137.04 -285.8 M133.04 -257.49 C134.31 -266.89, 134.27 -277.61, 136.7 -288.33" stroke="#e03131" stroke-width="1" fill="none"></path></g><g transform="translate(1102.658752864839 520.8630271843341) rotate(0 68.39593711461652 -144.34876620996053)"><path d="M115.15 -264.51 C121.18 -274.5, 130.04 -280.21, 137.04 -285.8 M114.5 -266.29 C121.99 -272.65, 128.08 -280.46, 136.7 -288.33" stroke="#e03131" stroke-width="1" fill="none"></path></g></g><mask></mask><g stroke-linecap="round" transform="translate(105.12941648578072 199.94003945042073) rotate(0 183.5 30)"><path d="M15 0 M15 0 C96.29 1.71, 178.3 2.56, 352 0 M352 0 C362.6 0.23, 366.47 3.24, 367 15 M367 15 C366.93 26.26, 365.53 35.71, 367 45 M367 45 C367.86 54.19, 361.56 58.27, 352 60 M352 60 C245.1 58.13, 140.5 57.98, 15 60 M15 60 C4.97 59.46, 0.06 54.33, 0 45 M0 45 C0.65 35.06, 1.69 28.58, 0 15 M0 15 C0.75 3.63, 6.22 -1.31, 15 0" stroke="#f08c00" stroke-width="1.5" fill="none" stroke-dasharray="1.5 7"></path></g><g transform="translate(145.82952024554635 204.94003945042073) rotate(0 142.79989624023438 25)"><text x="142.79989624023438" y="0" font-family="Virgil, Segoe UI Emoji" font-size="20px" fill="#f08c00" text-anchor="middle" style="white-space: pre;" direction="ltr" dominant-baseline="text-before-edge">V:n julkinen avain on: 1234</text><text x="142.79989624023438" y="25" font-family="Virgil, Segoe UI Emoji" font-size="20px" fill="#f08c00" text-anchor="middle" style="white-space: pre;" direction="ltr" dominant-baseline="text-before-edge">V:n yksityinen avain on: ??????</text></g><g stroke-linecap="round" transform="translate(526.5495837027454 286.59748934114054) rotate(0 158 30)"><path d="M15 0 M15 0 C72.71 -3.02, 130.23 -0.62, 301 0 M301 0 C311.36 2, 314.23 6.57, 316 15 M316 15 C314.97 24.36, 315.23 33.46, 316 45 M316 45 C316.24 54.01, 310.91 58.44, 301 60 M301 60 C200.34 62.84, 102.11 61.72, 15 60 M15 60 C3.56 58.71, -0.64 54.54, 0 45 M0 45 C1.96 35.59, 0.85 22.89, 0 15 M0 15 C1.05 3.47, 5.03 -1.08, 15 0" stroke="#f08c00" stroke-width="1.5" fill="none" stroke-dasharray="1.5 7"></path></g><g transform="translate(541.749687462511 291.59748934114054) rotate(0 142.79989624023438 25)"><text x="142.79989624023438" y="0" font-family="Virgil, Segoe UI Emoji" font-size="20px" fill="#f08c00" text-anchor="middle" style="white-space: pre;" direction="ltr" dominant-baseline="text-before-edge">V:n julkinen avain on: 1234</text><text x="142.79989624023438" y="25" font-family="Virgil, Segoe UI Emoji" font-size="20px" fill="#f08c00" text-anchor="middle" style="white-space: pre;" direction="ltr" dominant-baseline="text-before-edge">V:n yksityinen avain on: ??????</text></g><g stroke-linecap="round" transform="translate(911.8980236295299 240.24509315085885) rotate(0 138 30)"><path d="M15 0 M15 0 C100.33 1.77, 185.2 2.6, 261 0 M261 0 C269.04 -1.39, 277.27 4.02, 276 15 M276 15 C275.02 22.02, 276.7 33.01, 276 45 M276 45 C274.97 53.18, 272.82 59.59, 261 60 M261 60 C165.44 57.59, 70.16 57.35, 15 60 M15 60 C4.52 61.36, -1.1 54.63, 0 45 M0 45 C-0.42 36.41, -1.64 27.12, 0 15 M0 15 C-0.9 5.8, 5.98 0.67, 15 0" stroke="#e03131" stroke-width="1.5" fill="none" stroke-dasharray="1.5 7"></path></g><g transform="translate(933.3680935147838 245.24509315085885) rotate(0 116.5299301147461 25)"><text x="116.5299301147461" y="0" font-family="Virgil, Segoe UI Emoji" font-size="20px" fill="#e03131" text-anchor="middle" style="white-space: pre;" direction="ltr" dominant-baseline="text-before-edge">Julkinen avain: 1234</text><text x="116.5299301147461" y="25" font-family="Virgil, Segoe UI Emoji" font-size="20px" fill="#e03131" text-anchor="middle" style="white-space: pre;" direction="ltr" dominant-baseline="text-before-edge">Salainen avain: 444333</text></g><g transform="translate(254.9972420004455 366.30824577085) rotate(0 69.0799331665039 12.5)"><text x="0" y="0" font-family="Virgil, Segoe UI Emoji" font-size="20px" fill="#1e1e1e" text-anchor="start" style="white-space: pre;" direction="ltr" dominant-baseline="text-before-edge">amazing-o-lock</text></g><g stroke-linecap="round" transform="translate(255.11560123842582 402.0318480488658) rotate(0 17.504997790482122 25.741185176504473)"><path d="M8.75 0 M8.75 0 C14.27 -1.68, 21.22 -1.82, 26.26 0 M8.75 0 C12.02 -0.77, 16.88 0.01, 26.26 0 M26.26 0 C31.95 -0.64, 34.58 1.86, 35.01 8.75 M26.26 0 C30.18 0.13, 33.75 3.51, 35.01 8.75 M35.01 8.75 C36.65 21.43, 34.02 35.73, 35.01 42.73 M35.01 8.75 C35.44 19.54, 35.94 30.05, 35.01 42.73 M35.01 42.73 C35.23 48.86, 32.69 50.08, 26.26 51.48 M35.01 42.73 C35.81 47.56, 30.76 49.81, 26.26 51.48 M26.26 51.48 C21.98 52.4, 15.04 51.21, 8.75 51.48 M26.26 51.48 C19.6 51.42, 13.26 52.12, 8.75 51.48 M8.75 51.48 C4.59 53.15, -0.25 48.82, 0 42.73 M8.75 51.48 C1.83 53.46, 2.06 50.29, 0 42.73 M0 42.73 C-1.58 29.64, 0.2 19.2, 0 8.75 M0 42.73 C0.3 31.29, -1.08 17.37, 0 8.75 M0 8.75 C0.39 2.91, 3.38 -1.21, 8.75 0 M0 8.75 C-1.25 1.04, 0.65 0.79, 8.75 0" stroke="#1e1e1e" stroke-width="1" fill="none"></path></g><g transform="translate(267.4606029961931 415.27303322537017) rotate(0 5.159996032714844 12.5)"><text x="5.159996032714844" y="0" font-family="Virgil, Segoe UI Emoji" font-size="20px" fill="#1e1e1e" text-anchor="middle" style="white-space: pre;" direction="ltr" dominant-baseline="text-before-edge">*</text></g><g stroke-linecap="round" transform="translate(296.10738728503 401.13099561439907) rotate(0 19.156230829026583 26.93844960331859)"><path d="M9.58 0 M9.58 0 C12.87 -1.31, 18.33 -1.03, 28.73 0 M9.58 0 C16.52 -0.32, 24.99 -0.45, 28.73 0 M28.73 0 C35.74 -0.52, 38.04 2.89, 38.31 9.58 M28.73 0 C36.66 1.92, 40.23 2.9, 38.31 9.58 M38.31 9.58 C39.94 21.93, 39.61 30.89, 38.31 44.3 M38.31 9.58 C38.09 22.81, 38.62 34.73, 38.31 44.3 M38.31 44.3 C39.59 51.63, 36.64 52.07, 28.73 53.88 M38.31 44.3 C36.12 51.13, 35.11 54.41, 28.73 53.88 M28.73 53.88 C22.26 54.38, 19.72 53.27, 9.58 53.88 M28.73 53.88 C20.87 54.05, 13.01 54.79, 9.58 53.88 M9.58 53.88 C2.61 55.54, -0.23 52.49, 0 44.3 M9.58 53.88 C4.97 53.82, -2 50.54, 0 44.3 M0 44.3 C-0.28 30.78, -1.98 20.54, 0 9.58 M0 44.3 C-0.4 34.9, 0.26 25.83, 0 9.58 M0 9.58 C1.72 1.27, 2.44 1.28, 9.58 0 M0 9.58 C-0.25 3.35, 4.51 1.78, 9.58 0" stroke="#1e1e1e" stroke-width="1" fill="none"></path></g><g transform="translate(310.1036220813416 415.5694452177176) rotate(0 5.159996032714844 12.5)"><text x="5.159996032714844" y="0" font-family="Virgil, Segoe UI Emoji" font-size="20px" fill="#1e1e1e" text-anchor="middle" style="white-space: pre;" direction="ltr" dominant-baseline="text-before-edge">*</text></g><g stroke-linecap="round" transform="translate(342.6099852006461 402.0318480488658) rotate(0 18.510558213226062 26.339817389911502)"><path d="M9.26 0 M9.26 0 C14.63 -0.49, 23.18 1.57, 27.77 0 M9.26 0 C16.34 0.58, 21.71 -1, 27.77 0 M27.77 0 C34.32 -0.01, 37.48 1.87, 37.02 9.26 M27.77 0 C32.68 -1.88, 34.75 3.88, 37.02 9.26 M37.02 9.26 C35.19 20.44, 36.44 30.55, 37.02 43.42 M37.02 9.26 C38.16 17.75, 38.23 27.25, 37.02 43.42 M37.02 43.42 C36.97 47.85, 33.81 53.94, 27.77 52.68 M37.02 43.42 C38.96 51.27, 33.95 51.63, 27.77 52.68 M27.77 52.68 C24.39 50.91, 19.25 51.58, 9.26 52.68 M27.77 52.68 C20.63 52.49, 15.85 52.74, 9.26 52.68 M9.26 52.68 C3.22 53.83, 1.55 47.79, 0 43.42 M9.26 52.68 C4.77 53.37, -1 48.03, 0 43.42 M0 43.42 C-0.19 34.2, -1.79 27.05, 0 9.26 M0 43.42 C-0.15 35.49, -0.68 29.46, 0 9.26 M0 9.26 C1.65 1.36, 3.31 -1.21, 9.26 0 M0 9.26 C2.06 5.2, 1.3 -0.61, 9.26 0" stroke="#1e1e1e" stroke-width="1" fill="none"></path></g><g transform="translate(355.96054738115737 415.87166543877737) rotate(0 5.159996032714844 12.5)"><text x="5.159996032714844" y="0" font-family="Virgil, Segoe UI Emoji" font-size="20px" fill="#1e1e1e" text-anchor="middle" style="white-space: pre;" direction="ltr" dominant-baseline="text-before-edge">*</text></g><g stroke-linecap="round" transform="translate(385.80558537074256 401.3120724349787) rotate(0 19.250311633813226 27.537081816725674)"><path d="M9.63 0 M9.63 0 C16.62 -1.02, 21.98 1.26, 28.88 0 M9.63 0 C14.26 -0.35, 19.8 -0.56, 28.88 0 M28.88 0 C37.02 -1.92, 37.74 4.48, 38.5 9.63 M28.88 0 C35.05 0.16, 39.82 4.99, 38.5 9.63 M38.5 9.63 C37.89 15.77, 38.1 25.52, 38.5 45.45 M38.5 9.63 C37.67 18.99, 37.54 25.57, 38.5 45.45 M38.5 45.45 C37.05 50.94, 33.43 53.08, 28.88 55.07 M38.5 45.45 C38.63 53.76, 33.31 55.34, 28.88 55.07 M28.88 55.07 C22.78 54.74, 20.24 56.48, 9.63 55.07 M28.88 55.07 C23 55.97, 18.9 54.53, 9.63 55.07 M9.63 55.07 C2.43 53.77, -0.64 52.72, 0 45.45 M9.63 55.07 C3.49 53.77, -0.61 50.23, 0 45.45 M0 45.45 C1.41 37.09, -1.94 31.73, 0 9.63 M0 45.45 C0.03 35.41, 0.32 23.5, 0 9.63 M0 9.63 C-0.78 4.14, 4.94 -1.17, 9.63 0 M0 9.63 C-0.45 3.9, 5.49 -0.06, 9.63 0" stroke="#1e1e1e" stroke-width="1" fill="none"></path></g><g transform="translate(399.89590097184094 416.3491542517044) rotate(0 5.159996032714844 12.5)"><text x="5.159996032714844" y="0" font-family="Virgil, Segoe UI Emoji" font-size="20px" fill="#1e1e1e" text-anchor="middle" style="white-space: pre;" direction="ltr" dominant-baseline="text-before-edge">*</text></g><g stroke-linecap="round" transform="translate(247.49947648023715 393.9740395636823) rotate(0 93.39169643129691 33.935120925486274)"><path d="M16.97 0 M16.97 0 C49.44 0.6, 84.26 -1.3, 169.82 0 M16.97 0 C54.94 -0.65, 92.79 -0.33, 169.82 0 M169.82 0 C182.91 1.53, 184.87 4.85, 186.78 16.97 M169.82 0 C178.89 -0.98, 185.52 4.97, 186.78 16.97 M186.78 16.97 C186.5 26.45, 186.74 36.08, 186.78 50.9 M186.78 16.97 C186.06 26.87, 186.9 37.79, 186.78 50.9 M186.78 50.9 C185.92 62.3, 182.1 67.75, 169.82 67.87 M186.78 50.9 C187.1 63.42, 181.87 70.05, 169.82 67.87 M169.82 67.87 C119.42 66.71, 71.21 68.99, 16.97 67.87 M169.82 67.87 C137.2 66.8, 106.88 67.43, 16.97 67.87 M16.97 67.87 C6.41 66.02, 1.19 63.68, 0 50.9 M16.97 67.87 C5.7 66.74, -0.61 63.51, 0 50.9 M0 50.9 C-0.08 36.63, 1.57 24.85, 0 16.97 M0 50.9 C-0.98 38.3, 0.46 24.77, 0 16.97 M0 16.97 C-0.85 4.19, 4.96 0.35, 16.97 0 M0 16.97 C0.77 5.97, 5.97 0.46, 16.97 0" stroke="#1e1e1e" stroke-width="1" fill="none"></path></g><g stroke-linecap="round" transform="translate(252.45396269177917 477.9179360127767) rotate(0 17.504997790482122 25.741185176504473)"><path d="M8.75 0 M8.75 0 C13.35 1.35, 17.35 -0.02, 26.26 0 M8.75 0 C15.69 -0.43, 21.35 -0.47, 26.26 0 M26.26 0 C32.22 0.45, 34.76 2.94, 35.01 8.75 M26.26 0 C30.35 -2.04, 35.85 3.37, 35.01 8.75 M35.01 8.75 C32.8 20.55, 36.05 29.63, 35.01 42.73 M35.01 8.75 C33.69 19.03, 34.59 27.48, 35.01 42.73 M35.01 42.73 C34.21 48.65, 31.14 49.84, 26.26 51.48 M35.01 42.73 C34.48 46.41, 32.6 51.52, 26.26 51.48 M26.26 51.48 C22.43 51.16, 15.71 52.67, 8.75 51.48 M26.26 51.48 C21.22 52, 18.39 50.75, 8.75 51.48 M8.75 51.48 C4.65 51.95, -1.22 49.98, 0 42.73 M8.75 51.48 C3.08 53.22, 1.32 49.03, 0 42.73 M0 42.73 C1.74 32.36, 0.95 24.55, 0 8.75 M0 42.73 C0.41 32.5, -0.48 22.25, 0 8.75 M0 8.75 C0.2 2.84, 3.39 0.14, 8.75 0 M0 8.75 C1.81 4.23, 1.42 1.57, 8.75 0" stroke="#1e1e1e" stroke-width="1" fill="none"></path></g><g transform="translate(264.7989644495465 491.15912118928117) rotate(0 5.159996032714844 12.5)"><text x="5.159996032714844" y="0" font-family="Virgil, Segoe UI Emoji" font-size="20px" fill="#1e1e1e" text-anchor="middle" style="white-space: pre;" direction="ltr" dominant-baseline="text-before-edge">*</text></g><g stroke-linecap="round" transform="translate(293.4457487383833 477.01708357830995) rotate(0 19.156230829026583 26.93844960331859)"><path d="M9.58 0 M9.58 0 C18.42 0.64, 25.27 0.45, 28.73 0 M9.58 0 C14.69 0.29, 19.56 0.09, 28.73 0 M28.73 0 C33.6 -1.78, 39.04 3.59, 38.31 9.58 M28.73 0 C35.04 -1.45, 39.26 0.89, 38.31 9.58 M38.31 9.58 C38.19 21.01, 36.7 34.44, 38.31 44.3 M38.31 9.58 C37.88 22.35, 37.81 34.21, 38.31 44.3 M38.31 44.3 C37.86 48.81, 35.56 53.91, 28.73 53.88 M38.31 44.3 C37.47 49.28, 37.01 54.91, 28.73 53.88 M28.73 53.88 C22.53 52.16, 17.17 52.52, 9.58 53.88 M28.73 53.88 C22.46 53.96, 13.94 54.42, 9.58 53.88 M9.58 53.88 C3.33 55.39, 1.14 51.09, 0 44.3 M9.58 53.88 C2.85 52.81, -1.72 52.5, 0 44.3 M0 44.3 C0.02 33.82, -0.71 26.26, 0 9.58 M0 44.3 C0.34 33.06, 0.48 21.96, 0 9.58 M0 9.58 C1.58 4.33, 1.89 1.36, 9.58 0 M0 9.58 C-1.9 2.98, 3.84 2.08, 9.58 0" stroke="#1e1e1e" stroke-width="1" fill="none"></path></g><g transform="translate(307.44198353469505 491.45553318162854) rotate(0 5.159996032714844 12.5)"><text x="5.159996032714844" y="0" font-family="Virgil, Segoe UI Emoji" font-size="20px" fill="#1e1e1e" text-anchor="middle" style="white-space: pre;" direction="ltr" dominant-baseline="text-before-edge">*</text></g><g stroke-linecap="round" transform="translate(339.94834665399947 477.9179360127767) rotate(0 18.510558213226062 26.339817389911502)"><path d="M9.26 0 M9.26 0 C14.76 -1.85, 20.85 0.08, 27.77 0 M9.26 0 C14.52 -0.83, 21.53 0.18, 27.77 0 M27.77 0 C33.86 -1.26, 37.85 1.09, 37.02 9.26 M27.77 0 C35.92 1.45, 37.87 2.7, 37.02 9.26 M37.02 9.26 C38.04 15.95, 35.7 22.19, 37.02 43.42 M37.02 9.26 C36.63 18.71, 37.08 30.06, 37.02 43.42 M37.02 43.42 C36.29 48.37, 35.58 53.58, 27.77 52.68 M37.02 43.42 C36.41 47.87, 35.31 51.51, 27.77 52.68 M27.77 52.68 C25.3 54.35, 18.87 54.14, 9.26 52.68 M27.77 52.68 C21.85 53.51, 16.33 53, 9.26 52.68 M9.26 52.68 C2.78 51.76, -1.5 51.18, 0 43.42 M9.26 52.68 C2.29 53.59, 1.36 49.78, 0 43.42 M0 43.42 C0.55 33.95, 0.97 27.45, 0 9.26 M0 43.42 C0.71 33.88, -0.73 23.87, 0 9.26 M0 9.26 C-1.65 2.9, 3.65 1.81, 9.26 0 M0 9.26 C1.4 3.96, 1.02 -0.15, 9.26 0" stroke="#1e1e1e" stroke-width="1" fill="none"></path></g><g transform="translate(353.2989088345107 491.7577534026882) rotate(0 5.159996032714844 12.5)"><text x="5.159996032714844" y="0" font-family="Virgil, Segoe UI Emoji" font-size="20px" fill="#1e1e1e" text-anchor="middle" style="white-space: pre;" direction="ltr" dominant-baseline="text-before-edge">*</text></g><g stroke-linecap="round" transform="translate(383.1439468240959 477.19816039888957) rotate(0 19.250311633813226 27.537081816725674)"><path d="M9.63 0 M9.63 0 C13.95 -0.26, 17.44 -1.47, 28.88 0 M9.63 0 C13.65 -0.65, 18.15 -1, 28.88 0 M28.88 0 C37.02 1.26, 39.24 2.87, 38.5 9.63 M28.88 0 C33.01 -2.1, 36.25 4.74, 38.5 9.63 M38.5 9.63 C38.41 19.11, 36.68 30.05, 38.5 45.45 M38.5 9.63 C38.21 16.41, 39.4 24.86, 38.5 45.45 M38.5 45.45 C37.97 50.36, 36.48 54.06, 28.88 55.07 M38.5 45.45 C36.3 50.55, 33.53 56.7, 28.88 55.07 M28.88 55.07 C21.67 54.07, 14.93 55.37, 9.63 55.07 M28.88 55.07 C21.5 54.67, 13.69 55.87, 9.63 55.07 M9.63 55.07 C2.52 55.87, 1.18 52.02, 0 45.45 M9.63 55.07 C1.75 54.42, 0.44 52.39, 0 45.45 M0 45.45 C-0.23 37.66, -0.02 30.49, 0 9.63 M0 45.45 C-0.59 32.56, 0.52 20.77, 0 9.63 M0 9.63 C1.21 3.97, 1.42 -0.13, 9.63 0 M0 9.63 C2.02 5.43, 3.95 -1.09, 9.63 0" stroke="#1e1e1e" stroke-width="1" fill="none"></path></g><g transform="translate(397.2342624251943 492.23524221561524) rotate(0 5.159996032714844 12.5)"><text x="5.159996032714844" y="0" font-family="Virgil, Segoe UI Emoji" font-size="20px" fill="#1e1e1e" text-anchor="middle" style="white-space: pre;" direction="ltr" dominant-baseline="text-before-edge">*</text></g><g stroke-linecap="round" transform="translate(244.8378379335905 469.8601275275933) rotate(0 131.58008402061873 33.935120925486274)"><path d="M16.97 0 M16.97 0 C81.32 2.1, 149.04 1.42, 246.19 0 M16.97 0 C72.01 2.49, 125.9 1.81, 246.19 0 M246.19 0 C255.52 -1.83, 261.2 6.99, 263.16 16.97 M246.19 0 C257.31 -1.16, 262.24 5.75, 263.16 16.97 M263.16 16.97 C261.01 25.96, 262.91 33.36, 263.16 50.9 M263.16 16.97 C263.17 24.33, 264.04 32.68, 263.16 50.9 M263.16 50.9 C261.24 61.07, 255.97 69.29, 246.19 67.87 M263.16 50.9 C265.41 60.55, 259.5 68.4, 246.19 67.87 M246.19 67.87 C192.69 68.98, 136.96 67.75, 16.97 67.87 M246.19 67.87 C187.72 69.75, 130.34 69.48, 16.97 67.87 M16.97 67.87 C4.39 67.3, 0.39 62.67, 0 50.9 M16.97 67.87 C4.06 68.88, 0.23 62.13, 0 50.9 M0 50.9 C1.12 38.62, 1.34 27.28, 0 16.97 M0 50.9 C0.51 41.42, -0.99 31.12, 0 16.97 M0 16.97 C1.76 7.59, 6.3 -0.95, 16.97 0 M0 16.97 C0.5 3.83, 7.69 0, 16.97 0" stroke="#1e1e1e" stroke-width="1" fill="none"></path></g><g stroke-linecap="round" transform="translate(426.45060703078735 476.37676117019606) rotate(0 18.5 28)"><path d="M9.25 0 M9.25 0 C13.89 0.5, 20.55 -0.4, 27.75 0 M9.25 0 C16.03 0.89, 21.96 -0.68, 27.75 0 M27.75 0 C32.78 0.19, 36.22 3.62, 37 9.25 M27.75 0 C33.71 1.42, 35.94 0.92, 37 9.25 M37 9.25 C37.41 18.89, 36.8 30.12, 37 46.75 M37 9.25 C37.6 17.85, 36.48 25.99, 37 46.75 M37 46.75 C38.02 53.98, 34.6 55.98, 27.75 56 M37 46.75 C38.69 53.23, 31.78 56.08, 27.75 56 M27.75 56 C23.48 56.83, 18 54.81, 9.25 56 M27.75 56 C21.74 56.58, 15.96 55.5, 9.25 56 M9.25 56 C4.53 54.84, 1.18 53.94, 0 46.75 M9.25 56 C3.12 57.6, 1.58 53.01, 0 46.75 M0 46.75 C-1.65 37.91, 0.72 32.04, 0 9.25 M0 46.75 C-0.65 38.73, 1.02 29.2, 0 9.25 M0 9.25 C-0.78 1.86, 4.91 0.53, 9.25 0 M0 9.25 C1.62 1.09, 1.02 2.19, 9.25 0" stroke="#1e1e1e" stroke-width="1" fill="none"></path></g><g transform="translate(439.7906109980725 491.87676117019606) rotate(0 5.159996032714844 12.5)"><text x="5.159996032714844" y="0" font-family="Virgil, Segoe UI Emoji" font-size="20px" fill="#1e1e1e" text-anchor="middle" style="white-space: pre;" direction="ltr" dominant-baseline="text-before-edge">*</text></g><g stroke-linecap="round" transform="translate(469.7797391032871 477.11115323922155) rotate(0 16 28)"><path d="M8 0 M8 0 C12.89 -1.6, 17.27 -0.86, 24 0 M8 0 C11.74 -0.64, 14.18 0.44, 24 0 M24 0 C27.42 0.98, 33.43 1.6, 32 8 M24 0 C28.44 -1.41, 34.1 3.28, 32 8 M32 8 C33.56 21.57, 30.56 35.75, 32 48 M32 8 C32.58 20.71, 31.39 31.78, 32 48 M32 48 C30.84 53.77, 28.82 55.04, 24 56 M32 48 C30.98 51.38, 28.96 57.45, 24 56 M24 56 C16.83 54.7, 12.44 55.38, 8 56 M24 56 C17.2 56.6, 11.17 55.5, 8 56 M8 56 C3.4 54.48, -1.67 52.01, 0 48 M8 56 C3 54.06, 0.51 52.4, 0 48 M0 48 C0.56 35.48, -1.53 22.59, 0 8 M0 48 C0.74 36.11, 0.49 24.44, 0 8 M0 8 C0.8 3.41, 0.95 1.84, 8 0 M0 8 C1.31 0.82, 1.86 -1.45, 8 0" stroke="#1e1e1e" stroke-width="1" fill="none"></path></g><g transform="translate(480.61974307057227 492.61115323922155) rotate(0 5.159996032714844 12.5)"><text x="5.159996032714844" y="0" font-family="Virgil, Segoe UI Emoji" font-size="20px" fill="#1e1e1e" text-anchor="middle" style="white-space: pre;" direction="ltr" dominant-baseline="text-before-edge">*</text></g><g transform="translate(843.179979087349 379.0100342619103) rotate(0 69.0799331665039 12.5)"><text x="0" y="0" font-family="Virgil, Segoe UI Emoji" font-size="20px" fill="#1e1e1e" text-anchor="start" style="white-space: pre;" direction="ltr" dominant-baseline="text-before-edge">amazing-o-lock</text></g><g stroke-linecap="round" transform="translate(843.2983383253293 414.73363653992607) rotate(0 17.504997790482093 25.741185176504473)"><path d="M8.75 0 M8.75 0 C13.38 -1.72, 20.61 -1.43, 26.26 0 M8.75 0 C14.76 0.31, 22.5 -0.19, 26.26 0 M26.26 0 C32.8 -1.58, 33.83 3.98, 35.01 8.75 M26.26 0 C33.76 -2.2, 37.01 4.05, 35.01 8.75 M35.01 8.75 C35.98 16.58, 35.95 21.59, 35.01 42.73 M35.01 8.75 C35.79 19.93, 36.09 29.29, 35.01 42.73 M35.01 42.73 C36.15 48.66, 33.03 50.35, 26.26 51.48 M35.01 42.73 C35.82 49.26, 31.71 53.02, 26.26 51.48 M26.26 51.48 C20.64 51.9, 16.85 50.97, 8.75 51.48 M26.26 51.48 C21.87 51.3, 17.44 51.15, 8.75 51.48 M8.75 51.48 C2.99 50.08, -1.17 49.62, 0 42.73 M8.75 51.48 C4.51 51, 1.49 46.81, 0 42.73 M0 42.73 C1.78 34.96, -1.01 25.59, 0 8.75 M0 42.73 C-0.28 29.17, 0.19 15.98, 0 8.75 M0 8.75 C1.08 2.72, 4.8 1.34, 8.75 0 M0 8.75 C1.62 5, 2.73 1.76, 8.75 0" stroke="#1e1e1e" stroke-width="1" fill="none"></path></g><g transform="translate(855.6433400830965 427.9748217164304) rotate(0 5.159996032714844 12.5)"><text x="5.159996032714844" y="0" font-family="Virgil, Segoe UI Emoji" font-size="20px" fill="#1e1e1e" text-anchor="middle" style="white-space: pre;" direction="ltr" dominant-baseline="text-before-edge">*</text></g><g stroke-linecap="round" transform="translate(884.2901243719334 413.8327841054593) rotate(0 19.156230829026583 26.93844960331859)"><path d="M9.58 0 M9.58 0 C17.97 -1.3, 24.39 -1.29, 28.73 0 M9.58 0 C15.4 -0.31, 20.57 -0.82, 28.73 0 M28.73 0 C33.94 1.07, 39.76 1.28, 38.31 9.58 M28.73 0 C37.12 1.14, 36.13 3, 38.31 9.58 M38.31 9.58 C39.45 19.83, 38.48 33.11, 38.31 44.3 M38.31 9.58 C39.48 20.07, 39.11 30.26, 38.31 44.3 M38.31 44.3 C39.25 49.55, 35.82 54.48, 28.73 53.88 M38.31 44.3 C37.93 52.22, 34.11 52.61, 28.73 53.88 M28.73 53.88 C21.87 53.29, 15.08 55.32, 9.58 53.88 M28.73 53.88 C23 53.47, 17.24 53.17, 9.58 53.88 M9.58 53.88 C2.03 54.93, 1.38 50.27, 0 44.3 M9.58 53.88 C4.69 52.12, -1.18 49.64, 0 44.3 M0 44.3 C-1.45 33.9, 1.51 23.18, 0 9.58 M0 44.3 C0.2 30.76, 0.69 17.68, 0 9.58 M0 9.58 C1.88 4.54, 4.6 1.81, 9.58 0 M0 9.58 C-0.19 4.95, 4.24 1.3, 9.58 0" stroke="#1e1e1e" stroke-width="1" fill="none"></path></g><g transform="translate(898.2863591682451 428.27123370877786) rotate(0 5.159996032714844 12.5)"><text x="5.159996032714844" y="0" font-family="Virgil, Segoe UI Emoji" font-size="20px" fill="#1e1e1e" text-anchor="middle" style="white-space: pre;" direction="ltr" dominant-baseline="text-before-edge">*</text></g><g stroke-linecap="round" transform="translate(930.7927222875496 414.73363653992607) rotate(0 18.510558213226034 26.339817389911502)"><path d="M9.26 0 M9.26 0 C14.56 -1.27, 16.49 -1.22, 27.77 0 M9.26 0 C15.7 -0.68, 20.95 0.54, 27.77 0 M27.77 0 C35.39 -1.91, 38.76 4.07, 37.02 9.26 M27.77 0 C31.75 -0.2, 37.65 4.24, 37.02 9.26 M37.02 9.26 C37.18 21.77, 37.13 33.98, 37.02 43.42 M37.02 9.26 C37.91 22.93, 37.81 35.95, 37.02 43.42 M37.02 43.42 C37.72 50.2, 33.6 54.02, 27.77 52.68 M37.02 43.42 C36.01 48.33, 34.69 51.19, 27.77 52.68 M27.77 52.68 C20.95 53.98, 15.91 52.7, 9.26 52.68 M27.77 52.68 C22.64 51.96, 16.91 53.1, 9.26 52.68 M9.26 52.68 C4.47 52.26, 1.3 48.07, 0 43.42 M9.26 52.68 C1.91 51.64, -0.17 51.47, 0 43.42 M0 43.42 C1.99 31.21, 1.84 19.77, 0 9.26 M0 43.42 C0.52 34.19, 0.92 25.83, 0 9.26 M0 9.26 C1.41 4.9, 2.92 1.53, 9.26 0 M0 9.26 C1.04 4.38, 0.98 -0.78, 9.26 0" stroke="#1e1e1e" stroke-width="1" fill="none"></path></g><g transform="translate(944.1432844680608 428.5734539298376) rotate(0 5.159996032714844 12.5)"><text x="5.159996032714844" y="0" font-family="Virgil, Segoe UI Emoji" font-size="20px" fill="#1e1e1e" text-anchor="middle" style="white-space: pre;" direction="ltr" dominant-baseline="text-before-edge">*</text></g><g stroke-linecap="round" transform="translate(973.9883224576461 414.01386092603894) rotate(0 19.250311633813226 27.537081816725674)"><path d="M9.63 0 M9.63 0 C13.49 -1.27, 18.8 1.14, 28.88 0 M9.63 0 C14.32 0.67, 20.85 -0.77, 28.88 0 M28.88 0 C37.03 0.99, 36.6 3.04, 38.5 9.63 M28.88 0 C35.92 1.15, 39.49 4.32, 38.5 9.63 M38.5 9.63 C38.44 19.68, 40.48 29.03, 38.5 45.45 M38.5 9.63 C39.17 20.42, 39.06 32.65, 38.5 45.45 M38.5 45.45 C38.17 53.2, 34.41 53.97, 28.88 55.07 M38.5 45.45 C39.25 50.38, 35.77 54.49, 28.88 55.07 M28.88 55.07 C23.74 55.3, 18.17 55.28, 9.63 55.07 M28.88 55.07 C23.27 55.45, 19.45 54.74, 9.63 55.07 M9.63 55.07 C4.51 53.55, -1.03 50.96, 0 45.45 M9.63 55.07 C3.04 56.95, 0.78 50.53, 0 45.45 M0 45.45 C1.32 34.3, -0.98 24.94, 0 9.63 M0 45.45 C0.75 36.36, 0.51 26.83, 0 9.63 M0 9.63 C-0.17 4.73, 4.12 1.13, 9.63 0 M0 9.63 C-2.1 2.43, 4.62 -1.57, 9.63 0" stroke="#1e1e1e" stroke-width="1" fill="none"></path></g><g transform="translate(988.0786380587444 429.0509427427647) rotate(0 5.159996032714844 12.5)"><text x="5.159996032714844" y="0" font-family="Virgil, Segoe UI Emoji" font-size="20px" fill="#1e1e1e" text-anchor="middle" style="white-space: pre;" direction="ltr" dominant-baseline="text-before-edge">*</text></g><g stroke-linecap="round" transform="translate(835.6822135671405 406.67582805474257) rotate(0 93.39169643129691 33.935120925486274)"><path d="M16.97 0 M16.97 0 C51.75 2.16, 84.78 1.83, 169.82 0 M16.97 0 C51.46 -1.77, 85.37 -0.32, 169.82 0 M169.82 0 C179.23 -0.17, 187.33 6.66, 186.78 16.97 M169.82 0 C182.12 1.11, 185.51 5.65, 186.78 16.97 M186.78 16.97 C188.75 30.39, 187.12 41.19, 186.78 50.9 M186.78 16.97 C187.29 27.61, 186.78 38.32, 186.78 50.9 M186.78 50.9 C185.9 61.11, 181.78 66.58, 169.82 67.87 M186.78 50.9 C187.26 61.63, 180.38 66.78, 169.82 67.87 M169.82 67.87 C112.3 68, 54.88 68.01, 16.97 67.87 M169.82 67.87 C135.33 68.47, 100.12 67.92, 16.97 67.87 M16.97 67.87 C4.63 66.97, -0.15 63.85, 0 50.9 M16.97 67.87 C6.44 66.53, -0.28 64.28, 0 50.9 M0 50.9 C-0.93 42.2, -0.83 34.34, 0 16.97 M0 50.9 C0.38 41.96, -0.4 31.96, 0 16.97 M0 16.97 C0.91 6.78, 3.83 -0.68, 16.97 0 M0 16.97 C1.41 4.09, 7.93 -0.94, 16.97 0" stroke="#1e1e1e" stroke-width="1" fill="none"></path></g><g stroke-linecap="round" transform="translate(840.6366997786827 490.619724503837) rotate(0 17.504997790482093 25.741185176504473)"><path d="M8.75 0 M8.75 0 C14.52 -0.52, 19.1 -1.44, 26.26 0 M8.75 0 C12.13 0.63, 17.62 -0.96, 26.26 0 M26.26 0 C31.92 0.55, 36.01 3.78, 35.01 8.75 M26.26 0 C33.2 -1.27, 35 3.84, 35.01 8.75 M35.01 8.75 C37.11 19.19, 36.37 29.04, 35.01 42.73 M35.01 8.75 C35.12 20.37, 35.49 31.88, 35.01 42.73 M35.01 42.73 C33.91 49.22, 30.8 51.89, 26.26 51.48 M35.01 42.73 C34.42 47.82, 31 53.17, 26.26 51.48 M26.26 51.48 C21.05 50.78, 15.79 50.22, 8.75 51.48 M26.26 51.48 C21.84 52.17, 17.13 51.15, 8.75 51.48 M8.75 51.48 C2.01 51.33, 1.63 49.24, 0 42.73 M8.75 51.48 C1.58 51.2, 2.06 47.64, 0 42.73 M0 42.73 C0.26 29.2, 1.22 16.58, 0 8.75 M0 42.73 C0.68 29.25, 0.53 16.4, 0 8.75 M0 8.75 C1.13 1.09, 2.24 1.23, 8.75 0 M0 8.75 C-1.57 5.19, 1.97 1.01, 8.75 0" stroke="#1e1e1e" stroke-width="1" fill="none"></path></g><g transform="translate(852.9817015364499 503.86090968034125) rotate(0 5.159996032714844 12.5)"><text x="5.159996032714844" y="0" font-family="Virgil, Segoe UI Emoji" font-size="20px" fill="#1e1e1e" text-anchor="middle" style="white-space: pre;" direction="ltr" dominant-baseline="text-before-edge">*</text></g><g stroke-linecap="round" transform="translate(881.6284858252868 489.71887206937026) rotate(0 19.156230829026583 26.93844960331859)"><path d="M9.58 0 M9.58 0 C16.58 -1.46, 21.11 1.07, 28.73 0 M9.58 0 C17.19 -1.07, 23.77 0.1, 28.73 0 M28.73 0 C36.12 0.86, 39.28 2.09, 38.31 9.58 M28.73 0 C35.11 0.92, 38.25 4.68, 38.31 9.58 M38.31 9.58 C39.78 23.52, 39.58 36.15, 38.31 44.3 M38.31 9.58 C39.09 20.77, 37.87 33.17, 38.31 44.3 M38.31 44.3 C37.02 51.1, 34.61 53.23, 28.73 53.88 M38.31 44.3 C37.22 52.38, 35.14 53.98, 28.73 53.88 M28.73 53.88 C23.46 52.47, 16.94 54.82, 9.58 53.88 M28.73 53.88 C20.93 53.51, 14.16 53.93, 9.58 53.88 M9.58 53.88 C4.82 54.55, -1.16 50.44, 0 44.3 M9.58 53.88 C5.25 52.95, 1.88 49.72, 0 44.3 M0 44.3 C1.06 34.82, 1.86 27.08, 0 9.58 M0 44.3 C0.45 31.89, 0.25 17.67, 0 9.58 M0 9.58 C-0.68 4.42, 1.83 1.98, 9.58 0 M0 9.58 C-0.94 4.21, 3.61 1.38, 9.58 0" stroke="#1e1e1e" stroke-width="1" fill="none"></path></g><g transform="translate(895.6247206215985 504.1573216726887) rotate(0 5.159996032714844 12.5)"><text x="5.159996032714844" y="0" font-family="Virgil, Segoe UI Emoji" font-size="20px" fill="#1e1e1e" text-anchor="middle" style="white-space: pre;" direction="ltr" dominant-baseline="text-before-edge">*</text></g><g stroke-linecap="round" transform="translate(928.131083740903 490.619724503837) rotate(0 18.510558213226034 26.339817389911502)"><path d="M9.26 0 M9.26 0 C13.22 1.13, 20.72 -1.62, 27.77 0 M9.26 0 C16.34 0.43, 24.04 0.57, 27.77 0 M27.77 0 C34.9 -1.11, 37.02 3.89, 37.02 9.26 M27.77 0 C33.87 1.49, 39.3 5.25, 37.02 9.26 M37.02 9.26 C38.15 18.96, 37.92 31.53, 37.02 43.42 M37.02 9.26 C36.7 19.26, 36.6 28.82, 37.02 43.42 M37.02 43.42 C36.51 48.94, 32.99 54.15, 27.77 52.68 M37.02 43.42 C37.04 49.69, 33.45 52.75, 27.77 52.68 M27.77 52.68 C21.83 53.53, 19.34 52.16, 9.26 52.68 M27.77 52.68 C20.59 52.52, 15.01 52.9, 9.26 52.68 M9.26 52.68 C1.92 52.44, 1.79 48.79, 0 43.42 M9.26 52.68 C4.97 51.72, -0.75 49.73, 0 43.42 M0 43.42 C1.7 35.46, 1.22 26.62, 0 9.26 M0 43.42 C0.3 32.54, -0.6 24.1, 0 9.26 M0 9.26 C-1.36 5.06, 2.26 0.88, 9.26 0 M0 9.26 C0.42 4.47, 1.56 -0.85, 9.26 0" stroke="#1e1e1e" stroke-width="1" fill="none"></path></g><g transform="translate(941.4816459214142 504.45954189374845) rotate(0 5.159996032714844 12.5)"><text x="5.159996032714844" y="0" font-family="Virgil, Segoe UI Emoji" font-size="20px" fill="#1e1e1e" text-anchor="middle" style="white-space: pre;" direction="ltr" dominant-baseline="text-before-edge">*</text></g><g stroke-linecap="round" transform="translate(971.3266839109992 489.8999488899499) rotate(0 19.250311633813226 27.537081816725674)"><path d="M9.63 0 M9.63 0 C15.28 -1.94, 19.8 0.85, 28.88 0 M9.63 0 C14.06 0.36, 17.99 -0.59, 28.88 0 M28.88 0 C35.29 0.8, 38.44 4.5, 38.5 9.63 M28.88 0 C37.57 2.17, 38.89 4.52, 38.5 9.63 M38.5 9.63 C39.37 21.15, 38.33 32.79, 38.5 45.45 M38.5 9.63 C37.66 19, 38.05 27.64, 38.5 45.45 M38.5 45.45 C37.55 53.34, 35.31 55.16, 28.88 55.07 M38.5 45.45 C38.01 51.94, 34.42 55.16, 28.88 55.07 M28.88 55.07 C25.78 54.77, 21.27 53.71, 9.63 55.07 M28.88 55.07 C24.87 55.39, 18.74 54.94, 9.63 55.07 M9.63 55.07 C5 54.27, 1.64 51.03, 0 45.45 M9.63 55.07 C2.46 55.21, -0.63 53.11, 0 45.45 M0 45.45 C1.07 36.86, -0.5 26.18, 0 9.63 M0 45.45 C-0.54 33.69, -0.88 21.69, 0 9.63 M0 9.63 C-0.82 4.09, 3.57 1.2, 9.63 0 M0 9.63 C-1.52 2.36, 4.86 -1.52, 9.63 0" stroke="#1e1e1e" stroke-width="1" fill="none"></path></g><g transform="translate(985.4169995120976 504.9370307066755) rotate(0 5.159996032714844 12.5)"><text x="5.159996032714844" y="0" font-family="Virgil, Segoe UI Emoji" font-size="20px" fill="#1e1e1e" text-anchor="middle" style="white-space: pre;" direction="ltr" dominant-baseline="text-before-edge">*</text></g><g stroke-linecap="round" transform="translate(833.0205750204939 482.5619160186536) rotate(0 131.58008402061876 33.935120925486274)"><path d="M16.97 0 M16.97 0 C99.43 2.71, 177.32 1.72, 246.19 0 M16.97 0 C92.4 -1.31, 167.01 -0.5, 246.19 0 M246.19 0 C257.45 1.29, 265.14 7.54, 263.16 16.97 M246.19 0 C257.9 1.31, 263.27 6.73, 263.16 16.97 M263.16 16.97 C262.95 26.56, 262.4 32.38, 263.16 50.9 M263.16 16.97 C262.69 27.93, 262.47 40.28, 263.16 50.9 M263.16 50.9 C263.18 62.3, 257.08 67.93, 246.19 67.87 M263.16 50.9 C262.29 62.3, 255.9 66.53, 246.19 67.87 M246.19 67.87 C166.41 66.16, 83.54 66.69, 16.97 67.87 M246.19 67.87 C178.64 68.43, 112.84 68.19, 16.97 67.87 M16.97 67.87 C7.29 67.03, -0.65 62.33, 0 50.9 M16.97 67.87 C5.02 69.11, -0.22 64.38, 0 50.9 M0 50.9 C-0.4 39.97, 0.67 27.11, 0 16.97 M0 50.9 C-0.57 44.81, -0.3 37.18, 0 16.97 M0 16.97 C0.36 6.86, 4.33 -0.74, 16.97 0 M0 16.97 C1.65 4.14, 6.25 0.74, 16.97 0" stroke="#1e1e1e" stroke-width="1" fill="none"></path></g><g stroke-linecap="round" transform="translate(1014.6333441176907 489.0785496612564) rotate(0 18.5 28)"><path d="M9.25 0 M9.25 0 C17.06 -1.92, 22.88 0.34, 27.75 0 M9.25 0 C15.21 -0.09, 22.57 -0.12, 27.75 0 M27.75 0 C35.21 1.98, 38.88 3.43, 37 9.25 M27.75 0 C35.23 0.11, 38.08 1.78, 37 9.25 M37 9.25 C38.45 20.93, 36.01 35.03, 37 46.75 M37 9.25 C36.75 17.6, 37.81 26.91, 37 46.75 M37 46.75 C37.09 52.49, 33.98 55.24, 27.75 56 M37 46.75 C37.08 51.31, 32.58 57.22, 27.75 56 M27.75 56 C19.51 55.17, 13.26 55.98, 9.25 56 M27.75 56 C20.58 56.72, 13.26 56.65, 9.25 56 M9.25 56 C2.24 55.35, 0.12 52.37, 0 46.75 M9.25 56 C4.33 55.78, 2.17 54.46, 0 46.75 M0 46.75 C1.19 33.77, 0.79 17.15, 0 9.25 M0 46.75 C0.76 36.36, 0.21 26.98, 0 9.25 M0 9.25 C1.2 1.76, 2.35 1.43, 9.25 0 M0 9.25 C-1.52 3.68, 3.82 -2.16, 9.25 0" stroke="#1e1e1e" stroke-width="1" fill="none"></path></g><g transform="translate(1027.973348084976 504.57854966125626) rotate(0 5.159996032714844 12.5)"><text x="5.159996032714844" y="0" font-family="Virgil, Segoe UI Emoji" font-size="20px" fill="#1e1e1e" text-anchor="middle" style="white-space: pre;" direction="ltr" dominant-baseline="text-before-edge">*</text></g><g stroke-linecap="round" transform="translate(1057.9624761901905 489.81294173028186) rotate(0 16 28)"><path d="M8 0 M8 0 C14.05 0.59, 21.18 0.84, 24 0 M8 0 C13.89 -0.02, 19.66 0.79, 24 0 M24 0 C31.22 0.34, 33.14 2.76, 32 8 M24 0 C30.41 -1.31, 32.81 3.36, 32 8 M32 8 C31.17 19.98, 30.97 31.08, 32 48 M32 8 C32.6 18.99, 31.91 29.75, 32 48 M32 48 C32.06 52.58, 29.4 54.6, 24 56 M32 48 C30.66 54.55, 30.92 55.52, 24 56 M24 56 C17.44 55.8, 13.63 56.46, 8 56 M24 56 C19.81 56.8, 15.92 55.88, 8 56 M8 56 C2.78 55.45, 1.08 53.14, 0 48 M8 56 C4.83 57.55, 1.62 55.42, 0 48 M0 48 C0.82 34.5, -0.98 25.89, 0 8 M0 48 C0.05 38.9, 0.21 28.78, 0 8 M0 8 C-0.74 4.1, 1.35 0.52, 8 0 M0 8 C0.74 0.51, 0.5 0.6, 8 0" stroke="#1e1e1e" stroke-width="1" fill="none"></path></g><g transform="translate(1068.8024801574757 505.31294173028175) rotate(0 5.159996032714844 12.5)"><text x="5.159996032714844" y="0" font-family="Virgil, Segoe UI Emoji" font-size="20px" fill="#1e1e1e" text-anchor="middle" style="white-space: pre;" direction="ltr" dominant-baseline="text-before-edge">*</text></g><g stroke-linecap="round" transform="translate(717.5965953598909 10) rotate(0 139.98552836837223 66.2526928155655)"><path d="M167.38 2.2 C183.61 2.7, 202.53 5.37, 216.84 9.59 C231.15 13.81, 243.61 21.05, 253.23 27.51 C262.85 33.97, 270.32 40.75, 274.55 48.35 C278.79 55.95, 280.33 65.02, 278.66 73.1 C276.98 81.18, 272.09 89.64, 264.51 96.83 C256.93 104.03, 245.87 110.85, 233.18 116.27 C220.49 121.69, 204.44 126.62, 188.38 129.36 C172.31 132.11, 153.83 133.12, 136.8 132.74 C119.77 132.36, 101.78 130.15, 86.19 127.06 C70.6 123.98, 55.35 119.67, 43.26 114.24 C31.18 108.8, 20.87 101.64, 13.68 94.43 C6.5 87.22, 1.31 78.86, 0.15 70.97 C-1.02 63.09, 1.83 54.82, 6.71 47.11 C11.58 39.4, 18.98 31.07, 29.4 24.71 C39.82 18.35, 54.55 12.89, 69.24 8.94 C83.92 4.99, 99.71 2.16, 117.5 0.99 C135.28 -0.18, 164.84 1.25, 175.92 1.9 C187.01 2.55, 184.31 3.8, 183.99 4.89" stroke="#f08c00" stroke-width="1.5" fill="none" stroke-dasharray="1.5 7"></path></g><g transform="translate(769.9774732689741 38.90496445380987) rotate(0 87.61993408203125 37.5)"><text x="87.61993408203125" y="0" font-family="Virgil, Segoe UI Emoji" font-size="20px" fill="#f08c00" text-anchor="middle" style="white-space: pre;" direction="ltr" dominant-baseline="text-before-edge">Hei kaikki, olen V. </text><text x="87.61993408203125" y="25" font-family="Virgil, Segoe UI Emoji" font-size="20px" fill="#f08c00" text-anchor="middle" style="white-space: pre;" direction="ltr" dominant-baseline="text-before-edge">Julkinen avaimeni </text><text x="87.61993408203125" y="50" font-family="Virgil, Segoe UI Emoji" font-size="20px" fill="#f08c00" text-anchor="middle" style="white-space: pre;" direction="ltr" dominant-baseline="text-before-edge">on 1234.</text></g><g stroke-linecap="round"><g transform="translate(935.6103087783902 133.61113178641324) rotate(0 42.07791087390274 5.568846433498486)"><path d="M0.34 0.05 C14.2 2.05, 69.83 9.47, 83.82 11.09" stroke="#f08c00" stroke-width="1.5" fill="none" stroke-dasharray="1.5 7"></path></g></g><mask></mask></svg>