<svg version="1.1" xmlns="http://www.w3.org/2000/svg" viewBox="0 0 1030.0184632400997 587" width="1030.0184632400997" height="587">
  <!-- svg-source:excalidraw -->
  
  <defs>
    <style class="style-fonts">
      @font-face {
        font-family: "Virgil";
        src: url("https://excalidraw.com/Virgil.woff2");
      }
      @font-face {
        font-family: "Cascadia";
        src: url("https://excalidraw.com/Cascadia.woff2");
      }
    </style>
    
  </defs>
  <rect x="0" y="0" width="1030.0184632400997" height="587" fill="#ffffff"></rect><g stroke-linecap="round" transform="translate(72.01846324009955 216) rotate(0 106.5 21.5)"><path d="M10.75 0 M10.75 0 C63.21 -0.43, 112.02 1.22, 202.25 0 M10.75 0 C78.88 -0.69, 145.56 -1.33, 202.25 0 M202.25 0 C208.74 1.73, 211.66 4.63, 213 10.75 M202.25 0 C209.82 -1.74, 214.02 4.86, 213 10.75 M213 10.75 C212.4 17.3, 214.17 23.62, 213 32.25 M213 10.75 C212.58 15.92, 212.67 22.6, 213 32.25 M213 32.25 C212.65 38.33, 211.19 44.7, 202.25 43 M213 32.25 C211.15 41.69, 207.5 45.01, 202.25 43 M202.25 43 C156.78 42.13, 110.11 40.84, 10.75 43 M202.25 43 C131.27 43.02, 62.25 42.65, 10.75 43 M10.75 43 C3.35 42.08, -0.17 39.11, 0 32.25 M10.75 43 C4.32 41.63, -0.17 40.4, 0 32.25 M0 32.25 C1.93 25.87, -1.61 18.82, 0 10.75 M0 32.25 C-0.35 26.54, -0.28 19.94, 0 10.75 M0 10.75 C0.87 3.47, 4.31 -0.78, 10.75 0 M0 10.75 C-0.93 1.53, 2.73 -0.89, 10.75 0" stroke="#1e1e1e" stroke-width="1" fill="none"></path></g><g transform="translate(131.7685013870722 225) rotate(0 46.749961853027344 12.5)"><text x="46.749961853027344" y="0" font-family="Virgil, Segoe UI Emoji" font-size="20px" fill="#1e1e1e" text-anchor="middle" style="white-space: pre;" direction="ltr" dominant-baseline="text-before-edge">$ git pull</text></g><g transform="translate(75.01846324009955 186) rotate(0 45.03997039794922 12.5)"><text x="0" y="0" font-family="Virgil, Segoe UI Emoji" font-size="20px" fill="#1e1e1e" text-anchor="start" style="white-space: pre;" direction="ltr" dominant-baseline="text-before-edge">Git Bash</text></g><g stroke-linecap="round" transform="translate(77.01846324009955 268) rotate(0 105 18.5)"><path d="M2.46 2.14 C2.46 2.14, 2.46 2.14, 2.46 2.14 M2.46 2.14 C2.46 2.14, 2.46 2.14, 2.46 2.14 M0.89 10.05 C3.12 6.62, 7.06 2.34, 9.42 0.24 M0.89 10.05 C3.3 7.1, 5.37 4.64, 9.42 0.24 M1.28 15.69 C7.01 11.78, 10.95 6.01, 15.06 -0.16 M1.28 15.69 C3.88 12.38, 7.32 9.08, 15.06 -0.16 M1.02 22.09 C4.61 16.54, 9.73 9.83, 20.05 0.2 M1.02 22.09 C5.16 17.71, 10.14 12.09, 20.05 0.2 M1.42 27.73 C10.63 18.46, 15.81 9.67, 25.03 0.56 M1.42 27.73 C8.75 20.41, 14.64 13.31, 25.03 0.56 M1.81 33.37 C11.67 24.98, 17.45 11.99, 30.68 0.17 M1.81 33.37 C11.75 22.07, 21.82 10.44, 30.68 0.17 M4.83 36 C11.58 24.38, 23.59 16.13, 35.66 0.53 M4.83 36 C14.32 26.69, 23.33 16.62, 35.66 0.53 M7.85 38.62 C20.2 24.81, 34.27 11.52, 41.31 0.13 M7.85 38.62 C20.64 24.91, 31.74 10.76, 41.31 0.13 M12.84 38.98 C23.97 23.93, 37.33 7.93, 46.29 0.49 M12.84 38.98 C23.16 27.92, 32.72 16.05, 46.29 0.49 M18.48 38.59 C28.53 24.19, 43.45 10.58, 51.94 0.1 M18.48 38.59 C31.22 24.92, 42.73 11.01, 51.94 0.1 M23.47 38.95 C31.49 29.83, 40.16 18.15, 56.92 0.46 M23.47 38.95 C32.56 28.44, 42.03 16.9, 56.92 0.46 M29.11 38.55 C37.91 29.51, 47.59 19.87, 62.57 0.06 M29.11 38.55 C36.39 28.13, 45.16 19.02, 62.57 0.06 M34.1 38.91 C47.78 22.74, 60.05 8.81, 67.55 0.42 M34.1 38.91 C42.51 28, 51.09 20.08, 67.55 0.42 M39.74 38.52 C50.9 25.48, 60.39 13.76, 73.2 0.03 M39.74 38.52 C49.89 27.5, 59.69 14.45, 73.2 0.03 M44.73 38.88 C54.61 27.01, 66.03 12.79, 78.18 0.39 M44.73 38.88 C58.49 23.63, 70.69 9.35, 78.18 0.39 M50.37 38.49 C61.46 24.88, 73.76 9.88, 83.17 0.75 M50.37 38.49 C56.16 30.28, 62.99 22.95, 83.17 0.75 M55.36 38.85 C69.28 23.59, 79.17 7.99, 88.82 0.35 M55.36 38.85 C62.76 29.11, 69.97 20.88, 88.82 0.35 M60.34 39.21 C68.82 28.55, 78.18 16.36, 93.8 0.72 M60.34 39.21 C68 31.83, 74.36 23.05, 93.8 0.72 M65.99 38.81 C73.99 28.3, 81.75 21.77, 99.45 0.32 M65.99 38.81 C79.04 25.52, 90.51 12.07, 99.45 0.32 M70.97 39.17 C84.82 23.7, 93.18 13.43, 104.43 0.68 M70.97 39.17 C82.06 25.61, 94.96 12.53, 104.43 0.68 M76.62 38.78 C89.93 25.86, 98.26 11.14, 110.08 0.29 M76.62 38.78 C86.16 28.13, 95.15 15.51, 110.08 0.29 M81.6 39.14 C89.17 30.19, 99.46 19.54, 115.06 0.65 M81.6 39.14 C90.88 29.19, 100.64 18.49, 115.06 0.65 M87.25 38.74 C95.51 31.21, 101.36 21.35, 120.71 0.25 M87.25 38.74 C99.21 25.16, 111.34 10.41, 120.71 0.25 M92.23 39.1 C102.32 24.71, 114.67 14.61, 125.69 0.61 M92.23 39.1 C104.45 24.46, 118.86 10.22, 125.69 0.61 M97.88 38.71 C112.35 25.21, 124.77 8.56, 131.34 0.22 M97.88 38.71 C107.02 28.32, 117.79 17.07, 131.34 0.22 M102.86 39.07 C112.84 30.76, 116.94 20.05, 136.32 0.58 M102.86 39.07 C113.61 28.52, 122.78 15.47, 136.32 0.58 M108.51 38.67 C119.09 26.48, 130.03 16.97, 141.31 0.94 M108.51 38.67 C121.01 24.9, 131.18 11, 141.31 0.94 M113.49 39.03 C124.06 26.49, 135.67 16.27, 146.95 0.54 M113.49 39.03 C119.73 30.42, 127.73 23.36, 146.95 0.54 M119.14 38.64 C132.2 25.3, 144.24 10.48, 151.94 0.9 M119.14 38.64 C127.4 28.12, 137.3 18.36, 151.94 0.9 M124.12 39 C134.53 28.18, 147.81 12.49, 157.58 0.51 M124.12 39 C133.83 26.3, 144.27 14.56, 157.58 0.51 M129.11 39.36 C141.14 26.43, 147.58 18.4, 162.57 0.87 M129.11 39.36 C138.8 26.74, 149.27 15.03, 162.57 0.87 M134.75 38.96 C142.62 32.84, 149.25 22.43, 168.21 0.47 M134.75 38.96 C146.43 24.07, 158.69 11.38, 168.21 0.47 M139.74 39.32 C146.24 30.1, 156.27 18.35, 173.2 0.83 M139.74 39.32 C150.21 27.88, 160.67 15.27, 173.2 0.83 M145.38 38.93 C157.1 25.11, 168.04 15.61, 178.84 0.44 M145.38 38.93 C157.17 25.68, 166.64 14.98, 178.84 0.44 M150.37 39.29 C158.5 32.06, 163.7 21.81, 183.83 0.8 M150.37 39.29 C163.67 24.39, 174.89 11.31, 183.83 0.8 M156.01 38.89 C165.68 29.5, 172.88 19.68, 189.47 0.4 M156.01 38.89 C167.3 26.46, 177.65 12.65, 189.47 0.4 M161 39.25 C173.13 26.91, 182.32 15.21, 194.46 0.76 M161 39.25 C171.75 27.32, 180.52 15.98, 194.46 0.76 M166.64 38.86 C180.8 24.79, 192.35 9.33, 200.1 0.37 M166.64 38.86 C178.53 25.82, 188.63 13.98, 200.1 0.37 M171.63 39.22 C179.81 31.42, 187.41 21.76, 205.09 0.73 M171.63 39.22 C182.5 26.75, 192.64 16.2, 205.09 0.73 M177.27 38.83 C185.04 29.16, 194.05 17.83, 208.11 3.35 M177.27 38.83 C184.11 30.92, 190.97 23.45, 208.11 3.35 M182.26 39.19 C192.61 29.37, 200.02 18.46, 210.47 6.73 M182.26 39.19 C189.27 31.96, 196.57 23.4, 210.47 6.73 M187.25 39.55 C192.51 32.78, 198.28 26.11, 210.87 12.38 M187.25 39.55 C195.49 31.17, 204.24 20.06, 210.87 12.38 M192.89 39.15 C196.97 32.87, 201.64 29.07, 210.6 18.77 M192.89 39.15 C197.97 33.87, 203.69 27.12, 210.6 18.77 M197.88 39.51 C200.64 35.98, 202.58 32.26, 211 24.42 M197.88 39.51 C202.55 33.82, 208.36 27.41, 211 24.42 M203.52 39.12 C205.48 36.08, 208.75 34.21, 209.43 32.32 M203.52 39.12 C204.79 37.57, 206.01 36.17, 209.43 32.32" stroke="#ffec99" stroke-width="0.5" fill="none"></path><path d="M9.25 0 M9.25 0 C69.79 -0.77, 130.43 0.92, 200.75 0 M9.25 0 C85.63 -1.33, 162.43 -0.32, 200.75 0 M200.75 0 C208.73 0.96, 211.86 4.34, 210 9.25 M200.75 0 C208.91 -0.06, 212.29 1.95, 210 9.25 M210 9.25 C210.15 17.83, 211.51 24.6, 210 27.75 M210 9.25 C210.41 13.49, 210.53 18.82, 210 27.75 M210 27.75 C210.18 34.25, 207.84 37.08, 200.75 37 M210 27.75 C211.58 31.83, 208.08 35.25, 200.75 37 M200.75 37 C135.93 40.54, 74.88 37.66, 9.25 37 M200.75 37 C156.66 35.42, 111.19 35.43, 9.25 37 M9.25 37 C1.69 37.83, -0.09 33.69, 0 27.75 M9.25 37 C1.28 36.63, 0.09 32.39, 0 27.75 M0 27.75 C-0.65 23.95, -0.22 20.79, 0 9.25 M0 27.75 C-0.94 21.19, 0.2 14.04, 0 9.25 M0 9.25 C-0.75 4.91, 2.59 -0.05, 9.25 0 M0 9.25 C-1.56 5.06, 3.64 0.12, 9.25 0" stroke="#1e1e1e" stroke-width="1" fill="none"></path></g><g transform="translate(85.72853861851752 274) rotate(0 96.28992462158203 12.5)"><text x="96.28992462158203" y="0" font-family="Virgil, Segoe UI Emoji" font-size="20px" fill="#1e1e1e" text-anchor="middle" style="white-space: pre;" direction="ltr" dominant-baseline="text-before-edge">Already up to date</text></g><g stroke-linecap="round" transform="translate(61.01846324009955 424) rotate(0 149.5 76.5)"><path d="M32 0 M32 0 C102.73 1.97, 173.78 0.95, 267 0 M32 0 C100.53 -1.18, 169.96 -2.51, 267 0 M267 0 C287.49 -0.01, 300.8 11.96, 299 32 M267 0 C288.07 1.21, 300.22 11.35, 299 32 M299 32 C298.02 63.76, 297.1 95.15, 299 121 M299 32 C299.15 58.83, 299.04 87.7, 299 121 M299 121 C300.9 140.61, 288.63 153.85, 267 153 M299 121 C299 140.8, 286.99 151.27, 267 153 M267 153 C200.29 153.16, 134.43 150.32, 32 153 M267 153 C181.17 154.71, 93.34 154.89, 32 153 M32 153 C9.86 151.05, -0.89 143.72, 0 121 M32 153 C11.72 155.19, 0.87 141.53, 0 121 M0 121 C-0.98 86.85, -0.74 57.11, 0 32 M0 121 C-1.37 99.09, -0.51 75.85, 0 32 M0 32 C0.43 8.67, 10.5 -1.36, 32 0 M0 32 C2.1 8.42, 12.24 0.37, 32 0" stroke="#1e1e1e" stroke-width="1" fill="none"></path></g><g transform="translate(79.7185975174433 463) rotate(0 130.79986572265625 37.5)"><text x="130.79986572265625" y="0" font-family="Virgil, Segoe UI Emoji" font-size="20px" fill="#1e1e1e" text-anchor="middle" style="white-space: pre;" direction="ltr" dominant-baseline="text-before-edge">Tee muutoksia projektiisi. </text><text x="130.79986572265625" y="25" font-family="Virgil, Segoe UI Emoji" font-size="20px" fill="#1e1e1e" text-anchor="middle" style="white-space: pre;" direction="ltr" dominant-baseline="text-before-edge">Tee mielellään yksi pieni </text><text x="130.79986572265625" y="50" font-family="Virgil, Segoe UI Emoji" font-size="20px" fill="#1e1e1e" text-anchor="middle" style="white-space: pre;" direction="ltr" dominant-baseline="text-before-edge">kokonaisuus kerrallaan.</text></g><g transform="translate(57.01846324009955 392) rotate(0 150.0498809814453 12.5)"><text x="0" y="0" font-family="Virgil, Segoe UI Emoji" font-size="20px" fill="#1e1e1e" text-anchor="start" style="white-space: pre;" direction="ltr" dominant-baseline="text-before-edge">VS Code, Sublime Text, vim, ....</text></g><g stroke-linecap="round" transform="translate(115.01846324009955 10) rotate(0 82 55)"><path d="M103.75 14 M103.75 14 C114.76 18.89, 123.47 25.99, 143.25 42 M103.75 14 C115.3 21.72, 125.75 29.37, 143.25 42 M143.25 42 C165.24 54.89, 164.62 54.93, 143.25 70 M143.25 42 C163.18 53.89, 162.68 54.04, 143.25 70 M143.25 70 C129.46 76.77, 118.09 85.5, 103.75 96 M143.25 70 C133.01 76.25, 124.71 83.39, 103.75 96 M103.75 96 C84.49 111.75, 84.45 109.8, 62.25 96 M103.75 96 C83.62 112.26, 80.93 109.28, 62.25 96 M62.25 96 C51.99 88.52, 41.02 83.72, 20.75 70 M62.25 96 C49.91 87.75, 35.31 77.93, 20.75 70 M20.75 70 C0.4 57.17, -0.68 54.1, 20.75 42 M20.75 70 C-0.19 57.39, -0.34 54.34, 20.75 42 M20.75 42 C31.29 35.81, 40.57 28.71, 62.25 14 M20.75 42 C31.51 35.01, 42.52 26.67, 62.25 14 M62.25 14 C81.25 -1.03, 81.72 0.7, 103.75 14 M62.25 14 C82.25 -1.93, 83.84 0.34, 103.75 14" stroke="#1e1e1e" stroke-width="1" fill="none"></path></g><g transform="translate(168.66848765416205 52.5) rotate(0 28.3499755859375 12.5)"><text x="28.3499755859375" y="0" font-family="Virgil, Segoe UI Emoji" font-size="20px" fill="#1e1e1e" text-anchor="middle" style="white-space: pre;" direction="ltr" dominant-baseline="text-before-edge">Start</text></g><g stroke-linecap="round"><g transform="translate(202.85435892823068 120.71148089365903) rotate(0 -1.260158613379872 42.368748658654)"><path d="M0.5 0.67 C0.14 14.57, -2.7 69.64, -3.02 83.59 M-0.69 -0.03 C-0.6 14, -0.57 70.47, -0.76 84.77" stroke="#2f9e44" stroke-width="1" fill="none"></path></g><g transform="translate(202.85435892823068 120.71148089365903) rotate(0 -1.260158613379872 42.368748658654)"><path d="M-9.76 55.1 C-9.67 64.16, -6.05 71.33, -2.59 85.94 M-11.71 56.25 C-7.13 65.75, -4.8 75.81, -0.6 84.32" stroke="#2f9e44" stroke-width="1" fill="none"></path></g><g transform="translate(202.85435892823068 120.71148089365903) rotate(0 -1.260158613379872 42.368748658654)"><path d="M10.76 55.21 C6.16 64.33, 5.09 71.48, -2.59 85.94 M8.81 56.36 C6.22 65.84, 1.37 75.87, -0.6 84.32" stroke="#2f9e44" stroke-width="1" fill="none"></path></g></g><mask></mask><g transform="translate(538.9784928421503 350.5) rotate(0 45.03997039794922 12.5)"><text x="0" y="0" font-family="Virgil, Segoe UI Emoji" font-size="20px" fill="#1e1e1e" text-anchor="start" style="white-space: pre;" direction="ltr" dominant-baseline="text-before-edge">Git Bash</text></g><g stroke-linecap="round"><g transform="translate(65.62930393213844 283) rotate(0 -27.349454216633376 75.64459536864422)"><path d="M0.93 -0.08 C-8.29 11.95, -53.3 46.54, -55.54 71.74 C-57.77 96.93, -19.33 137.71, -12.47 151.09 M-0.04 -1.17 C-8.87 11.09, -51.21 47.53, -53.31 73.14 C-55.41 98.74, -19.12 139.64, -12.66 152.46" stroke="#f08c00" stroke-width="1" fill="none"></path></g><g transform="translate(65.62930393213844 283) rotate(0 -27.349454216633376 75.64459536864422)"><path d="M-37.01 133.2 C-30.59 141.36, -23.19 143.13, -10.92 152.25 M-37.86 135.24 C-31.02 138.09, -27.23 142, -12.32 153.15" stroke="#f08c00" stroke-width="1" fill="none"></path></g><g transform="translate(65.62930393213844 283) rotate(0 -27.349454216633376 75.64459536864422)"><path d="M-19.96 121.78 C-18.37 133.27, -15.77 138.25, -10.92 152.25 M-20.81 123.82 C-17.5 129.11, -17.28 135.42, -12.32 153.15" stroke="#f08c00" stroke-width="1" fill="none"></path></g></g><mask></mask><g stroke-linecap="round" transform="translate(530.0184632400995 389) rotate(0 172.5 66)"><path d="M32 0 M32 0 C131.5 1.35, 228.87 -0.59, 313 0 M32 0 C136.04 -1.33, 240.67 -0.57, 313 0 M313 0 C333.57 -1.69, 344.06 10.4, 345 32 M313 0 C332.81 -0.23, 344.15 12.57, 345 32 M345 32 C345.43 50.39, 343.72 70.34, 345 100 M345 32 C344.95 55.77, 344.89 77.84, 345 100 M345 100 C345.33 120.9, 334.64 130.06, 313 132 M345 100 C346.29 123.57, 334.06 134.05, 313 132 M313 132 C226.17 134.5, 138.85 133.86, 32 132 M313 132 C252.32 132.24, 190.1 132.54, 32 132 M32 132 C9.51 132.82, 0.44 120.54, 0 100 M32 132 C11.25 132.99, 0.44 120.48, 0 100 M0 100 C-2.29 71.61, 1.48 46.38, 0 32 M0 100 C-1.42 80.27, 0.29 58.19, 0 32 M0 32 C-1.23 9.88, 12.29 -0.65, 32 0 M0 32 C-1.48 8.66, 10.89 -0.17, 32 0" stroke="#1e1e1e" stroke-width="1" fill="none"></path></g><g transform="translate(535.0184632400995 407) rotate(0 158.203125 48)"><text x="0" y="0" font-family="Cascadia, Segoe UI Emoji" font-size="20px" fill="#1e1e1e" text-anchor="start" style="white-space: pre;" direction="ltr" dominant-baseline="text-before-edge">$ git status</text><text x="0" y="24" font-family="Cascadia, Segoe UI Emoji" font-size="20px" fill="#1e1e1e" text-anchor="start" style="white-space: pre;" direction="ltr" dominant-baseline="text-before-edge">$ git add .</text><text x="0" y="48" font-family="Cascadia, Segoe UI Emoji" font-size="20px" fill="#1e1e1e" text-anchor="start" style="white-space: pre;" direction="ltr" dominant-baseline="text-before-edge">$ git commit -m "Kommentti"</text><text x="0" y="72" font-family="Cascadia, Segoe UI Emoji" font-size="20px" fill="#1e1e1e" text-anchor="start" style="white-space: pre;" direction="ltr" dominant-baseline="text-before-edge">$ git push</text></g><g stroke-linecap="round"><g transform="translate(376.01846324009955 552) rotate(0 72.60871527255512 -11.612567009351324)"><path d="M0.66 0.13 C13.31 2.73, 52.22 20.9, 75.98 14.67 C99.73 8.44, 131.74 -28.32, 143.19 -37.24 M-0.45 -0.84 C12.56 1.49, 53.8 19.29, 78.15 12.9 C102.5 6.51, 134.47 -30.66, 145.67 -39.19" stroke="#f08c00" stroke-width="1" fill="none"></path></g><g transform="translate(376.01846324009955 552) rotate(0 72.60871527255512 -11.612567009351324)"><path d="M132.17 -14.22 C137.47 -22.1, 141.81 -27.78, 144.19 -37.97 M132.56 -12.69 C135.67 -19.74, 139.76 -28.97, 144.84 -39.93" stroke="#f08c00" stroke-width="1" fill="none"></path></g><g transform="translate(376.01846324009955 552) rotate(0 72.60871527255512 -11.612567009351324)"><path d="M118.23 -29.28 C127.68 -32.63, 136.3 -33.69, 144.19 -37.97 M118.62 -27.75 C125.88 -30.38, 134.18 -35.07, 144.84 -39.93" stroke="#f08c00" stroke-width="1" fill="none"></path></g></g><mask></mask><g stroke-linecap="round"><g transform="translate(530.0184632400995 356) rotate(0 -113.43901960327753 -52.30861650077361)"><path d="M-0.14 -1.07 C-12.66 -16.84, -36.93 -76.56, -74.63 -93.84 C-112.33 -111.11, -201.03 -102.92, -226.32 -104.74 M-1.68 0.99 C-14.36 -15.16, -37.87 -77.88, -75.38 -95.35 C-112.89 -112.81, -201.67 -102.36, -226.74 -103.81" stroke="#f08c00" stroke-width="1" fill="none"></path></g><g transform="translate(530.0184632400995 356) rotate(0 -113.43901960327753 -52.30861650077361)"><path d="M-200.56 -114.09 C-206.24 -109.92, -218.88 -106.3, -227.96 -105.15 M-199.15 -114.53 C-206.34 -112.07, -212.74 -109.46, -227.06 -103.33" stroke="#f08c00" stroke-width="1" fill="none"></path></g><g transform="translate(530.0184632400995 356) rotate(0 -113.43901960327753 -52.30861650077361)"><path d="M-200.09 -93.57 C-206.07 -96.36, -218.87 -99.69, -227.96 -105.15 M-198.68 -94.01 C-205.91 -96.97, -212.43 -99.77, -227.06 -103.33" stroke="#f08c00" stroke-width="1" fill="none"></path></g></g><mask></mask><g stroke-linecap="round" transform="translate(530.0184632400995 52) rotate(0 145 72)"><path d="M7.86 8.16 C7.86 8.16, 7.86 8.16, 7.86 8.16 M7.86 8.16 C7.86 8.16, 7.86 8.16, 7.86 8.16 M3.66 19.09 C7.86 11.94, 12.13 7.05, 18.1 2.48 M3.66 19.09 C7.32 13.93, 12.04 8.11, 18.1 2.48 M2.75 26.24 C12.42 18.5, 20.46 9.44, 24.4 1.33 M2.75 26.24 C9.86 19.25, 15.39 11.85, 24.4 1.33 M2.48 32.64 C10.02 21.96, 22.03 9.74, 30.7 0.18 M2.48 32.64 C13.29 20.72, 24.09 7.94, 30.7 0.18 M2.88 38.28 C13.23 23.86, 25.84 12.37, 34.37 2.05 M2.88 38.28 C10.76 30.01, 16.9 22.18, 34.37 2.05 M2.62 44.68 C18.52 27.16, 33.51 10.92, 39.36 2.41 M2.62 44.68 C13.6 31.01, 27.5 15.85, 39.36 2.41 M2.36 51.07 C14.21 34.86, 28.07 22.25, 45 2.02 M2.36 51.07 C11.83 40.19, 20.53 31.37, 45 2.02 M2.75 56.72 C16.38 43.19, 28.28 26.75, 49.99 2.38 M2.75 56.72 C16.78 40.69, 30.69 26.18, 49.99 2.38 M2.49 63.11 C12.91 50.96, 25.77 39.75, 55.63 1.98 M2.49 63.11 C17.56 45.58, 34.69 25.36, 55.63 1.98 M2.88 68.76 C17.28 50.83, 33.58 32.86, 60.62 2.34 M2.88 68.76 C24.46 44.5, 43.37 21.63, 60.62 2.34 M2.62 75.16 C19.38 56.1, 35.24 34.83, 66.26 1.95 M2.62 75.16 C20.75 55.47, 37.14 35.36, 66.26 1.95 M2.36 81.55 C20.54 62.22, 35.62 41.12, 71.25 2.31 M2.36 81.55 C22.53 58.68, 43.29 35.62, 71.25 2.31 M2.76 87.2 C21.5 67.79, 40 45.08, 76.89 1.91 M2.76 87.2 C23.05 65.97, 41.69 43.31, 76.89 1.91 M2.49 93.59 C24.39 66.13, 49.15 36.91, 81.88 2.27 M2.49 93.59 C23.52 72.92, 41.78 48.98, 81.88 2.27 M2.89 99.24 C30.49 63.34, 62.56 32.63, 87.52 1.88 M2.89 99.24 C22.23 79.75, 38.52 58.96, 87.52 1.88 M2.63 105.64 C28.35 74.05, 54.84 46.04, 92.51 2.24 M2.63 105.64 C35.73 66.78, 70.17 26.88, 92.51 2.24 M2.37 112.03 C34.12 75.81, 62.1 44.06, 98.15 1.85 M2.37 112.03 C30.65 77.31, 59.06 44.42, 98.15 1.85 M0.79 119.94 C28.57 85.25, 59.46 54.6, 103.14 2.21 M0.79 119.94 C26.26 88.77, 54.8 57.07, 103.14 2.21 M2.5 124.07 C32.75 89.6, 64.5 54.63, 108.78 1.81 M2.5 124.07 C36.34 86.15, 70.03 46.32, 108.78 1.81 M3.55 128.96 C33.92 90.54, 64.87 54.06, 113.77 2.17 M3.55 128.96 C37.44 90.17, 69.3 51.45, 113.77 2.17 M5.91 132.34 C30.04 104.71, 56.32 76.69, 119.41 1.78 M5.91 132.34 C36.32 98.87, 64.42 64.85, 119.41 1.78 M8.28 135.72 C47.28 86.94, 89.28 39.51, 124.4 2.14 M8.28 135.72 C40.94 99.47, 74.09 61.59, 124.4 2.14 M11.29 138.34 C55.99 83.43, 104.07 32.33, 130.04 1.74 M11.29 138.34 C47.57 93.28, 86.46 49.98, 130.04 1.74 M14.31 140.97 C49.4 99.03, 86.71 59.44, 135.03 2.1 M14.31 140.97 C40.34 110.97, 67.37 80.03, 135.03 2.1 M18.64 142.08 C58.87 95.18, 101.9 47.66, 140.67 1.71 M18.64 142.08 C60.93 93.92, 102.31 47, 140.67 1.71 M22.32 143.95 C57.44 103.76, 96.42 59.24, 145.66 2.07 M22.32 143.95 C66.9 91.83, 109.51 43.65, 145.66 2.07 M26.65 145.07 C73.83 93.14, 118.49 43.1, 150.65 2.43 M26.65 145.07 C66.37 97.97, 107.19 50.28, 150.65 2.43 M32.29 144.67 C75.01 92.75, 120.03 42.63, 156.29 2.03 M32.29 144.67 C70.52 100.71, 109.97 55.16, 156.29 2.03 M37.94 144.28 C78.02 98.64, 119.15 52.08, 161.28 2.39 M37.94 144.28 C81.2 95.52, 125.09 45.46, 161.28 2.39 M42.92 144.64 C76.47 109.58, 107.43 71.8, 166.92 2 M42.92 144.64 C85.51 96.15, 127.89 46.62, 166.92 2 M48.57 144.24 C87.22 100.26, 124.31 55.02, 171.91 2.36 M48.57 144.24 C81.38 107.43, 113.11 71.71, 171.91 2.36 M53.55 144.6 C98.68 94.93, 143.67 46.42, 177.55 1.96 M53.55 144.6 C94.24 99.41, 134.58 51.8, 177.55 1.96 M59.2 144.21 C102.87 91.05, 149.17 40.18, 182.54 2.32 M59.2 144.21 C97.94 98.21, 136.99 52.87, 182.54 2.32 M64.18 144.57 C92.01 115.22, 114.35 88.03, 188.18 1.93 M64.18 144.57 C105.87 98.94, 146.29 51.65, 188.18 1.93 M69.83 144.18 C113.05 97.63, 157.59 47.31, 193.17 2.29 M69.83 144.18 C96.73 114.68, 125.05 82.15, 193.17 2.29 M74.81 144.54 C118.48 97.42, 159.2 49.85, 198.81 1.9 M74.81 144.54 C105.56 109.89, 134 76.54, 198.81 1.9 M80.46 144.14 C114.19 102.44, 148.89 65.3, 203.8 2.26 M80.46 144.14 C112.67 109.79, 142.21 72.03, 203.8 2.26 M85.44 144.5 C118.64 103.34, 154.9 64.38, 209.44 1.86 M85.44 144.5 C128.47 93.02, 173.87 41.64, 209.44 1.86 M91.09 144.11 C138.45 89.17, 189.24 29.78, 214.43 2.22 M91.09 144.11 C132.63 98.37, 173.57 51.83, 214.43 2.22 M96.07 144.47 C140.47 91.85, 187.23 40.86, 220.07 1.83 M96.07 144.47 C123.06 114.92, 147.67 84.27, 220.07 1.83 M101.72 144.07 C136.81 102.81, 172.12 64.52, 225.06 2.19 M101.72 144.07 C147.4 90.99, 191.66 40.83, 225.06 2.19 M106.7 144.43 C143.5 103.6, 177.58 65.64, 230.7 1.79 M106.7 144.43 C146.82 99.72, 183.78 56.84, 230.7 1.79 M111.69 144.79 C157.05 93.62, 201.15 42.57, 235.69 2.15 M111.69 144.79 C149.4 101.42, 186.42 59.51, 235.69 2.15 M117.33 144.4 C157.91 98.37, 194.8 56.44, 241.33 1.76 M117.33 144.4 C167.34 86.34, 217.02 30.9, 241.33 1.76 M122.32 144.76 C168.75 92.57, 213.51 37.39, 246.32 2.12 M122.32 144.76 C157.34 107.19, 191.63 66.68, 246.32 2.12 M127.96 144.36 C167.93 95.65, 210.67 49.49, 251.96 1.72 M127.96 144.36 C157.82 111.38, 187.38 77.91, 251.96 1.72 M132.95 144.72 C173.47 96.04, 214.57 48.03, 258.26 0.57 M132.95 144.72 C164.34 109.59, 195.35 72.39, 258.26 0.57 M138.59 144.33 C166.17 113.96, 195.96 81.71, 263.25 0.93 M138.59 144.33 C184.81 91.74, 231.16 37.45, 263.25 0.93 M143.58 144.69 C192.02 93.53, 238.23 38.12, 267.58 2.05 M143.58 144.69 C192.21 89.56, 239.12 33.82, 267.58 2.05 M149.22 144.29 C175.79 113.65, 202.98 81.69, 271.25 3.92 M149.22 144.29 C173.69 116.75, 198.92 88.46, 271.25 3.92 M154.21 144.65 C182.31 110.06, 214.35 75.44, 275.58 5.03 M154.21 144.65 C189.15 104.94, 223.23 65.47, 275.58 5.03 M159.85 144.26 C206.17 95.89, 249.11 43.87, 279.91 6.15 M159.85 144.26 C195.87 102.71, 231.41 59.79, 279.91 6.15 M164.84 144.62 C198.76 105.78, 233.1 68.2, 282.28 9.53 M164.84 144.62 C202.88 101.6, 241.76 58.49, 282.28 9.53 M170.48 144.22 C201.61 106.37, 235.41 66.1, 285.29 12.15 M170.48 144.22 C201.79 107.27, 232.87 71.81, 285.29 12.15 M175.47 144.58 C198.68 117.98, 221.3 91.24, 288.31 14.77 M175.47 144.58 C212.02 101.13, 247.67 60.64, 288.31 14.77 M181.11 144.19 C204.36 121.06, 226.42 91.94, 289.36 19.66 M181.11 144.19 C217.12 101.63, 254.17 59.63, 289.36 19.66 M186.1 144.55 C222.48 104.15, 255.98 66.28, 290.41 24.55 M186.1 144.55 C216.22 107.54, 248.01 73.26, 290.41 24.55 M191.74 144.16 C224.25 110.65, 255.17 75.82, 290.81 30.19 M191.74 144.16 C222.86 106.22, 256.05 69.93, 290.81 30.19 M196.73 144.52 C229.57 107.65, 262.45 69.82, 292.52 34.33 M196.73 144.52 C224.1 114.06, 251.99 83.21, 292.52 34.33 M202.37 144.12 C237.26 102.83, 273.3 59.27, 292.91 39.97 M202.37 144.12 C225.54 118.69, 247.32 92.08, 292.91 39.97 M207.36 144.48 C232.83 115.2, 257.95 84.75, 292.65 46.37 M207.36 144.48 C233.99 112.77, 260.62 80.44, 292.65 46.37 M213 144.09 C230.07 121.21, 251.76 98.43, 292.39 52.77 M213 144.09 C245.38 108.84, 276.28 71.7, 292.39 52.77 M217.99 144.45 C242.22 118.26, 266.13 89.83, 292.78 58.41 M217.99 144.45 C237.96 122.16, 257.78 98.4, 292.78 58.41 M222.98 144.81 C239.08 127.39, 251.87 114.83, 292.52 64.81 M222.98 144.81 C236.92 127.74, 252.67 112.05, 292.52 64.81 M228.62 144.41 C242.73 128.27, 256.29 111.77, 292.26 71.21 M228.62 144.41 C240.55 128.21, 254.68 114.29, 292.26 71.21 M233.61 144.77 C249.78 127.17, 262.84 113.66, 292.65 76.85 M233.61 144.77 C256.15 118.59, 277.54 92.81, 292.65 76.85 M239.25 144.38 C253.8 125.18, 271.41 110.47, 292.39 83.25 M239.25 144.38 C250.73 131.13, 261.14 119.73, 292.39 83.25 M244.24 144.74 C260.15 130.31, 272.47 113.6, 292.79 88.89 M244.24 144.74 C262.68 123.8, 280.57 102.65, 292.79 88.89 M249.88 144.34 C262.91 129.55, 277.99 111.26, 292.53 95.29 M249.88 144.34 C265.31 126.22, 281.32 107.36, 292.53 95.29 M254.87 144.7 C263.07 131.97, 273.18 120.8, 292.26 101.69 M254.87 144.7 C265.8 129.92, 279.38 117.49, 292.26 101.69 M259.86 145.06 C270.12 130.96, 280.62 120.95, 292.66 107.33 M259.86 145.06 C265.59 137.98, 273.33 129.05, 292.66 107.33 M265.5 144.67 C273.98 135.9, 280.72 127.83, 292.4 113.73 M265.5 144.67 C273.38 134.06, 282.91 125.55, 292.4 113.73 M272.45 142.77 C279.49 133.13, 284.86 127.95, 291.48 120.88 M272.45 142.77 C276.84 138.54, 280.62 132.57, 291.48 120.88" stroke="#99e9f2" stroke-width="0.5" fill="none"></path><path d="M32 0 M32 0 C96.97 0.36, 162.45 1.28, 258 0 M258 0 C279.07 -0.55, 290.62 10.79, 290 32 M290 32 C287.63 55.65, 290 74.66, 290 112 M290 112 C288.6 133.44, 278.45 145.54, 258 144 M258 144 C202.87 142.26, 145.99 142.43, 32 144 M32 144 C10.64 142.66, -0.82 133.47, 0 112 M0 112 C0.36 83.25, 2.02 53.46, 0 32 M0 32 C1.96 10.44, 8.9 -1.53, 32 0" stroke="#1e1e1e" stroke-width="1.5" fill="none" stroke-dasharray="8 9"></path></g><g transform="translate(548.0885621170527 74) rotate(0 126.92990112304688 50)"><text x="126.92990112304688" y="0" font-family="Virgil, Segoe UI Emoji" font-size="20px" fill="#1e1e1e" text-anchor="middle" style="white-space: pre;" direction="ltr" dominant-baseline="text-before-edge">HUOM! Tarkista, että </text><text x="126.92990112304688" y="25" font-family="Virgil, Segoe UI Emoji" font-size="20px" fill="#1e1e1e" text-anchor="middle" style="white-space: pre;" direction="ltr" dominant-baseline="text-before-edge">status sisältää vain </text><text x="126.92990112304688" y="50" font-family="Virgil, Segoe UI Emoji" font-size="20px" fill="#1e1e1e" text-anchor="middle" style="white-space: pre;" direction="ltr" dominant-baseline="text-before-edge">tiedostoja, jotka haluat </text><text x="126.92990112304688" y="75" font-family="Virgil, Segoe UI Emoji" font-size="20px" fill="#1e1e1e" text-anchor="middle" style="white-space: pre;" direction="ltr" dominant-baseline="text-before-edge">gittiin.</text></g><g stroke-linecap="round"><g transform="translate(653.0184632400995 414) rotate(0 52.967615335090045 -107.53299917280674)"><path d="M-0.07 0.32 C16.34 -16.27, 80.48 -62.74, 97.42 -98.69 C114.36 -134.64, 100.88 -196.18, 101.58 -215.39" stroke="#1971c2" stroke-width="1.5" fill="none" stroke-dasharray="8 9"></path></g></g><mask></mask><g stroke-linecap="round" transform="translate(817.0184632400995 227) rotate(0 101.5 55)"><path d="M3.59 11.07 C3.59 11.07, 3.59 11.07, 3.59 11.07 M3.59 11.07 C3.59 11.07, 3.59 11.07, 3.59 11.07 M0.7 20.48 C3.07 14.33, 10.4 10.88, 16.44 2.37 M0.7 20.48 C5.98 14.52, 13.06 7.27, 16.44 2.37 M3.06 23.86 C10.63 18.33, 15.07 7.03, 22.09 1.98 M3.06 23.86 C8.3 18.63, 11.62 12.16, 22.09 1.98 M3.46 29.51 C13.85 19.12, 22.85 10.01, 28.39 0.83 M3.46 29.51 C9.75 23, 17.13 15.78, 28.39 0.83 M3.2 35.9 C14.84 25.77, 22.44 10.6, 34.03 0.43 M3.2 35.9 C15.2 23.68, 25.63 10.88, 34.03 0.43 M3.59 41.55 C15.79 29.36, 23.28 16.97, 39.02 0.79 M3.59 41.55 C13.27 29.33, 25.59 17.26, 39.02 0.79 M3.33 47.94 C14.97 37.91, 24.16 24.8, 44 1.15 M3.33 47.94 C14 33.23, 27.27 21.01, 44 1.15 M3.07 54.34 C20.48 32.22, 39.42 11.49, 49.65 0.76 M3.07 54.34 C15.04 40.85, 26.82 27.28, 49.65 0.76 M3.46 59.98 C21.94 37.02, 44.31 14.66, 54.63 1.12 M3.46 59.98 C18.19 43.33, 34.36 26.2, 54.63 1.12 M3.2 66.38 C24.93 44.07, 43.16 22.85, 60.28 0.72 M3.2 66.38 C15.3 52.2, 27.34 38.8, 60.28 0.72 M3.59 72.03 C18.68 53.97, 38.02 36.26, 65.26 1.08 M3.59 72.03 C25.72 46.15, 46.28 21.92, 65.26 1.08 M3.33 78.42 C23.9 56.87, 40.36 37.34, 70.91 0.69 M3.33 78.42 C22.79 55.7, 42.69 33.22, 70.91 0.69 M3.07 84.82 C19.86 67.27, 34.76 48.98, 75.89 1.05 M3.07 84.82 C21.94 63.58, 41.17 40.14, 75.89 1.05 M2.81 91.22 C29.97 61.06, 52.7 32.79, 81.54 0.65 M2.81 91.22 C30.04 59.54, 57.94 25.95, 81.54 0.65 M4.52 95.35 C36.28 60.15, 69.51 23.9, 86.52 1.01 M4.52 95.35 C24.43 73.81, 42.01 53.18, 86.52 1.01 M5.57 100.24 C28.02 79.24, 48.16 53.73, 92.17 0.62 M5.57 100.24 C31.56 70.82, 58.77 39.72, 92.17 0.62 M7.93 103.62 C38.57 69.18, 64.84 36.93, 97.15 0.98 M7.93 103.62 C43.69 62.63, 79.27 23.36, 97.15 0.98 M10.95 106.24 C43.01 69.04, 77.28 29.61, 102.8 0.58 M10.95 106.24 C48.49 64.58, 83.71 21.92, 102.8 0.58 M15.28 107.36 C49.56 68.63, 83.65 27.92, 107.78 0.94 M15.28 107.36 C45.98 72.32, 75.79 37.25, 107.78 0.94 M18.96 109.23 C45.98 78.07, 72.07 50.82, 113.43 0.55 M18.96 109.23 C44.56 78.39, 70.5 49.81, 113.43 0.55 M22.63 111.1 C54.84 74.54, 88.04 37.2, 118.41 0.91 M22.63 111.1 C58.5 70.49, 93.85 27.58, 118.41 0.91 M28.27 110.7 C63.79 69.21, 98.17 30.09, 124.06 0.52 M28.27 110.7 C65.51 68.02, 103.57 25.26, 124.06 0.52 M33.92 110.31 C72.25 69.99, 107.28 28, 129.04 0.88 M33.92 110.31 C58.25 80.72, 85.43 49.95, 129.04 0.88 M38.9 110.67 C58.9 86.79, 78.75 62.8, 134.69 0.48 M38.9 110.67 C73.13 69.62, 106.85 30.64, 134.69 0.48 M43.89 111.03 C75.1 72.82, 108.78 40.56, 139.68 0.84 M43.89 111.03 C75.7 73.34, 106.74 37.11, 139.68 0.84 M49.53 110.63 C72.07 85.31, 97.17 56.96, 145.32 0.45 M49.53 110.63 C69.46 88.25, 89.48 66.59, 145.32 0.45 M54.52 110.99 C90.79 68.44, 126.84 28.47, 150.31 0.81 M54.52 110.99 C79.76 80.52, 105.55 51.62, 150.31 0.81 M60.16 110.6 C86.26 83.42, 110.12 54.07, 155.29 1.17 M60.16 110.6 C89.97 75.61, 120.62 40.42, 155.29 1.17 M65.15 110.96 C99.49 69.07, 136.41 29.6, 160.94 0.77 M65.15 110.96 C99.43 69.86, 136.77 27.93, 160.94 0.77 M70.79 110.57 C101.17 73.68, 131.9 41.56, 165.92 1.13 M70.79 110.57 C97.34 77.97, 125.44 46.74, 165.92 1.13 M75.78 110.93 C108.62 74.99, 139.79 38.79, 171.57 0.74 M75.78 110.93 C108.15 75.91, 140.87 39.13, 171.57 0.74 M81.42 110.53 C104.6 85.83, 126.59 57.15, 176.55 1.1 M81.42 110.53 C109.64 75.8, 140.08 42.45, 176.55 1.1 M86.41 110.89 C117.85 77.42, 144.75 40.42, 182.2 0.7 M86.41 110.89 C107.64 88.54, 127.72 64.9, 182.2 0.7 M92.05 110.5 C120.5 78.95, 149.62 46.77, 186.53 1.82 M92.05 110.5 C122.6 74.83, 154.07 39.05, 186.53 1.82 M97.04 110.86 C135.72 69.41, 172.05 28.54, 190.2 3.69 M97.04 110.86 C121.45 83.6, 146.3 55.09, 190.2 3.69 M102.68 110.46 C133.82 73.1, 167.93 36.47, 193.88 5.56 M102.68 110.46 C128.35 78.63, 155.82 47.58, 193.88 5.56 M107.67 110.82 C131.3 83.99, 152.47 60.91, 196.89 8.18 M107.67 110.82 C138.06 76.05, 169.49 41.49, 196.89 8.18 M113.31 110.43 C140.41 80.79, 166.42 53.2, 199.91 10.81 M113.31 110.43 C145.62 75.49, 176.5 38.94, 199.91 10.81 M118.3 110.79 C147.53 75.65, 176.06 44.28, 200.96 15.69 M118.3 110.79 C139.96 84.8, 164.21 57.87, 200.96 15.69 M123.94 110.39 C140.93 91.43, 157.97 70.81, 202.67 19.83 M123.94 110.39 C141.68 89.24, 160.77 66.19, 202.67 19.83 M128.93 110.75 C143.08 93.45, 158.7 74.82, 205.03 23.21 M128.93 110.75 C152.59 85.75, 175.58 58.36, 205.03 23.21 M134.57 110.36 C150.52 90.94, 165.94 71.61, 204.77 29.6 M134.57 110.36 C151.27 89.61, 170.13 69.19, 204.77 29.6 M139.56 110.72 C161.58 84.66, 186.32 61.58, 205.17 35.25 M139.56 110.72 C165.44 80.19, 189.99 50.78, 205.17 35.25 M145.2 110.32 C162.16 92.51, 174.97 76.26, 204.91 41.65 M145.2 110.32 C163.8 89.53, 181.61 67.74, 204.91 41.65 M150.19 110.68 C166.54 93.27, 180.28 77.73, 205.3 47.29 M150.19 110.68 C170.34 87.11, 191.86 62.43, 205.3 47.29 M155.18 111.04 C166.98 98.91, 176.31 85.88, 205.04 53.69 M155.18 111.04 C168.35 95.25, 181.84 80.4, 205.04 53.69 M160.82 110.65 C173.71 92.83, 188.9 75.02, 205.43 59.33 M160.82 110.65 C171.59 99.73, 179.95 88.62, 205.43 59.33 M165.81 111.01 C176.45 99.46, 187.76 88.36, 205.17 65.73 M165.81 111.01 C175.49 99.14, 183.84 89.35, 205.17 65.73 M171.45 110.62 C180.73 97.18, 192.12 88.91, 205.57 71.37 M171.45 110.62 C181.28 99.91, 190.73 87.29, 205.57 71.37 M176.44 110.98 C186.04 97.51, 196.08 86.33, 205.31 77.77 M176.44 110.98 C182.84 101.26, 190.76 93.82, 205.31 77.77 M182.74 109.83 C189.79 103.08, 198.19 95.07, 205.04 84.17 M182.74 109.83 C191.53 100.98, 198.27 90.85, 205.04 84.17 M188.38 109.43 C191.51 102.83, 197.98 99.56, 204.78 90.56 M188.38 109.43 C191.18 105.25, 195.67 100.91, 204.78 90.56" stroke="#99e9f2" stroke-width="0.5" fill="none"></path><path d="M27.5 0 M27.5 0 C79.21 1.79, 132.14 1.96, 175.5 0 M175.5 0 C194.9 0.69, 204.56 8.59, 203 27.5 M203 27.5 C204.72 45.16, 202.07 64.38, 203 82.5 M203 82.5 C201.68 100.39, 195.55 110.23, 175.5 110 M175.5 110 C133.85 109.13, 94.89 109.07, 27.5 110 M27.5 110 C7.24 111.88, -1.06 102.11, 0 82.5 M0 82.5 C-0.28 69.9, -0.27 58.5, 0 27.5 M0 27.5 C0.71 9.93, 9.2 -0.61, 27.5 0" stroke="#1e1e1e" stroke-width="1.5" fill="none" stroke-dasharray="8 9"></path></g><g transform="translate(825.2985306839472 232) rotate(0 93.21993255615234 50)"><text x="93.21993255615234" y="0" font-family="Virgil, Segoe UI Emoji" font-size="20px" fill="#1e1e1e" text-anchor="middle" style="white-space: pre;" direction="ltr" dominant-baseline="text-before-edge">HUOM! Käytä </text><text x="93.21993255615234" y="25" font-family="Virgil, Segoe UI Emoji" font-size="20px" fill="#1e1e1e" text-anchor="middle" style="white-space: pre;" direction="ltr" dominant-baseline="text-before-edge">kommenttia, joka </text><text x="93.21993255615234" y="50" font-family="Virgil, Segoe UI Emoji" font-size="20px" fill="#1e1e1e" text-anchor="middle" style="white-space: pre;" direction="ltr" dominant-baseline="text-before-edge">kuvastaa tehtyjä </text><text x="93.21993255615234" y="75" font-family="Virgil, Segoe UI Emoji" font-size="20px" fill="#1e1e1e" text-anchor="middle" style="white-space: pre;" direction="ltr" dominant-baseline="text-before-edge">muutoksia.</text></g><g stroke-linecap="round"><g transform="translate(929.0184632400995 344) rotate(0 -70.94017700254926 54.51590994894505)"><path d="M-0.88 1.16 C-10.99 11.2, -36.11 43.16, -59.46 60.94 C-82.81 78.73, -127.11 100.1, -141 107.87" stroke="#1971c2" stroke-width="1.5" fill="none" stroke-dasharray="8 9"></path></g></g><mask></mask></svg>