<svg version="1.1" xmlns="http://www.w3.org/2000/svg" viewBox="0 0 1318.9668061493762 432.6879055885686" width="1318.9668061493762" height="432.6879055885686">
  <!-- svg-source:excalidraw -->
  
  <defs>
    <style class="style-fonts">
      @font-face {
        font-family: "Virgil";
        src: url("https://excalidraw.com/Virgil.woff2");
      }
      @font-face {
        font-family: "Cascadia";
        src: url("https://excalidraw.com/Cascadia.woff2");
      }
    </style>
    
  </defs>
  <rect x="0" y="0" width="1318.9668061493762" height="432.6879055885686" fill="#ffffff"></rect><g stroke-linecap="round" transform="translate(226.94374922177184 238.88567551813694) rotate(0 145.57794928551976 88.06212893522559)"><path d="M32 0 M32 0 C113.33 -1.62, 192.85 0.66, 259.16 0 M32 0 C82.32 0.99, 132.42 2.47, 259.16 0 M259.16 0 C282.46 1.99, 292.93 12.22, 291.16 32 M259.16 0 C282.74 1.28, 290.46 9.07, 291.16 32 M291.16 32 C292.71 76.1, 291.97 117.3, 291.16 144.12 M291.16 32 C289.78 75.85, 289.67 118.5, 291.16 144.12 M291.16 144.12 C289.86 165, 281.61 177.82, 259.16 176.12 M291.16 144.12 C292.65 163.43, 279.78 175.2, 259.16 176.12 M259.16 176.12 C173.99 177.97, 86.43 176.88, 32 176.12 M259.16 176.12 C176.04 175.4, 91.53 175.95, 32 176.12 M32 176.12 C11.48 177.27, 1.34 166.94, 0 144.12 M32 176.12 C10.4 177.23, -0.85 167.72, 0 144.12 M0 144.12 C0.6 106.85, -0.12 71.55, 0 32 M0 144.12 C-1.75 106.41, -0.31 70.02, 0 32 M0 32 C1.15 12.48, 10.53 -0.27, 32 0 M0 32 C0.71 9.12, 12.24 1.81, 32 0" stroke="#1e1e1e" stroke-width="1" fill="none"></path></g><g stroke-linecap="round"><g transform="translate(321.99278799205615 236.54192225575142) rotate(0 4.418106686433134 -14.62380619392735)"><path d="M-0.86 -1.06 C0.86 -6.06, 8.18 -25.29, 9.7 -30.24 M0.89 0.99 C2.59 -3.82, 8.23 -23.83, 9.3 -29" stroke="#1e1e1e" stroke-width="1" fill="none"></path></g></g><mask></mask><g stroke-linecap="round"><g transform="translate(331.47258601087304 206.86603280554212) rotate(0 38.37287590217289 0.17940530780552422)"><path d="M-0.68 -0.89 C12.25 -0.57, 64.69 1.14, 77.43 1.19 M1.16 1.25 C14.01 1.34, 64.04 -0.16, 76.88 -0.3" stroke="#1e1e1e" stroke-width="1" fill="none"></path></g></g><mask></mask><g stroke-linecap="round"><g transform="translate(408.54746555516664 207.6903630680479) rotate(0 5.8015569181359155 15.012280844501277)"><path d="M0.87 0.11 C2.36 5.22, 7.77 24.6, 9.61 29.47 M-0.14 -0.87 C1.66 4.52, 9.76 25.67, 11.74 30.9" stroke="#1e1e1e" stroke-width="1" fill="none"></path></g></g><mask></mask><g transform="translate(279.25099598755935 273.4314213276017) rotate(0 65.71992492675781 12.5)"><text x="0" y="0" font-family="Virgil, Segoe UI Emoji" font-size="20px" fill="#1e1e1e" text-anchor="start" style="white-space: pre;" direction="ltr" dominant-baseline="text-before-edge">symmet-o-lock</text></g><g stroke-linecap="round" transform="translate(810.4846158266046 246.56364771811738) rotate(0 145.57794928551976 88.06212893522559)"><path d="M32 0 M32 0 C110.07 1.29, 189.29 1, 259.16 0 M32 0 C122.44 -0.84, 211.8 -1.04, 259.16 0 M259.16 0 C279.97 -1.61, 289.66 11.49, 291.16 32 M259.16 0 C278.38 2.25, 289.8 10.45, 291.16 32 M291.16 32 C292.11 57.12, 289.65 85.37, 291.16 144.12 M291.16 32 C289.76 64.96, 290.26 98.7, 291.16 144.12 M291.16 144.12 C290.2 167.23, 281.92 175.91, 259.16 176.12 M291.16 144.12 C289.99 166.92, 280.11 175.27, 259.16 176.12 M259.16 176.12 C214.74 177.4, 168.99 178.87, 32 176.12 M259.16 176.12 C191.7 175.12, 123.7 175.96, 32 176.12 M32 176.12 C11.1 174.15, -0.17 164.04, 0 144.12 M32 176.12 C12.73 175.4, -2.15 165.71, 0 144.12 M0 144.12 C1.08 109.34, -0.61 75.78, 0 32 M0 144.12 C0.77 104.65, 1.27 65.26, 0 32 M0 32 C-1.31 9.49, 10.7 -0.8, 32 0 M0 32 C-1.21 12.8, 9.92 1.29, 32 0" stroke="#1e1e1e" stroke-width="1" fill="none"></path></g><g stroke-linecap="round"><g transform="translate(905.5336545968889 244.21989445573186) rotate(0 3.6945055460020058 -14.979329796084244)"><path d="M-0.17 -0.04 C1.52 -4.89, 7.45 -24.82, 9.11 -29.92 M-1.72 -1.11 C-0.05 -5.7, 6.51 -23.72, 8.4 -28.51" stroke="#1e1e1e" stroke-width="1" fill="none"></path></g></g><mask></mask><g stroke-linecap="round"><g transform="translate(915.0134526157058 214.54400500552256) rotate(0 37.449768431884934 0.38554984176064977)"><path d="M-0.04 0.46 C12.84 0.68, 63.8 1.07, 76.42 1.15 M-1.52 -0.35 C11.25 -0.42, 62.08 -0.27, 75.35 -0.37" stroke="#1e1e1e" stroke-width="1" fill="none"></path></g></g><mask></mask><g stroke-linecap="round"><g transform="translate(992.0883321599995 215.36833526802835) rotate(0 5.549638886166804 14.161855223230162)"><path d="M0.46 -0.24 C2.46 4.55, 10 23.58, 11.86 28.71 M-0.76 -1.42 C1.2 3.5, 9.5 24.73, 11.52 29.74" stroke="#1e1e1e" stroke-width="1" fill="none"></path></g></g><mask></mask><g transform="translate(862.7918625923921 281.10939352758214) rotate(0 65.71992492675781 12.5)"><text x="0" y="0" font-family="Virgil, Segoe UI Emoji" font-size="20px" fill="#1e1e1e" text-anchor="start" style="white-space: pre;" direction="ltr" dominant-baseline="text-before-edge">symmet-o-lock</text></g><g stroke-linecap="round" transform="translate(281.8189209386508 309.53478429665813) rotate(0 17.504997790482122 25.741185176504473)"><path d="M8.75 0 M8.75 0 C14.27 -1.68, 21.22 -1.82, 26.26 0 M8.75 0 C12.02 -0.77, 16.88 0.01, 26.26 0 M26.26 0 C31.95 -0.64, 34.58 1.86, 35.01 8.75 M26.26 0 C30.18 0.13, 33.75 3.51, 35.01 8.75 M35.01 8.75 C36.65 21.43, 34.02 35.73, 35.01 42.73 M35.01 8.75 C35.44 19.54, 35.94 30.05, 35.01 42.73 M35.01 42.73 C35.23 48.86, 32.69 50.08, 26.26 51.48 M35.01 42.73 C35.81 47.56, 30.76 49.81, 26.26 51.48 M26.26 51.48 C21.98 52.4, 15.04 51.21, 8.75 51.48 M26.26 51.48 C19.6 51.42, 13.26 52.12, 8.75 51.48 M8.75 51.48 C4.59 53.15, -0.25 48.82, 0 42.73 M8.75 51.48 C1.83 53.46, 2.06 50.29, 0 42.73 M0 42.73 C-1.58 29.64, 0.2 19.2, 0 8.75 M0 42.73 C0.3 31.29, -1.08 17.37, 0 8.75 M0 8.75 C0.39 2.91, 3.38 -1.21, 8.75 0 M0 8.75 C-1.25 1.04, 0.65 0.79, 8.75 0" stroke="#1e1e1e" stroke-width="1" fill="none"></path></g><g transform="translate(294.16392269641807 322.7759694731626) rotate(0 5.159996032714844 12.5)"><text x="5.159996032714844" y="0" font-family="Virgil, Segoe UI Emoji" font-size="20px" fill="#1e1e1e" text-anchor="middle" style="white-space: pre;" direction="ltr" dominant-baseline="text-before-edge">*</text></g><g stroke-linecap="round" transform="translate(322.81070698525497 308.6339318621915) rotate(0 19.156230829026583 26.93844960331859)"><path d="M9.58 0 M9.58 0 C12.87 -1.31, 18.33 -1.03, 28.73 0 M9.58 0 C16.52 -0.32, 24.99 -0.45, 28.73 0 M28.73 0 C35.74 -0.52, 38.04 2.89, 38.31 9.58 M28.73 0 C36.66 1.92, 40.23 2.9, 38.31 9.58 M38.31 9.58 C39.94 21.93, 39.61 30.89, 38.31 44.3 M38.31 9.58 C38.09 22.81, 38.62 34.73, 38.31 44.3 M38.31 44.3 C39.59 51.63, 36.64 52.07, 28.73 53.88 M38.31 44.3 C36.12 51.13, 35.11 54.41, 28.73 53.88 M28.73 53.88 C22.26 54.38, 19.72 53.27, 9.58 53.88 M28.73 53.88 C20.87 54.05, 13.01 54.79, 9.58 53.88 M9.58 53.88 C2.61 55.54, -0.23 52.49, 0 44.3 M9.58 53.88 C4.97 53.82, -2 50.54, 0 44.3 M0 44.3 C-0.28 30.78, -1.98 20.54, 0 9.58 M0 44.3 C-0.4 34.9, 0.26 25.83, 0 9.58 M0 9.58 C1.72 1.27, 2.44 1.28, 9.58 0 M0 9.58 C-0.25 3.35, 4.51 1.78, 9.58 0" stroke="#1e1e1e" stroke-width="1" fill="none"></path></g><g transform="translate(336.8069417815666 323.07238146551003) rotate(0 5.159996032714844 12.5)"><text x="5.159996032714844" y="0" font-family="Virgil, Segoe UI Emoji" font-size="20px" fill="#1e1e1e" text-anchor="middle" style="white-space: pre;" direction="ltr" dominant-baseline="text-before-edge">*</text></g><g stroke-linecap="round" transform="translate(369.3133049008711 309.53478429665813) rotate(0 18.510558213226062 26.339817389911502)"><path d="M9.26 0 M9.26 0 C14.63 -0.49, 23.18 1.57, 27.77 0 M9.26 0 C16.34 0.58, 21.71 -1, 27.77 0 M27.77 0 C34.32 -0.01, 37.48 1.87, 37.02 9.26 M27.77 0 C32.68 -1.88, 34.75 3.88, 37.02 9.26 M37.02 9.26 C35.19 20.44, 36.44 30.55, 37.02 43.42 M37.02 9.26 C38.16 17.75, 38.23 27.25, 37.02 43.42 M37.02 43.42 C36.97 47.85, 33.81 53.94, 27.77 52.68 M37.02 43.42 C38.96 51.27, 33.95 51.63, 27.77 52.68 M27.77 52.68 C24.39 50.91, 19.25 51.58, 9.26 52.68 M27.77 52.68 C20.63 52.49, 15.85 52.74, 9.26 52.68 M9.26 52.68 C3.22 53.83, 1.55 47.79, 0 43.42 M9.26 52.68 C4.77 53.37, -1 48.03, 0 43.42 M0 43.42 C-0.19 34.2, -1.79 27.05, 0 9.26 M0 43.42 C-0.15 35.49, -0.68 29.46, 0 9.26 M0 9.26 C1.65 1.36, 3.31 -1.21, 9.26 0 M0 9.26 C2.06 5.2, 1.3 -0.61, 9.26 0" stroke="#1e1e1e" stroke-width="1" fill="none"></path></g><g transform="translate(382.66386708138236 323.3746016865697) rotate(0 5.159996032714844 12.5)"><text x="5.159996032714844" y="0" font-family="Virgil, Segoe UI Emoji" font-size="20px" fill="#1e1e1e" text-anchor="middle" style="white-space: pre;" direction="ltr" dominant-baseline="text-before-edge">*</text></g><g stroke-linecap="round" transform="translate(412.50890507096756 308.815008682771) rotate(0 19.250311633813226 27.537081816725674)"><path d="M9.63 0 M9.63 0 C16.62 -1.02, 21.98 1.26, 28.88 0 M9.63 0 C14.26 -0.35, 19.8 -0.56, 28.88 0 M28.88 0 C37.02 -1.92, 37.74 4.48, 38.5 9.63 M28.88 0 C35.05 0.16, 39.82 4.99, 38.5 9.63 M38.5 9.63 C37.89 15.77, 38.1 25.52, 38.5 45.45 M38.5 9.63 C37.67 18.99, 37.54 25.57, 38.5 45.45 M38.5 45.45 C37.05 50.94, 33.43 53.08, 28.88 55.07 M38.5 45.45 C38.63 53.76, 33.31 55.34, 28.88 55.07 M28.88 55.07 C22.78 54.74, 20.24 56.48, 9.63 55.07 M28.88 55.07 C23 55.97, 18.9 54.53, 9.63 55.07 M9.63 55.07 C2.43 53.77, -0.64 52.72, 0 45.45 M9.63 55.07 C3.49 53.77, -0.61 50.23, 0 45.45 M0 45.45 C1.41 37.09, -1.94 31.73, 0 9.63 M0 45.45 C0.03 35.41, 0.32 23.5, 0 9.63 M0 9.63 C-0.78 4.14, 4.94 -1.17, 9.63 0 M0 9.63 C-0.45 3.9, 5.49 -0.06, 9.63 0" stroke="#1e1e1e" stroke-width="1" fill="none"></path></g><g transform="translate(426.59922067206594 323.85209049949674) rotate(0 5.159996032714844 12.5)"><text x="5.159996032714844" y="0" font-family="Virgil, Segoe UI Emoji" font-size="20px" fill="#1e1e1e" text-anchor="middle" style="white-space: pre;" direction="ltr" dominant-baseline="text-before-edge">*</text></g><g stroke-linecap="round" transform="translate(274.20279618046214 301.47697581147463) rotate(0 93.39169643129691 33.935120925486274)"><path d="M16.97 0 M16.97 0 C49.44 0.6, 84.26 -1.3, 169.82 0 M16.97 0 C54.94 -0.65, 92.79 -0.33, 169.82 0 M169.82 0 C182.91 1.53, 184.87 4.85, 186.78 16.97 M169.82 0 C178.89 -0.98, 185.52 4.97, 186.78 16.97 M186.78 16.97 C186.5 26.45, 186.74 36.08, 186.78 50.9 M186.78 16.97 C186.06 26.87, 186.9 37.79, 186.78 50.9 M186.78 50.9 C185.92 62.3, 182.1 67.75, 169.82 67.87 M186.78 50.9 C187.1 63.42, 181.87 70.05, 169.82 67.87 M169.82 67.87 C119.42 66.71, 71.21 68.99, 16.97 67.87 M169.82 67.87 C137.2 66.8, 106.88 67.43, 16.97 67.87 M16.97 67.87 C6.41 66.02, 1.19 63.68, 0 50.9 M16.97 67.87 C5.7 66.74, -0.61 63.51, 0 50.9 M0 50.9 C-0.08 36.63, 1.57 24.85, 0 16.97 M0 50.9 C-0.98 38.3, 0.46 24.77, 0 16.97 M0 16.97 C-0.85 4.19, 4.96 0.35, 16.97 0 M0 16.97 C0.77 5.97, 5.97 0.46, 16.97 0" stroke="#1e1e1e" stroke-width="1" fill="none"></path></g><g stroke-linecap="round" transform="translate(865.3597875434837 317.2127564966386) rotate(0 17.504997790482093 25.741185176504473)"><path d="M8.75 0 M8.75 0 C14.96 1.37, 19.81 0.39, 26.26 0 M8.75 0 C14.2 0.5, 20.16 1, 26.26 0 M26.26 0 C30.91 -0.19, 33.66 1.38, 35.01 8.75 M26.26 0 C31.96 2.09, 33.9 2.18, 35.01 8.75 M35.01 8.75 C36.21 20.14, 35.09 33.36, 35.01 42.73 M35.01 8.75 C35.56 21.82, 34.34 35.74, 35.01 42.73 M35.01 42.73 C34.68 47.82, 30.1 51.59, 26.26 51.48 M35.01 42.73 C36.53 50.01, 32.09 52.56, 26.26 51.48 M26.26 51.48 C19.08 52.56, 11.66 52.36, 8.75 51.48 M26.26 51.48 C20.3 50.69, 15.28 51.04, 8.75 51.48 M8.75 51.48 C1.05 51.7, -0.04 50.07, 0 42.73 M8.75 51.48 C2.89 53.69, -1.54 48.84, 0 42.73 M0 42.73 C0.35 34.83, -0.04 28.12, 0 8.75 M0 42.73 C0.24 31.38, -0.3 21.75, 0 8.75 M0 8.75 C-0.65 4.04, 4.14 -0.86, 8.75 0 M0 8.75 C-1.33 2.51, 1.82 1.93, 8.75 0" stroke="#1e1e1e" stroke-width="1" fill="none"></path></g><g transform="translate(877.7047893012509 330.45394167314305) rotate(0 5.159996032714844 12.5)"><text x="5.159996032714844" y="0" font-family="Virgil, Segoe UI Emoji" font-size="20px" fill="#1e1e1e" text-anchor="middle" style="white-space: pre;" direction="ltr" dominant-baseline="text-before-edge">*</text></g><g stroke-linecap="round" transform="translate(906.3515735900878 316.31190406217195) rotate(0 19.156230829026583 26.93844960331859)"><path d="M9.58 0 M9.58 0 C15.17 0.14, 18.92 -0.63, 28.73 0 M9.58 0 C12.91 0.86, 17.43 -0.17, 28.73 0 M28.73 0 C33.77 -1.54, 38.19 5.01, 38.31 9.58 M28.73 0 C34.01 -0.74, 39.69 3.04, 38.31 9.58 M38.31 9.58 C38.62 17.12, 40.28 23.4, 38.31 44.3 M38.31 9.58 C38.05 23.7, 38.4 36.18, 38.31 44.3 M38.31 44.3 C36.32 50.8, 36.44 55.13, 28.73 53.88 M38.31 44.3 C38.31 51.76, 37.09 53.85, 28.73 53.88 M28.73 53.88 C20.14 54.77, 14.63 54.39, 9.58 53.88 M28.73 53.88 C25.74 53.44, 20.13 53.85, 9.58 53.88 M9.58 53.88 C3.16 55.38, -0.02 52.6, 0 44.3 M9.58 53.88 C1.65 54.15, -1.69 51.9, 0 44.3 M0 44.3 C0.05 37.37, 0.36 27.53, 0 9.58 M0 44.3 C-0.53 36.86, -0.33 28.11, 0 9.58 M0 9.58 C1.23 2.33, 2.04 -0.36, 9.58 0 M0 9.58 C-1.1 5.12, 2.58 1.56, 9.58 0" stroke="#1e1e1e" stroke-width="1" fill="none"></path></g><g transform="translate(920.3478083863993 330.7503536654905) rotate(0 5.159996032714844 12.5)"><text x="5.159996032714844" y="0" font-family="Virgil, Segoe UI Emoji" font-size="20px" fill="#1e1e1e" text-anchor="middle" style="white-space: pre;" direction="ltr" dominant-baseline="text-before-edge">*</text></g><g stroke-linecap="round" transform="translate(952.854171505704 317.2127564966386) rotate(0 18.510558213226034 26.339817389911502)"><path d="M9.26 0 M9.26 0 C17.01 -0.51, 21.47 -1.41, 27.77 0 M9.26 0 C15.03 -0.27, 21.26 -0.89, 27.77 0 M27.77 0 C33.82 1.82, 36.05 2.44, 37.02 9.26 M27.77 0 C35.31 -0.15, 35.02 4.49, 37.02 9.26 M37.02 9.26 C38.79 17.12, 38.81 28.32, 37.02 43.42 M37.02 9.26 C36.68 18.77, 35.85 29.07, 37.02 43.42 M37.02 43.42 C38.34 50.85, 33.93 53.62, 27.77 52.68 M37.02 43.42 C38.99 49.57, 35.92 52.12, 27.77 52.68 M27.77 52.68 C21.9 53.16, 12.87 52.6, 9.26 52.68 M27.77 52.68 C22.66 52.72, 19.28 53.32, 9.26 52.68 M9.26 52.68 C3.07 54.6, -1.34 49.83, 0 43.42 M9.26 52.68 C1.4 53.89, -1.78 50.2, 0 43.42 M0 43.42 C0.43 32.19, -1.2 23.62, 0 9.26 M0 43.42 C-0.14 35.09, 0.79 25.21, 0 9.26 M0 9.26 C-1.15 2.73, 2.13 1.68, 9.26 0 M0 9.26 C-0.62 4.65, 1.7 1.86, 9.26 0" stroke="#1e1e1e" stroke-width="1" fill="none"></path></g><g transform="translate(966.2047336862151 331.05257388655014) rotate(0 5.159996032714844 12.5)"><text x="5.159996032714844" y="0" font-family="Virgil, Segoe UI Emoji" font-size="20px" fill="#1e1e1e" text-anchor="middle" style="white-space: pre;" direction="ltr" dominant-baseline="text-before-edge">*</text></g><g stroke-linecap="round" transform="translate(996.0497716758005 316.49298088275145) rotate(0 19.250311633813226 27.537081816725674)"><path d="M9.63 0 M9.63 0 C14.13 -1.39, 22.51 -1.72, 28.88 0 M9.63 0 C16.64 -0.72, 24.89 0.89, 28.88 0 M28.88 0 C34.33 -0.64, 39.7 3.08, 38.5 9.63 M28.88 0 C33.29 1.41, 37.54 3.32, 38.5 9.63 M38.5 9.63 C40.58 22.08, 38.6 30.66, 38.5 45.45 M38.5 9.63 C37.44 22.7, 39.1 36.29, 38.5 45.45 M38.5 45.45 C38.49 52.81, 37.01 55.05, 28.88 55.07 M38.5 45.45 C40.48 51.31, 36.51 53.64, 28.88 55.07 M28.88 55.07 C20.4 54.95, 14.36 56.84, 9.63 55.07 M28.88 55.07 C23.69 55.82, 18.52 56.02, 9.63 55.07 M9.63 55.07 C1.87 55.31, -1.47 52.92, 0 45.45 M9.63 55.07 C1.43 55.68, -0.22 52.03, 0 45.45 M0 45.45 C-1.26 33.3, -0.88 20.04, 0 9.63 M0 45.45 C0.73 30.94, -0.46 17.12, 0 9.63 M0 9.63 C-0.95 4.89, 2.67 1.36, 9.63 0 M0 9.63 C-1.39 5.07, 2.1 2.25, 9.63 0" stroke="#1e1e1e" stroke-width="1" fill="none"></path></g><g transform="translate(1010.1400872768988 331.5300626994772) rotate(0 5.159996032714844 12.5)"><text x="5.159996032714844" y="0" font-family="Virgil, Segoe UI Emoji" font-size="20px" fill="#1e1e1e" text-anchor="middle" style="white-space: pre;" direction="ltr" dominant-baseline="text-before-edge">*</text></g><g stroke-linecap="round" transform="translate(857.7436627852949 309.1549480114551) rotate(0 93.39169643129691 33.935120925486274)"><path d="M16.97 0 M16.97 0 C59.67 -0.69, 102.68 -0.03, 169.82 0 M16.97 0 C61.3 2.09, 105.28 0.85, 169.82 0 M169.82 0 C182.32 -0.13, 185.04 6.88, 186.78 16.97 M169.82 0 C180.16 0.11, 186.96 7.67, 186.78 16.97 M186.78 16.97 C186.87 24.51, 188.35 33.75, 186.78 50.9 M186.78 16.97 C187.1 26.52, 186.44 35.28, 186.78 50.9 M186.78 50.9 C188.5 62.19, 182.85 67.38, 169.82 67.87 M186.78 50.9 C188 60.78, 182.08 68.7, 169.82 67.87 M169.82 67.87 C119.23 69.53, 70.86 65.87, 16.97 67.87 M169.82 67.87 C122.25 69.98, 74.03 69.14, 16.97 67.87 M16.97 67.87 C4.19 68.92, -1.55 62.74, 0 50.9 M16.97 67.87 C5.43 68.03, 0.92 62.73, 0 50.9 M0 50.9 C-0.6 41.9, 2.06 34.35, 0 16.97 M0 50.9 C-0.79 38.65, -0.69 27.58, 0 16.97 M0 16.97 C-0.54 7.01, 4.45 1.61, 16.97 0 M0 16.97 C-1.11 7.91, 5.36 0.24, 16.97 0" stroke="#1e1e1e" stroke-width="1" fill="none"></path></g><g transform="translate(173.78693936666804 93.31005719589368) rotate(0 50.989967346191406 12.5)"><text x="0" y="0" font-family="Virgil, Segoe UI Emoji" font-size="20px" fill="#000000" text-anchor="start" style="white-space: pre;" direction="ltr" dominant-baseline="text-before-edge">Lähettäjä</text></g><g stroke-linecap="round"><g transform="translate(170.99971871816064 83.65713118591495) rotate(0 25.819645202628983 -21.795699329337097)" fill-rule="evenodd"><path d="M13.47 -38.64 C13.47 -38.64, 13.47 -38.64, 13.47 -38.64 M13.47 -38.64 C13.47 -38.64, 13.47 -38.64, 13.47 -38.64 M7.04 -19.05 C11.42 -24.09, 15.8 -29.13, 26.72 -41.69 M7.04 -19.05 C11.07 -23.69, 15.1 -28.32, 26.72 -41.69 M0.61 0.53 C12.75 -13.42, 24.88 -27.38, 35.39 -39.47 M0.61 0.53 C9.35 -9.52, 18.09 -19.56, 35.39 -39.47 M11.24 0.5 C19.28 -8.74, 27.32 -17.99, 40.77 -33.46 M11.24 0.5 C18.67 -8.04, 26.09 -16.58, 40.77 -33.46 M21.87 0.47 C29.47 -8.27, 37.06 -17.01, 46.81 -28.21 M21.87 0.47 C31.43 -10.53, 40.99 -21.53, 46.81 -28.21 M29.22 4.2 C37.2 -4.97, 45.17 -14.14, 50.87 -20.7 M29.22 4.2 C37.54 -5.36, 45.86 -14.93, 50.87 -20.7 M41.82 1.91 C46.52 -3.49, 51.21 -8.89, 54.94 -13.19 M41.82 1.91 C46.9 -3.94, 51.99 -9.79, 54.94 -13.19 M0 0 C0 0, 0 0, 0 0 M0 0 C0 0, 0 0, 0 0 M12.04 -0.13 C8.58 -3.14, 5.12 -6.15, 1.47 -9.32 M12.04 -0.13 C8.43 -3.28, 4.81 -6.42, 1.47 -9.32 M24.84 0.39 C20 -3.81, 15.17 -8.01, 2.95 -18.64 M24.84 0.39 C18.69 -4.95, 12.55 -10.29, 2.95 -18.64 M30.08 -5.65 C20.97 -13.58, 11.85 -21.5, 6.69 -25.99 M30.08 -5.65 C23.75 -11.15, 17.42 -16.66, 6.69 -25.99 M45.9 -2.5 C37.64 -9.68, 29.38 -16.86, 9.67 -33.99 M45.9 -2.5 C31.75 -14.8, 17.61 -27.09, 9.67 -33.99 M52.66 -7.23 C42.25 -16.28, 31.83 -25.33, 14.92 -40.03 M52.66 -7.23 C39.83 -18.38, 27 -29.53, 14.92 -40.03 M51.11 -19.17 C39.53 -29.24, 27.94 -39.31, 20.92 -45.41 M51.11 -19.17 C42.72 -26.46, 34.33 -33.76, 20.92 -45.41" stroke="#ced4da" stroke-width="1" fill="none"></path><path d="M0 0 C0.92 -4.85, 1.58 -21.76, 5.52 -29.07 C9.46 -36.38, 17.61 -43.34, 23.65 -43.87 C29.69 -44.4, 37.51 -39.05, 41.78 -32.24 C46.05 -25.43, 56.23 -8.39, 49.27 -3.02 C42.31 2.36, 8.21 -0.5, 0 0 M0 0 C0.92 -4.85, 1.58 -21.76, 5.52 -29.07 C9.46 -36.38, 17.61 -43.34, 23.65 -43.87 C29.69 -44.4, 37.51 -39.05, 41.78 -32.24 C46.05 -25.43, 56.23 -8.39, 49.27 -3.02 C42.31 2.36, 8.21 -0.5, 0 0" stroke="#000000" stroke-width="2" fill="none"></path></g></g><mask></mask><g stroke-linecap="round" transform="translate(183.4535895544763 16.96608340005858) rotate(0 12.612971703843204 11.036350240862845)"><path d="M2.98 3.91 C2.98 3.91, 2.98 3.91, 2.98 3.91 M2.98 3.91 C2.98 3.91, 2.98 3.91, 2.98 3.91 M2.45 16.71 C6.41 12.15, 10.38 7.6, 16.23 0.86 M2.45 16.71 C7.11 11.35, 11.77 5.99, 16.23 0.86 M8.49 21.96 C11.89 18.05, 15.29 14.14, 23.58 4.6 M8.49 21.96 C14.26 15.32, 20.03 8.68, 23.58 4.6 M4.36 19.37 C4.36 19.37, 4.36 19.37, 4.36 19.37 M4.36 19.37 C4.36 19.37, 4.36 19.37, 4.36 19.37 M17.91 20.55 C14.11 17.24, 10.3 13.93, 1.31 6.11 M17.91 20.55 C12.06 15.46, 6.21 10.37, 1.31 6.11 M24.67 15.82 C18.17 10.17, 11.68 4.52, 7.31 0.73 M24.67 15.82 C19.7 11.5, 14.73 7.17, 7.31 0.73" stroke="#ced4da" stroke-width="1" fill="none"></path><path d="M25.23 11.04 C25.23 11.68, 25.16 12.32, 25.03 12.95 C24.91 13.58, 24.71 14.21, 24.47 14.81 C24.22 15.41, 23.9 16, 23.54 16.55 C23.17 17.11, 22.74 17.64, 22.28 18.13 C21.81 18.62, 21.28 19.08, 20.72 19.49 C20.16 19.9, 19.55 20.27, 18.92 20.59 C18.29 20.91, 17.61 21.19, 16.93 21.41 C16.24 21.63, 15.52 21.79, 14.8 21.91 C14.08 22.02, 13.34 22.07, 12.61 22.07 C11.88 22.07, 11.14 22.02, 10.42 21.91 C9.7 21.79, 8.99 21.63, 8.3 21.41 C7.61 21.19, 6.94 20.91, 6.31 20.59 C5.67 20.27, 5.06 19.9, 4.51 19.49 C3.95 19.08, 3.42 18.62, 2.95 18.13 C2.48 17.64, 2.05 17.11, 1.69 16.55 C1.32 16, 1.01 15.41, 0.76 14.81 C0.51 14.21, 0.32 13.58, 0.19 12.95 C0.06 12.32, 0 11.68, 0 11.04 C0 10.4, 0.06 9.75, 0.19 9.12 C0.32 8.49, 0.51 7.86, 0.76 7.26 C1.01 6.66, 1.32 6.07, 1.69 5.52 C2.05 4.96, 2.48 4.43, 2.95 3.94 C3.42 3.45, 3.95 2.99, 4.51 2.58 C5.06 2.17, 5.67 1.8, 6.31 1.48 C6.94 1.16, 7.61 0.88, 8.3 0.67 C8.99 0.45, 9.7 0.28, 10.42 0.17 C11.14 0.06, 11.88 0, 12.61 0 C13.34 0, 14.08 0.06, 14.8 0.17 C15.52 0.28, 16.24 0.45, 16.93 0.67 C17.61 0.88, 18.29 1.16, 18.92 1.48 C19.55 1.8, 20.16 2.17, 20.72 2.58 C21.28 2.99, 21.81 3.45, 22.28 3.94 C22.74 4.43, 23.17 4.96, 23.54 5.52 C23.9 6.07, 24.22 6.66, 24.47 7.26 C24.71 7.86, 24.91 8.49, 25.03 9.12 C25.16 9.75, 25.19 10.72, 25.23 11.04 C25.26 11.36, 25.26 10.72, 25.23 11.04" stroke="#000000" stroke-width="2" fill="none"></path></g><g transform="translate(1020.3054597062082 86.34397379583521) rotate(0 74.38995361328125 12.5)"><text x="0" y="0" font-family="Virgil, Segoe UI Emoji" font-size="20px" fill="#000000" text-anchor="start" style="white-space: pre;" direction="ltr" dominant-baseline="text-before-edge">Vastaanottaja</text></g><g stroke-linecap="round"><g transform="translate(1017.5182390577008 76.69104778585648) rotate(0 25.819645202628976 -21.795699329337097)" fill-rule="evenodd"><path d="M13.47 -38.64 C13.47 -38.64, 13.47 -38.64, 13.47 -38.64 M13.47 -38.64 C13.47 -38.64, 13.47 -38.64, 13.47 -38.64 M7.04 -19.05 C14.15 -27.23, 21.25 -35.4, 26.72 -41.69 M7.04 -19.05 C11.96 -24.71, 16.88 -30.37, 26.72 -41.69 M0.61 0.53 C8.04 -8.01, 15.46 -16.55, 35.39 -39.47 M0.61 0.53 C11.71 -12.23, 22.8 -24.98, 35.39 -39.47 M11.24 0.5 C22.47 -12.42, 33.7 -25.33, 40.77 -33.46 M11.24 0.5 C21.52 -11.32, 31.79 -23.14, 40.77 -33.46 M21.87 0.47 C31.1 -10.15, 40.32 -20.76, 46.81 -28.21 M21.87 0.47 C30.14 -9.04, 38.4 -18.54, 46.81 -28.21 M29.22 4.2 C35.19 -2.66, 41.16 -9.53, 50.87 -20.7 M29.22 4.2 C34.59 -1.97, 39.95 -8.14, 50.87 -20.7 M41.82 1.91 C46.26 -3.2, 50.69 -8.3, 54.94 -13.19 M41.82 1.91 C45.72 -2.58, 49.61 -7.06, 54.94 -13.19 M0 0 C0 0, 0 0, 0 0 M0 0 C0 0, 0 0, 0 0 M12.04 -0.13 C9.87 -2.02, 7.7 -3.91, 1.47 -9.32 M12.04 -0.13 C8.6 -3.13, 5.15 -6.12, 1.47 -9.32 M24.84 0.39 C18.48 -5.13, 12.13 -10.66, 2.95 -18.64 M24.84 0.39 C17.17 -6.28, 9.49 -12.95, 2.95 -18.64 M30.08 -5.65 C25.02 -10.05, 19.96 -14.45, 6.69 -25.99 M30.08 -5.65 C23.71 -11.19, 17.33 -16.73, 6.69 -25.99 M45.9 -2.5 C31.48 -15.04, 17.06 -27.57, 9.67 -33.99 M45.9 -2.5 C32.79 -13.9, 19.68 -25.29, 9.67 -33.99 M52.66 -7.23 C38.63 -19.42, 24.6 -31.62, 14.92 -40.03 M52.66 -7.23 C40.02 -18.21, 27.38 -29.2, 14.92 -40.03 M51.11 -19.17 C40.28 -28.59, 29.44 -38.01, 20.92 -45.41 M51.11 -19.17 C39.28 -29.45, 27.46 -39.73, 20.92 -45.41" stroke="#ced4da" stroke-width="1" fill="none"></path><path d="M0 0 C0.92 -4.85, 1.58 -21.76, 5.52 -29.07 C9.46 -36.38, 17.61 -43.34, 23.65 -43.87 C29.69 -44.4, 37.51 -39.05, 41.78 -32.24 C46.05 -25.43, 56.23 -8.39, 49.27 -3.02 C42.31 2.36, 8.21 -0.5, 0 0 M0 0 C0.92 -4.85, 1.58 -21.76, 5.52 -29.07 C9.46 -36.38, 17.61 -43.34, 23.65 -43.87 C29.69 -44.4, 37.51 -39.05, 41.78 -32.24 C46.05 -25.43, 56.23 -8.39, 49.27 -3.02 C42.31 2.36, 8.21 -0.5, 0 0" stroke="#000000" stroke-width="2" fill="none"></path></g></g><mask></mask><g stroke-linecap="round" transform="translate(1029.9721098940165 10) rotate(0 12.612971703843186 11.036350240862845)"><path d="M2.98 3.91 C2.98 3.91, 2.98 3.91, 2.98 3.91 M2.98 3.91 C2.98 3.91, 2.98 3.91, 2.98 3.91 M2.45 16.71 C7.1 11.36, 11.75 6.01, 16.23 0.86 M2.45 16.71 C7.1 11.36, 11.74 6.02, 16.23 0.86 M8.49 21.96 C12 17.92, 15.51 13.88, 23.58 4.6 M8.49 21.96 C12.3 17.57, 16.12 13.18, 23.58 4.6 M4.36 19.37 C4.36 19.37, 4.36 19.37, 4.36 19.37 M4.36 19.37 C4.36 19.37, 4.36 19.37, 4.36 19.37 M17.91 20.55 C14.17 17.29, 10.43 14.04, 1.31 6.11 M17.91 20.55 C12.73 16.04, 7.54 11.53, 1.31 6.11 M24.67 15.82 C19.12 11, 13.57 6.17, 7.31 0.73 M24.67 15.82 C18.2 10.2, 11.74 4.58, 7.31 0.73" stroke="#ced4da" stroke-width="1" fill="none"></path><path d="M25.23 11.04 C25.23 11.68, 25.16 12.32, 25.03 12.95 C24.91 13.58, 24.71 14.21, 24.47 14.81 C24.22 15.41, 23.9 16, 23.54 16.55 C23.17 17.11, 22.74 17.64, 22.28 18.13 C21.81 18.62, 21.28 19.08, 20.72 19.49 C20.16 19.9, 19.55 20.27, 18.92 20.59 C18.29 20.91, 17.61 21.19, 16.93 21.41 C16.24 21.63, 15.52 21.79, 14.8 21.91 C14.08 22.02, 13.34 22.07, 12.61 22.07 C11.88 22.07, 11.14 22.02, 10.42 21.91 C9.7 21.79, 8.99 21.63, 8.3 21.41 C7.61 21.19, 6.94 20.91, 6.31 20.59 C5.67 20.27, 5.06 19.9, 4.51 19.49 C3.95 19.08, 3.42 18.62, 2.95 18.13 C2.48 17.64, 2.05 17.11, 1.69 16.55 C1.32 16, 1.01 15.41, 0.76 14.81 C0.51 14.21, 0.32 13.58, 0.19 12.95 C0.06 12.32, 0 11.68, 0 11.04 C0 10.4, 0.06 9.75, 0.19 9.12 C0.32 8.49, 0.51 7.86, 0.76 7.26 C1.01 6.66, 1.32 6.07, 1.69 5.52 C2.05 4.96, 2.48 4.43, 2.95 3.94 C3.42 3.45, 3.95 2.99, 4.51 2.58 C5.06 2.17, 5.67 1.8, 6.31 1.48 C6.94 1.16, 7.61 0.88, 8.3 0.67 C8.99 0.45, 9.7 0.28, 10.42 0.17 C11.14 0.06, 11.88 0, 12.61 0 C13.34 0, 14.08 0.06, 14.8 0.17 C15.52 0.28, 16.24 0.45, 16.93 0.67 C17.61 0.88, 18.29 1.16, 18.92 1.48 C19.55 1.8, 20.16 2.17, 20.72 2.58 C21.28 2.99, 21.81 3.45, 22.28 3.94 C22.74 4.43, 23.17 4.96, 23.54 5.52 C23.9 6.07, 24.22 6.66, 24.47 7.26 C24.71 7.86, 24.91 8.49, 25.03 9.12 C25.16 9.75, 25.19 10.72, 25.23 11.04 C25.26 11.36, 25.26 10.72, 25.23 11.04" stroke="#000000" stroke-width="2" fill="none"></path></g><g stroke-linecap="round"><g transform="translate(532.352381023617 335.52834464419186) rotate(0 126.97560375010926 2.0637561699994933)"><path d="M1.14 0.46 C43.29 1.19, 211.81 3.94, 253.67 4.46 M0.29 -0.34 C42.25 0.01, 210.6 1.71, 253.01 2.54" stroke="#1e1e1e" stroke-width="1" fill="none"></path></g><g transform="translate(532.352381023617 335.52834464419186) rotate(0 126.97560375010926 2.0637561699994933)"><path d="M225.46 13.35 C235.68 7.18, 244.64 3.27, 252.07 2.7 M225.26 12.43 C233.37 10.16, 242.31 7.24, 252.49 2.58" stroke="#1e1e1e" stroke-width="1" fill="none"></path></g><g transform="translate(532.352381023617 335.52834464419186) rotate(0 126.97560375010926 2.0637561699994933)"><path d="M225.75 -7.17 C235.88 -5.83, 244.74 -2.23, 252.07 2.7 M225.56 -8.09 C233.45 -4.28, 242.3 -1.13, 252.49 2.58" stroke="#1e1e1e" stroke-width="1" fill="none"></path></g></g><mask></mask><g transform="translate(611.8266737245267 307.03860516698376) rotate(0 51.169944763183594 12.5)"><text x="0" y="0" font-family="Virgil, Segoe UI Emoji" font-size="20px" fill="#000000" text-anchor="start" style="white-space: pre;" direction="ltr" dominant-baseline="text-before-edge">Kuriiri yms.</text></g><g stroke-linecap="round" transform="translate(652.269490663746 239.7787618326469) rotate(0 9.875171816384778 8.640775339336727)"><path d="M2.19 3.23 C2.19 3.23, 2.19 3.23, 2.19 3.23 M2.19 3.23 C2.19 3.23, 2.19 3.23, 2.19 3.23 M2.98 14.51 C6.7 10.23, 10.43 5.94, 14.13 1.68 M2.98 14.51 C6.56 10.39, 10.14 6.27, 14.13 1.68 M10.33 18.25 C13.44 14.67, 16.56 11.08, 19.51 7.69 M10.33 18.25 C13.38 14.74, 16.43 11.23, 19.51 7.69 M3.77 15.47 C3.77 15.47, 3.77 15.47, 3.77 15.47 M3.77 15.47 C3.77 15.47, 3.77 15.47, 3.77 15.47 M15.81 15.34 C11.39 11.5, 6.97 7.65, 2.23 3.53 M15.81 15.34 C11.09 11.24, 6.37 7.13, 2.23 3.53 M20.31 8.65 C16.69 5.5, 13.07 2.36, 9.74 -0.54 M20.31 8.65 C16.71 5.52, 13.12 2.4, 9.74 -0.54" stroke="#ced4da" stroke-width="1" fill="none"></path><path d="M19.75 8.64 C19.75 9.14, 19.7 9.65, 19.6 10.14 C19.5 10.63, 19.35 11.13, 19.15 11.6 C18.96 12.07, 18.71 12.53, 18.43 12.96 C18.14 13.39, 17.81 13.81, 17.44 14.19 C17.07 14.58, 16.66 14.94, 16.22 15.26 C15.78 15.58, 15.31 15.87, 14.81 16.12 C14.32 16.37, 13.79 16.59, 13.25 16.76 C12.72 16.93, 12.15 17.06, 11.59 17.15 C11.03 17.24, 10.45 17.28, 9.88 17.28 C9.3 17.28, 8.72 17.24, 8.16 17.15 C7.6 17.06, 7.03 16.93, 6.5 16.76 C5.96 16.59, 5.43 16.37, 4.94 16.12 C4.44 15.87, 3.97 15.58, 3.53 15.26 C3.09 14.94, 2.68 14.58, 2.31 14.19 C1.94 13.81, 1.61 13.39, 1.32 12.96 C1.04 12.53, 0.79 12.07, 0.6 11.6 C0.4 11.13, 0.25 10.63, 0.15 10.14 C0.05 9.65, 0 9.14, 0 8.64 C0 8.14, 0.05 7.63, 0.15 7.14 C0.25 6.65, 0.4 6.16, 0.6 5.69 C0.79 5.22, 1.04 4.75, 1.32 4.32 C1.61 3.89, 1.94 3.47, 2.31 3.09 C2.68 2.7, 3.09 2.34, 3.53 2.02 C3.97 1.7, 4.44 1.41, 4.94 1.16 C5.43 0.91, 5.96 0.69, 6.5 0.52 C7.03 0.35, 7.6 0.22, 8.16 0.13 C8.72 0.04, 9.3 0, 9.88 0 C10.45 0, 11.03 0.04, 11.59 0.13 C12.15 0.22, 12.72 0.35, 13.25 0.52 C13.79 0.69, 14.32 0.91, 14.81 1.16 C15.31 1.41, 15.78 1.7, 16.22 2.02 C16.66 2.34, 17.07 2.7, 17.44 3.09 C17.81 3.47, 18.14 3.89, 18.43 4.32 C18.71 4.75, 18.96 5.22, 19.15 5.69 C19.35 6.16, 19.5 6.65, 19.6 7.14 C19.7 7.63, 19.73 8.39, 19.75 8.64 C19.78 8.89, 19.78 8.39, 19.75 8.64" stroke="#000000" stroke-width="2" fill="none"></path></g><g stroke-linecap="round" transform="translate(609.0858165394241 240.36182961628097) rotate(0 9.875171816384778 8.640775339336727)"><path d="M2.19 3.23 C2.19 3.23, 2.19 3.23, 2.19 3.23 M2.19 3.23 C2.19 3.23, 2.19 3.23, 2.19 3.23 M2.98 14.51 C5.66 11.43, 8.34 8.35, 14.13 1.68 M2.98 14.51 C5.25 11.9, 7.51 9.29, 14.13 1.68 M10.33 18.25 C13.86 14.19, 17.39 10.12, 19.51 7.69 M10.33 18.25 C13.18 14.97, 16.03 11.69, 19.51 7.69 M3.77 15.47 C3.77 15.47, 3.77 15.47, 3.77 15.47 M3.77 15.47 C3.77 15.47, 3.77 15.47, 3.77 15.47 M15.81 15.34 C11.68 11.74, 7.54 8.15, 2.23 3.53 M15.81 15.34 C11.8 11.85, 7.78 8.36, 2.23 3.53 M20.31 8.65 C17.01 5.78, 13.71 2.91, 9.74 -0.54 M20.31 8.65 C16.31 5.17, 12.31 1.7, 9.74 -0.54" stroke="#ced4da" stroke-width="1" fill="none"></path><path d="M19.75 8.64 C19.75 9.14, 19.7 9.65, 19.6 10.14 C19.5 10.63, 19.35 11.13, 19.15 11.6 C18.96 12.07, 18.71 12.53, 18.43 12.96 C18.14 13.39, 17.81 13.81, 17.44 14.19 C17.07 14.58, 16.66 14.94, 16.22 15.26 C15.78 15.58, 15.31 15.87, 14.81 16.12 C14.32 16.37, 13.79 16.59, 13.25 16.76 C12.72 16.93, 12.15 17.06, 11.59 17.15 C11.03 17.24, 10.45 17.28, 9.88 17.28 C9.3 17.28, 8.72 17.24, 8.16 17.15 C7.6 17.06, 7.03 16.93, 6.5 16.76 C5.96 16.59, 5.43 16.37, 4.94 16.12 C4.44 15.87, 3.97 15.58, 3.53 15.26 C3.09 14.94, 2.68 14.58, 2.31 14.19 C1.94 13.81, 1.61 13.39, 1.32 12.96 C1.04 12.53, 0.79 12.07, 0.6 11.6 C0.4 11.13, 0.25 10.63, 0.15 10.14 C0.05 9.65, 0 9.14, 0 8.64 C0 8.14, 0.05 7.63, 0.15 7.14 C0.25 6.65, 0.4 6.16, 0.6 5.69 C0.79 5.22, 1.04 4.75, 1.32 4.32 C1.61 3.89, 1.94 3.47, 2.31 3.09 C2.68 2.7, 3.09 2.34, 3.53 2.02 C3.97 1.7, 4.44 1.41, 4.94 1.16 C5.43 0.91, 5.96 0.69, 6.5 0.52 C7.03 0.35, 7.6 0.22, 8.16 0.13 C8.72 0.04, 9.3 0, 9.88 0 C10.45 0, 11.03 0.04, 11.59 0.13 C12.15 0.22, 12.72 0.35, 13.25 0.52 C13.79 0.69, 14.32 0.91, 14.81 1.16 C15.31 1.41, 15.78 1.7, 16.22 2.02 C16.66 2.34, 17.07 2.7, 17.44 3.09 C17.81 3.47, 18.14 3.89, 18.43 4.32 C18.71 4.75, 18.96 5.22, 19.15 5.69 C19.35 6.16, 19.5 6.65, 19.6 7.14 C19.7 7.63, 19.73 8.39, 19.75 8.64 C19.78 8.89, 19.78 8.39, 19.75 8.64" stroke="#000000" stroke-width="2" fill="none"></path></g><g stroke-linecap="round"><g transform="translate(619.5376365466884 299.29286535393055) rotate(0 21.90843989373377 -18.49404842519118)" fill-rule="evenodd"><path d="M11.93 -33.36 C11.93 -33.36, 11.93 -33.36, 11.93 -33.36 M11.93 -33.36 C11.93 -33.36, 11.93 -33.36, 11.93 -33.36 M6.81 -15.28 C11.98 -21.23, 17.15 -27.17, 25.18 -36.41 M6.81 -15.28 C11.32 -20.47, 15.82 -25.65, 25.18 -36.41 M2.35 2.04 C9.48 -6.16, 16.61 -14.35, 31.87 -31.92 M2.35 2.04 C13.39 -10.65, 24.43 -23.35, 31.87 -31.92 M12.98 2.01 C20.43 -6.57, 27.89 -15.14, 37.25 -25.92 M12.98 2.01 C21.21 -7.46, 29.44 -16.93, 37.25 -25.92 M23.61 1.97 C29.16 -4.41, 34.71 -10.8, 41.32 -18.4 M23.61 1.97 C28.64 -3.81, 33.67 -9.6, 41.32 -18.4 M34.9 1.19 C38.58 -3.05, 42.26 -7.28, 46.05 -11.64 M34.9 1.19 C38.08 -2.47, 41.26 -6.13, 46.05 -11.64 M0 0 C0 0, 0 0, 0 0 M0 0 C0 0, 0 0, 0 0 M12.04 -0.13 C9.69 -2.18, 7.33 -4.23, 1.47 -9.32 M12.04 -0.13 C9.3 -2.52, 6.55 -4.9, 1.47 -9.32 M24.08 -0.27 C18.28 -5.31, 12.47 -10.36, 2.95 -18.64 M24.08 -0.27 C15.76 -7.5, 7.43 -14.74, 2.95 -18.64 M34.61 -1.71 C28.48 -7.04, 22.34 -12.38, 5.93 -26.64 M34.61 -1.71 C23.65 -11.24, 12.68 -20.77, 5.93 -26.64 M43.64 -4.47 C33.2 -13.54, 22.77 -22.6, 11.18 -32.68 M43.64 -4.47 C32.8 -13.89, 21.97 -23.3, 11.18 -32.68 M42.85 -15.76 C35.45 -22.18, 28.06 -28.61, 17.19 -38.06 M42.85 -15.76 C34.72 -22.82, 26.59 -29.89, 17.19 -38.06" stroke="#ced4da" stroke-width="1" fill="none"></path><path d="M0 0 C0.78 -4.11, 1.34 -18.46, 4.68 -24.67 C8.03 -30.87, 14.94 -36.78, 20.07 -37.23 C25.2 -37.68, 31.83 -33.14, 35.45 -27.36 C39.07 -21.58, 47.71 -7.12, 41.81 -2.56 C35.9 2, 6.97 -0.43, 0 0 M0 0 C0.78 -4.11, 1.34 -18.46, 4.68 -24.67 C8.03 -30.87, 14.94 -36.78, 20.07 -37.23 C25.2 -37.68, 31.83 -33.14, 35.45 -27.36 C39.07 -21.58, 47.71 -7.12, 41.81 -2.56 C35.9 2, 6.97 -0.43, 0 0" stroke="#000000" stroke-width="2" fill="none"></path></g></g><mask></mask><g stroke-linecap="round" transform="translate(630.0237586974984 242.71835403409355) rotate(0 10.702336545928858 9.364544477687815)"><path d="M2.43 3.43 C2.43 3.43, 2.43 3.43, 2.43 3.43 M2.43 3.43 C2.43 3.43, 2.43 3.43, 2.43 3.43 M2.56 15.48 C7.26 10.07, 11.96 4.66, 15.02 1.14 M2.56 15.48 C5.58 12, 8.6 8.52, 15.02 1.14 M9.91 19.21 C13.57 15, 17.23 10.79, 21.06 6.38 M9.91 19.21 C12.97 15.69, 16.03 12.17, 21.06 6.38 M4.02 16.71 C4.02 16.71, 4.02 16.71, 4.02 16.71 M4.02 16.71 C4.02 16.71, 4.02 16.71, 4.02 16.71 M16.82 17.23 C11.72 12.8, 6.62 8.37, 1.72 4.11 M16.82 17.23 C11.29 12.42, 5.75 7.61, 1.72 4.11 M21.31 10.54 C16.53 6.38, 11.75 2.23, 9.24 0.04 M21.31 10.54 C17.82 7.51, 14.33 4.47, 9.24 0.04" stroke="#ced4da" stroke-width="1" fill="none"></path><path d="M21.4 9.36 C21.4 9.91, 21.35 10.46, 21.24 10.99 C21.13 11.52, 20.97 12.06, 20.76 12.57 C20.55 13.08, 20.28 13.58, 19.97 14.05 C19.66 14.52, 19.3 14.97, 18.9 15.38 C18.5 15.8, 18.06 16.19, 17.58 16.54 C17.11 16.89, 16.59 17.2, 16.05 17.47 C15.52 17.75, 14.94 17.98, 14.36 18.16 C13.78 18.35, 13.17 18.49, 12.56 18.59 C11.95 18.68, 11.32 18.73, 10.7 18.73 C10.08 18.73, 9.45 18.68, 8.84 18.59 C8.23 18.49, 7.62 18.35, 7.04 18.16 C6.46 17.98, 5.89 17.75, 5.35 17.47 C4.81 17.2, 4.3 16.89, 3.82 16.54 C3.35 16.19, 2.9 15.8, 2.5 15.38 C2.11 14.97, 1.74 14.52, 1.43 14.05 C1.12 13.58, 0.86 13.08, 0.65 12.57 C0.43 12.06, 0.27 11.52, 0.16 10.99 C0.06 10.46, 0 9.91, 0 9.36 C0 8.82, 0.06 8.27, 0.16 7.74 C0.27 7.2, 0.43 6.67, 0.65 6.16 C0.86 5.65, 1.12 5.15, 1.43 4.68 C1.74 4.21, 2.11 3.76, 2.5 3.35 C2.9 2.93, 3.35 2.54, 3.82 2.19 C4.3 1.84, 4.81 1.53, 5.35 1.25 C5.89 0.98, 6.46 0.75, 7.04 0.56 C7.62 0.38, 8.23 0.24, 8.84 0.14 C9.45 0.05, 10.08 0, 10.7 0 C11.32 0, 11.95 0.05, 12.56 0.14 C13.17 0.24, 13.78 0.38, 14.36 0.56 C14.94 0.75, 15.52 0.98, 16.05 1.25 C16.59 1.53, 17.11 1.84, 17.58 2.19 C18.06 2.54, 18.5 2.93, 18.9 3.35 C19.3 3.76, 19.66 4.21, 19.97 4.68 C20.28 5.15, 20.55 5.65, 20.76 6.16 C20.97 6.67, 21.13 7.2, 21.24 7.74 C21.35 8.27, 21.38 9.09, 21.4 9.36 C21.43 9.64, 21.43 9.09, 21.4 9.36" stroke="#000000" stroke-width="2" fill="none"></path></g><g stroke-linecap="round"><g transform="translate(648.6889720011393 265.6238006688776) rotate(0 16.71865860152218 9.921154001040179)" fill-rule="evenodd"><path d="M0 0 C0 0, 0 0, 0 0 M0 0 C0 0, 0 0, 0 0 M6.04 5.25 C9.33 1.47, 12.61 -2.31, 17.85 -8.34 M6.04 5.25 C8.45 2.48, 10.86 -0.3, 17.85 -8.34 M12.08 10.5 C15.24 6.86, 18.4 3.23, 25.2 -4.6 M12.08 10.5 C16.5 5.4, 20.93 0.31, 25.2 -4.6 M15.49 18.76 C20.4 13.12, 25.31 7.47, 31.23 0.65 M15.49 18.76 C20.13 13.42, 24.78 8.08, 31.23 0.65 M16.93 29.3 C21.78 23.73, 26.62 18.15, 33.34 10.43 M16.93 29.3 C22.69 22.67, 28.45 16.05, 33.34 10.43 M29.53 27 C30.74 25.61, 31.94 24.23, 34.78 20.96 M29.53 27 C31.18 25.1, 32.83 23.21, 34.78 20.96 M14.43 27.6 C14.43 27.6, 14.43 27.6, 14.43 27.6 M14.43 27.6 C14.43 27.6, 14.43 27.6, 14.43 27.6 M25.72 26.82 C23.42 24.82, 21.12 22.82, 16.66 18.94 M25.72 26.82 C23.12 24.56, 20.52 22.3, 16.66 18.94 M33.98 23.4 C26.04 16.5, 18.1 9.59, 3.04 -3.5 M33.98 23.4 C24.05 14.77, 14.13 6.14, 3.04 -3.5 M36.97 15.4 C27.12 6.83, 17.26 -1.73, 9.8 -8.22 M36.97 15.4 C26.54 6.33, 16.1 -2.74, 9.8 -8.22" stroke="#ced4da" stroke-width="1" fill="none"></path><path d="M0 0 C0.86 -0.93, 3.58 -4.18, 5.17 -5.57 C6.77 -6.97, 7.56 -7.83, 9.55 -8.36 C11.54 -8.89, 14.99 -8.89, 17.12 -8.76 C19.24 -8.62, 20.83 -8.43, 22.29 -7.56 C23.75 -6.7, 24.88 -5.11, 25.87 -3.58 C26.87 -2.06, 27.47 -0.33, 28.26 1.59 C29.06 3.52, 29.92 5.84, 30.65 7.96 C31.38 10.08, 32.18 12.41, 32.64 14.33 C33.11 16.25, 33.44 17.78, 33.44 19.51 C33.44 21.23, 33.3 23.42, 32.64 24.68 C31.98 25.94, 30.72 26.47, 29.46 27.07 C28.2 27.67, 26.87 28, 25.08 28.26 C23.29 28.53, 20.43 28.73, 18.71 28.66 C16.98 28.59, 15.46 28.93, 14.73 27.86 C14 26.8, 14.66 23.82, 14.33 22.29 C14 20.77, 13.47 20.23, 12.74 18.71 C12.01 17.18, 11.08 15.33, 9.95 13.14 C8.82 10.95, 7.63 7.76, 5.97 5.57 C4.31 3.38, 1 0.93, 0 0 M0 0 C0.86 -0.93, 3.58 -4.18, 5.17 -5.57 C6.77 -6.97, 7.56 -7.83, 9.55 -8.36 C11.54 -8.89, 14.99 -8.89, 17.12 -8.76 C19.24 -8.62, 20.83 -8.43, 22.29 -7.56 C23.75 -6.7, 24.88 -5.11, 25.87 -3.58 C26.87 -2.06, 27.47 -0.33, 28.26 1.59 C29.06 3.52, 29.92 5.84, 30.65 7.96 C31.38 10.08, 32.18 12.41, 32.64 14.33 C33.11 16.25, 33.44 17.78, 33.44 19.51 C33.44 21.23, 33.3 23.42, 32.64 24.68 C31.98 25.94, 30.72 26.47, 29.46 27.07 C28.2 27.67, 26.87 28, 25.08 28.26 C23.29 28.53, 20.43 28.73, 18.71 28.66 C16.98 28.59, 15.46 28.93, 14.73 27.86 C14 26.8, 14.66 23.82, 14.33 22.29 C14 20.77, 13.47 20.23, 12.74 18.71 C12.01 17.18, 11.08 15.33, 9.95 13.14 C8.82 10.95, 7.63 7.76, 5.97 5.57 C4.31 3.38, 1 0.93, 0 0" stroke="#000000" stroke-width="2" fill="none"></path></g></g><mask></mask><g stroke-linecap="round"><g transform="translate(630.7701855478053 265.6119247654732) rotate(0 -16.121563651467824 12.19394740044197)" fill-rule="evenodd"><path d="M-24.42 -2.68 C-24.42 -2.68, -24.42 -2.68, -24.42 -2.68 M-24.42 -2.68 C-24.42 -2.68, -24.42 -2.68, -24.42 -2.68 M-26.26 11.62 C-21.47 6.11, -16.67 0.59, -12.48 -4.23 M-26.26 11.62 C-22.58 7.38, -18.89 3.15, -12.48 -4.23 M-29.41 27.44 C-20.32 16.98, -11.23 6.53, -2.51 -3.51 M-29.41 27.44 C-19.55 16.09, -9.69 4.75, -2.51 -3.51 M-22.71 31.93 C-17 25.36, -11.28 18.78, -8.28 15.33 M-22.71 31.93 C-18.54 27.13, -14.37 22.33, -8.28 15.33 M-12.74 32.65 C-11.99 31.79, -11.24 30.93, -10.77 30.39 M-12.74 32.65 C-12.03 31.83, -11.32 31.02, -10.77 30.39 M-31.63 25.72 C-31.63 25.72, -31.63 25.72, -31.63 25.72 M-31.63 25.72 C-31.63 25.72, -31.63 25.72, -31.63 25.72 M-13.55 30.83 C-18.86 26.22, -24.17 21.6, -29.4 17.05 M-13.55 30.83 C-18.75 26.31, -23.96 21.79, -29.4 17.05 M-6.79 26.11 C-12.75 20.92, -18.72 15.74, -27.92 7.74 M-6.79 26.11 C-12.24 21.37, -17.69 16.63, -27.92 7.74 M-8.34 14.16 C-12.25 10.76, -16.16 7.36, -24.94 -0.27 M-8.34 14.16 C-13.01 10.1, -17.68 6.04, -24.94 -0.27 M-4.6 6.81 C-9.19 2.82, -13.79 -1.18, -20.45 -6.96 M-4.6 6.81 C-9.86 2.24, -15.12 -2.34, -20.45 -6.96 M-0.1 0.12 C-3.62 -2.94, -7.14 -5.99, -12.93 -11.03 M-0.1 0.12 C-4.95 -4.09, -9.8 -8.31, -12.93 -11.03" stroke="#ced4da" stroke-width="1" fill="none"></path><path d="M0 0 C-0.66 -0.73, -2.59 -3.18, -3.98 -4.38 C-5.37 -5.57, -6.37 -6.63, -8.36 -7.17 C-10.35 -7.7, -13.8 -7.7, -15.92 -7.56 C-18.05 -7.43, -19.64 -7.23, -21.1 -6.37 C-22.56 -5.51, -23.68 -3.91, -24.68 -2.39 C-25.68 -0.86, -26.27 0.86, -27.07 2.79 C-27.86 4.71, -28.73 7.03, -29.46 9.16 C-30.19 11.28, -30.98 13.6, -31.45 15.52 C-31.91 17.45, -32.24 18.97, -32.24 20.7 C-32.24 22.42, -32.11 24.61, -31.45 25.87 C-30.78 27.13, -29.46 27.53, -28.26 28.26 C-27.07 28.99, -26.01 29.72, -24.28 30.25 C-22.56 30.78, -20.1 31.25, -17.91 31.45 C-15.72 31.65, -12.41 32.64, -11.15 31.45 C-9.89 30.25, -10.62 26.07, -10.35 24.28 C-10.08 22.49, -9.89 22.29, -9.55 20.7 C-9.22 19.11, -9.16 17.05, -8.36 14.73 C-7.56 12.41, -6.17 9.22, -4.78 6.77 C-3.38 4.31, -0.8 1.13, 0 0 M0 0 C-0.66 -0.73, -2.59 -3.18, -3.98 -4.38 C-5.37 -5.57, -6.37 -6.63, -8.36 -7.17 C-10.35 -7.7, -13.8 -7.7, -15.92 -7.56 C-18.05 -7.43, -19.64 -7.23, -21.1 -6.37 C-22.56 -5.51, -23.68 -3.91, -24.68 -2.39 C-25.68 -0.86, -26.27 0.86, -27.07 2.79 C-27.86 4.71, -28.73 7.03, -29.46 9.16 C-30.19 11.28, -30.98 13.6, -31.45 15.52 C-31.91 17.45, -32.24 18.97, -32.24 20.7 C-32.24 22.42, -32.11 24.61, -31.45 25.87 C-30.78 27.13, -29.46 27.53, -28.26 28.26 C-27.07 28.99, -26.01 29.72, -24.28 30.25 C-22.56 30.78, -20.1 31.25, -17.91 31.45 C-15.72 31.65, -12.41 32.64, -11.15 31.45 C-9.89 30.25, -10.62 26.07, -10.35 24.28 C-10.08 22.49, -9.89 22.29, -9.55 20.7 C-9.22 19.11, -9.16 17.05, -8.36 14.73 C-7.56 12.41, -6.17 9.22, -4.78 6.77 C-3.38 4.31, -0.8 1.13, 0 0" stroke="#000000" stroke-width="2" fill="none"></path></g></g><mask></mask><g transform="translate(16.243501319479037 99.65664411939801) rotate(0 26.09996795654297 12.5)"><text x="0" y="0" font-family="Virgil, Segoe UI Emoji" font-size="20px" fill="#000000" text-anchor="start" style="white-space: pre;" direction="ltr" dominant-baseline="text-before-edge">Viesti</text></g><g stroke-linecap="round" transform="translate(10 48.092516647039304) rotate(0 31.243501319478924 20.73166909984114)"><path d="M0 0 C0 0, 0 0, 0 0 M0 0 C0 0, 0 0, 0 0 M0.13 12.04 C4.24 7.32, 8.35 2.59, 10.63 -0.03 M0.13 12.04 C2.52 9.29, 4.91 6.54, 10.63 -0.03 M0.27 24.08 C4.71 18.97, 9.16 13.85, 21.26 -0.07 M0.27 24.08 C7.98 15.2, 15.7 6.32, 21.26 -0.07 M-0.26 36.88 C11.11 23.8, 22.47 10.73, 31.89 -0.1 M-0.26 36.88 C6.78 28.78, 13.83 20.68, 31.89 -0.1 M3.81 44.39 C15.51 30.93, 27.21 17.48, 42.52 -0.14 M3.81 44.39 C15.87 30.52, 27.92 16.66, 42.52 -0.14 M14.44 44.36 C26.19 30.84, 37.93 17.33, 53.15 -0.17 M14.44 44.36 C29.28 27.28, 44.12 10.21, 53.15 -0.17 M25.07 44.32 C37.44 30.09, 49.81 15.86, 63.12 0.55 M25.07 44.32 C33.45 34.69, 41.82 25.05, 63.12 0.55 M35.7 44.29 C41.76 37.32, 47.81 30.36, 63.26 12.59 M35.7 44.29 C43.71 35.08, 51.71 25.87, 63.26 12.59 M46.33 44.25 C51.23 38.62, 56.13 32.98, 63.39 24.63 M46.33 44.25 C52.91 36.69, 59.48 29.13, 63.39 24.63 M56.31 44.97 C57.86 43.18, 59.42 41.39, 62.87 37.43 M56.31 44.97 C57.97 43.06, 59.64 41.14, 62.87 37.43 M-0.15 41.33 C-0.15 41.33, -0.15 41.33, -0.15 41.33 M-0.15 41.33 C-0.15 41.33, -0.15 41.33, -0.15 41.33 M11.89 41.2 C8.91 38.61, 5.93 36.02, -0.19 30.7 M11.89 41.2 C7.89 37.72, 3.89 34.25, -0.19 30.7 M24.68 41.72 C18.78 36.59, 12.87 31.45, -0.22 20.07 M24.68 41.72 C15.44 33.69, 6.21 25.66, -0.22 20.07 M36.72 41.59 C25.78 32.07, 14.83 22.55, -0.26 9.44 M36.72 41.59 C24.79 31.21, 12.85 20.83, -0.26 9.44 M48.77 41.45 C38.15 32.23, 27.54 23, 0.46 -0.53 M48.77 41.45 C34.59 29.13, 20.4 16.8, 0.46 -0.53 M60.81 41.32 C42.03 25, 23.26 8.68, 12.5 -0.67 M60.81 41.32 C42.73 25.61, 24.66 9.9, 12.5 -0.67 M66.81 35.94 C52.82 23.78, 38.83 11.62, 24.55 -0.8 M66.81 35.94 C55.1 25.76, 43.39 15.58, 24.55 -0.8 M66.77 25.31 C58.4 18.03, 50.03 10.76, 37.34 -0.28 M66.77 25.31 C55.78 15.75, 44.78 6.19, 37.34 -0.28 M66.74 14.68 C60.51 9.26, 54.28 3.85, 49.38 -0.41 M66.74 14.68 C60.98 9.67, 55.22 4.66, 49.38 -0.41 M66.71 4.05 C65.12 2.67, 63.54 1.3, 61.42 -0.54 M66.71 4.05 C64.84 2.43, 62.97 0.8, 61.42 -0.54" stroke="#ced4da" stroke-width="1" fill="none"></path><path d="M0 0 C13.24 0, 26.48 0, 62.49 0 M0 0 C22.79 0, 45.58 0, 62.49 0 M62.49 0 C62.49 12.3, 62.49 24.61, 62.49 41.46 M62.49 0 C62.49 8.41, 62.49 16.83, 62.49 41.46 M62.49 41.46 C38.57 41.46, 14.65 41.46, 0 41.46 M62.49 41.46 C42.08 41.46, 21.67 41.46, 0 41.46 M0 41.46 C0 25.11, 0 8.76, 0 0 M0 41.46 C0 25.58, 0 9.7, 0 0" stroke="#000000" stroke-width="2" fill="none"></path></g><g stroke-linecap="round"><g transform="translate(10.90293632482826 51.93506059967268) rotate(0 15.366143511948152 11.96293434694698)"><path d="M0 0 C6.24 4.85, 12.47 9.71, 30.73 23.93 M0 0 C7.84 6.1, 15.68 12.21, 30.73 23.93" stroke="#000000" stroke-width="2" fill="none"></path></g></g><mask></mask><g stroke-linecap="round"><g transform="translate(42.77058854095685 77.00419003270767) rotate(0 14.651538881000043 -14.616124377920102)"><path d="M0 0 C11.69 -11.66, 23.38 -23.32, 29.3 -29.23 M0 0 C9.89 -9.87, 19.78 -19.73, 29.3 -29.23" stroke="#000000" stroke-width="2" fill="none"></path></g></g><mask></mask><g stroke-linecap="round"><g transform="translate(79.50162473227542 125.76428935307115) rotate(0 90.29085722064507 92.74215945699339)"><path d="M-0.76 -0.17 C29.08 31.1, 149.05 155.7, 179.1 186.79 M1.05 -1.3 C31.25 29.7, 151.76 153.53, 181.34 185.05" stroke="#e03131" stroke-width="1" fill="none"></path></g><g transform="translate(79.50162473227542 125.76428935307115) rotate(0 90.29085722064507 92.74215945699339)"><path d="M154.14 170.29 C163.83 175.24, 171.37 180.9, 182.31 186.03 M154.2 172.57 C159.41 175.14, 165.88 177.45, 181.66 185.68" stroke="#e03131" stroke-width="1" fill="none"></path></g><g transform="translate(79.50162473227542 125.76428935307115) rotate(0 90.29085722064507 92.74215945699339)"><path d="M168.96 156.09 C174 165.31, 177 175.33, 182.31 186.03 M169.02 158.37 C171.11 163.91, 174.39 169.28, 181.66 185.68" stroke="#e03131" stroke-width="1" fill="none"></path></g></g><mask></mask><g transform="translate(1252.7233048298974 96.17360241936862) rotate(0 26.09996795654297 12.5)"><text x="0" y="0" font-family="Virgil, Segoe UI Emoji" font-size="20px" fill="#000000" text-anchor="start" style="white-space: pre;" direction="ltr" dominant-baseline="text-before-edge">Viesti</text></g><g stroke-linecap="round" transform="translate(1246.4798035104184 44.60947494700994) rotate(0 31.243501319478924 20.73166909984114)"><path d="M0 0 C0 0, 0 0, 0 0 M0 0 C0 0, 0 0, 0 0 M0.13 12.04 C4.09 7.49, 8.04 2.94, 10.63 -0.03 M0.13 12.04 C4.26 7.3, 8.38 2.55, 10.63 -0.03 M0.27 24.08 C6.61 16.78, 12.96 9.48, 21.26 -0.07 M0.27 24.08 C6.71 16.67, 13.15 9.26, 21.26 -0.07 M-0.26 36.88 C6.32 29.31, 12.9 21.74, 31.89 -0.1 M-0.26 36.88 C9.46 25.71, 19.17 14.53, 31.89 -0.1 M3.81 44.39 C11.77 35.24, 19.72 26.09, 42.52 -0.14 M3.81 44.39 C16.93 29.3, 30.04 14.22, 42.52 -0.14 M14.44 44.36 C26.93 29.99, 39.42 15.62, 53.15 -0.17 M14.44 44.36 C22.64 34.93, 30.83 25.5, 53.15 -0.17 M25.07 44.32 C36.79 30.84, 48.51 17.36, 63.12 0.55 M25.07 44.32 C36.98 30.63, 48.88 16.93, 63.12 0.55 M35.7 44.29 C43.55 35.26, 51.4 26.23, 63.26 12.59 M35.7 44.29 C46.56 31.79, 57.42 19.3, 63.26 12.59 M46.33 44.25 C52.91 36.68, 59.49 29.11, 63.39 24.63 M46.33 44.25 C51.96 37.78, 57.58 31.32, 63.39 24.63 M56.31 44.97 C58.86 42.03, 61.42 39.1, 62.87 37.43 M56.31 44.97 C58.13 42.87, 59.96 40.78, 62.87 37.43 M-0.15 41.33 C-0.15 41.33, -0.15 41.33, -0.15 41.33 M-0.15 41.33 C-0.15 41.33, -0.15 41.33, -0.15 41.33 M11.89 41.2 C8.54 38.28, 5.18 35.37, -0.19 30.7 M11.89 41.2 C8.89 38.59, 5.89 35.98, -0.19 30.7 M24.68 41.72 C17.46 35.44, 10.24 29.16, -0.22 20.07 M24.68 41.72 C17.86 35.79, 11.03 29.85, -0.22 20.07 M36.72 41.59 C24.32 30.81, 11.92 20.02, -0.26 9.44 M36.72 41.59 C27.63 33.68, 18.53 25.77, -0.26 9.44 M48.77 41.45 C30.05 25.18, 11.33 8.91, 0.46 -0.53 M48.77 41.45 C30.21 25.33, 11.66 9.2, 0.46 -0.53 M60.81 41.32 C46.72 29.08, 32.63 16.83, 12.5 -0.67 M60.81 41.32 C43.01 25.85, 25.21 10.38, 12.5 -0.67 M66.81 35.94 C58.27 28.52, 49.73 21.09, 24.55 -0.8 M66.81 35.94 C54.08 24.87, 41.35 13.8, 24.55 -0.8 M66.77 25.31 C60.32 19.7, 53.86 14.08, 37.34 -0.28 M66.77 25.31 C58.85 18.42, 50.92 11.52, 37.34 -0.28 M66.74 14.68 C62.77 11.23, 58.81 7.78, 49.38 -0.41 M66.74 14.68 C61.41 10.04, 56.08 5.41, 49.38 -0.41 M66.71 4.05 C64.93 2.51, 63.16 0.97, 61.42 -0.54 M66.71 4.05 C64.81 2.4, 62.92 0.76, 61.42 -0.54" stroke="#ced4da" stroke-width="1" fill="none"></path><path d="M0 0 C23.94 0, 47.88 0, 62.49 0 M0 0 C12.67 0, 25.34 0, 62.49 0 M62.49 0 C62.49 12.15, 62.49 24.31, 62.49 41.46 M62.49 0 C62.49 11.11, 62.49 22.23, 62.49 41.46 M62.49 41.46 C43.26 41.46, 24.03 41.46, 0 41.46 M62.49 41.46 C46.95 41.46, 31.41 41.46, 0 41.46 M0 41.46 C0 31.99, 0 22.52, 0 0 M0 41.46 C0 26.19, 0 10.92, 0 0" stroke="#000000" stroke-width="2" fill="none"></path></g><g stroke-linecap="round"><g transform="translate(1247.3827398352466 48.45201889964332) rotate(0 15.366143511948167 11.96293434694698)"><path d="M0 0 C9.61 7.48, 19.23 14.97, 30.73 23.93 M0 0 C10.79 8.4, 21.59 16.81, 30.73 23.93" stroke="#000000" stroke-width="2" fill="none"></path></g></g><mask></mask><g stroke-linecap="round"><g transform="translate(1279.2503920513752 73.52114833267828) rotate(0 14.651538881000079 -14.616124377920102)"><path d="M0 0 C8.16 -8.14, 16.32 -16.29, 29.3 -29.23 M0 0 C8.81 -8.79, 17.62 -17.58, 29.3 -29.23" stroke="#000000" stroke-width="2" fill="none"></path></g></g><mask></mask><g stroke-linecap="round"><g transform="translate(1051.3255943279898 325.346641432918) rotate(0 94.0625163830411 -105.02975116045897)"><path d="M0.96 0.03 C32.21 -35.17, 157.17 -175.2, 188.12 -210.09 M0.01 -1.01 C31.15 -35.55, 156.84 -174.45, 187.8 -208.93" stroke="#e03131" stroke-width="1" fill="none"></path></g><g transform="translate(1051.3255943279898 325.346641432918) rotate(0 94.0625163830411 -105.02975116045897)"><path d="M176.58 -179.13 C179.01 -191.4, 184.32 -199.47, 188.38 -207.16 M175.94 -180.91 C180.01 -189.57, 182.77 -199.61, 188.04 -209.69" stroke="#e03131" stroke-width="1" fill="none"></path></g><g transform="translate(1051.3255943279898 325.346641432918) rotate(0 94.0625163830411 -105.02975116045897)"><path d="M161.34 -192.88 C169.24 -200.45, 179.9 -203.7, 188.38 -207.16 M160.7 -194.65 C169.95 -198.66, 177.75 -204.16, 188.04 -209.69" stroke="#e03131" stroke-width="1" fill="none"></path></g></g><mask></mask><g stroke-linecap="round" transform="translate(125.9975160201929 125.6887652984652) rotate(0 96.5 17.5)"><path d="M8.75 0 M8.75 0 C50.17 1.09, 92.68 2.35, 184.25 0 M184.25 0 C190.68 0.23, 192.47 1.16, 193 8.75 M193 8.75 C192.98 15.59, 191.76 20.85, 193 26.25 M193 26.25 C193.86 31.27, 189.64 33.27, 184.25 35 M184.25 35 C127.53 33.15, 74.22 32.92, 8.75 35 M8.75 35 C2.89 34.46, 0.06 31.42, 0 26.25 M0 26.25 C0.58 19.96, 1.49 16.71, 0 8.75 M0 8.75 C0.75 1.54, 4.14 -1.31, 8.75 0" stroke="#e03131" stroke-width="1.5" fill="none" stroke-dasharray="1.5 7"></path></g><g transform="translate(151.50755630339603 130.6887652984652) rotate(0 70.98995971679688 12.5)"><text x="70.98995971679688" y="0" font-family="Virgil, Segoe UI Emoji" font-size="20px" fill="#e03131" text-anchor="middle" style="white-space: pre;" direction="ltr" dominant-baseline="text-before-edge">Avain on: 1234</text></g><g stroke-linecap="round" transform="translate(548.1574505236658 189.0954046989153) rotate(0 96.5 17.5)"><path d="M8.75 0 M8.75 0 C44.31 -3, 79.63 0.18, 184.25 0 M184.25 0 C190.44 2, 191.23 4.48, 193 8.75 M193 8.75 C192.07 14.29, 192.3 19.6, 193 26.25 M193 26.25 C193.24 31.09, 190 33.44, 184.25 35 M184.25 35 C122.09 37.86, 63.13 36.38, 8.75 35 M8.75 35 C1.48 33.71, -0.64 31.62, 0 26.25 M0 26.25 C1.67 21.21, 0.69 13.28, 0 8.75 M0 8.75 C1.05 1.39, 2.94 -1.08, 8.75 0" stroke="#f08c00" stroke-width="1.5" fill="none" stroke-dasharray="1.5 7"></path></g><g transform="translate(578.0674923327479 194.0954046989153) rotate(0 66.58995819091797 12.5)"><text x="66.58995819091797" y="0" font-family="Virgil, Segoe UI Emoji" font-size="20px" fill="#f08c00" text-anchor="middle" style="white-space: pre;" direction="ltr" dominant-baseline="text-before-edge">Avain on: ????</text></g><g stroke-linecap="round" transform="translate(1000.2409827275594 123.36673749844576) rotate(0 96.5 17.5)"><path d="M8.75 0 M8.75 0 C69.67 1.81, 130.02 2.81, 184.25 0 M184.25 0 C188.13 -1.39, 194.27 1.94, 193 8.75 M193 8.75 C192.09 12.45, 193.56 19.62, 193 26.25 M193 26.25 C191.97 30.27, 191.91 34.59, 184.25 35 M184.25 35 C116.11 32.49, 48.3 32.2, 8.75 35 M8.75 35 C2.44 36.36, -1.1 31.72, 0 26.25 M0 26.25 C-0.4 21.31, -1.46 15.76, 0 8.75 M0 8.75 C-0.9 3.72, 3.9 0.67, 8.75 0" stroke="#e03131" stroke-width="1.5" fill="none" stroke-dasharray="1.5 7"></path></g><g transform="translate(1025.7510230107625 128.36673749844576) rotate(0 70.98995971679688 12.5)"><text x="70.98995971679688" y="0" font-family="Virgil, Segoe UI Emoji" font-size="20px" fill="#e03131" text-anchor="middle" style="white-space: pre;" direction="ltr" dominant-baseline="text-before-edge">Avain on: 1234</text></g></svg>